<svg width="512" height="559" viewBox="0 0 512 556" fill="none" xmlns="http://www.w3.org/2000/svg">
<path d="M236.736 555.116C286.659 555.116 327.131 552.504 327.131 549.284C327.131 546.063 286.659 543.452 236.736 543.452C186.812 543.452 146.341 546.063 146.341 549.284C146.341 552.504 186.812 555.116 236.736 555.116Z" fill="#263238"/>
<path d="M262.524 424.573C262.524 424.573 212.615 432.015 182.814 434.08C153.012 436.144 129.23 429.869 115.291 439.503C101.353 449.138 100.128 477.994 109.798 498.709C119.467 519.424 127.573 526.866 142.748 532.406C157.923 537.946 195.795 540.407 254.651 534.739C313.507 529.07 343.017 508.565 353.293 487.29C363.569 466.015 362.472 456.661 358.541 453.686C354.611 450.712 344.44 447.341 344.44 447.341C344.44 447.341 348.615 428.096 332.356 416.595C321.509 408.909 289.27 416.759 262.524 424.573Z" fill="white"/>
<path d="M121.322 517.663C121.322 517.663 127.025 520.824 136.636 520.206C146.247 519.587 154.132 508.542 164.233 499.152C174.334 489.763 213.291 480.758 251.712 479.067C290.133 477.376 320.972 469.433 337.582 463.181C354.191 456.929 360.956 460.638 360.956 464.441C360.956 468.243 354.704 485.436 351.742 490.661C344.347 503.771 331.411 513.756 315.957 520.031C300.502 526.306 277.373 531.695 250.826 535.112C224.279 538.53 187.841 537.55 175.162 536.955C162.484 536.36 138.304 535.59 121.322 517.663Z" fill="#92E3A9"/>
<path opacity="0.5" d="M121.322 517.663C121.322 517.663 127.025 520.824 136.636 520.206C146.247 519.587 154.132 508.542 164.233 499.152C174.334 489.763 213.291 480.758 251.712 479.067C290.133 477.376 320.972 469.433 337.582 463.181C354.191 456.929 360.956 460.638 360.956 464.441C360.956 468.243 355.369 485.716 351.742 490.661C342.854 502.815 331.411 513.756 315.957 520.031C300.502 526.306 277.373 531.695 250.826 535.112C224.279 538.53 187.841 537.55 175.162 536.955C162.484 536.36 138.304 535.59 121.322 517.663Z" fill="white"/>
<path d="M262.524 424.573C262.524 424.573 212.615 432.015 182.814 434.08C153.012 436.144 129.23 429.869 115.291 439.503C101.353 449.138 100.128 477.994 109.798 498.709C119.467 519.424 127.573 526.866 142.748 532.406C157.923 537.946 195.795 540.407 254.651 534.739C313.507 529.07 343.017 508.565 353.293 487.29C363.569 466.015 362.472 456.661 358.541 453.686C354.611 450.712 344.44 447.341 344.44 447.341C344.44 447.341 348.615 428.096 332.356 416.595C321.509 408.909 289.27 416.759 262.524 424.573Z" stroke="#263238" stroke-miterlimit="10"/>
<path d="M337.126 451.984C338.788 451.347 340.342 450.458 341.734 449.348Z" fill="white"/>
<path d="M337.126 451.984C338.788 451.347 340.342 450.458 341.734 449.348" stroke="#263238" stroke-miterlimit="10"/>
<path d="M117.449 457.641C117.612 461.14 115.828 467.8 116.749 473.573C119.817 492.877 125.311 501.87 136.356 502.477C147.402 503.083 154.074 483.219 165.994 481.038C177.915 478.857 215.846 477.457 274.83 467.438C305.424 462.236 322.278 457.571 331.411 454.281" fill="white"/>
<path d="M117.449 457.641C117.612 461.14 115.828 467.8 116.749 473.573C119.817 492.877 125.311 501.87 136.356 502.477C147.402 503.083 154.074 483.219 165.994 481.038C177.915 478.857 215.846 477.457 274.83 467.438C305.424 462.236 322.278 457.571 331.411 454.281" stroke="#263238" stroke-miterlimit="10"/>
<path d="M118.137 446.642C117.642 448.315 117.394 450.052 117.403 451.797Z" fill="white"/>
<path d="M118.137 446.642C117.642 448.315 117.394 450.052 117.403 451.797" stroke="#263238" stroke-miterlimit="10"/>
<path d="M176.97 501.672C177.938 502.675 178.999 504.588 178.486 505.089C177.973 505.591 176.083 504.471 175.115 503.468C174.147 502.465 173.774 501.263 174.287 500.762C174.8 500.26 176.002 500.669 176.97 501.672Z" fill="white" stroke="#263238" stroke-miterlimit="10"/>
<path d="M197.475 502.092C196.973 503.386 195.679 505.159 195.014 504.903C194.349 504.646 194.559 502.465 195.014 501.17C195.469 499.875 196.46 499.024 197.125 499.281C197.79 499.537 197.965 500.797 197.475 502.092Z" fill="white" stroke="#263238" stroke-miterlimit="10"/>
<path d="M198.921 516.018C198.42 517.313 197.125 519.086 196.46 518.829C195.795 518.573 196.017 516.392 196.46 515.097C196.903 513.802 197.906 512.951 198.571 513.207C199.236 513.464 199.423 514.724 198.921 516.018Z" fill="white" stroke="#263238" stroke-miterlimit="10"/>
<path d="M187.759 509.906C187.258 511.213 185.963 512.974 185.298 512.717C184.633 512.461 184.855 510.291 185.298 508.985C185.741 507.679 186.744 506.839 187.409 507.095C188.074 507.352 188.261 508.612 187.759 509.906Z" fill="white" stroke="#263238" stroke-miterlimit="10"/>
<path d="M174.334 518.351C173.832 519.646 172.538 521.419 171.873 521.162C171.208 520.905 171.429 518.724 171.873 517.43C172.316 516.135 173.319 515.283 173.984 515.54C174.649 515.797 174.835 517.045 174.334 518.351Z" fill="white" stroke="#263238" stroke-miterlimit="10"/>
<path d="M211.961 487.92C212.93 488.923 213.991 490.836 213.478 491.338C212.965 491.839 211.075 490.719 210.107 489.716C209.139 488.713 208.766 487.512 209.279 487.01C209.792 486.509 210.993 486.929 211.961 487.92Z" fill="white" stroke="#263238" stroke-miterlimit="10"/>
<path d="M232.467 488.34C231.965 489.646 230.67 491.408 230.006 491.151C229.341 490.894 229.562 488.713 230.006 487.418C230.449 486.124 231.452 485.272 232.117 485.529C232.782 485.786 232.968 487.045 232.467 488.34Z" fill="white" stroke="#263238" stroke-miterlimit="10"/>
<path d="M233.913 502.267C233.411 503.573 232.117 505.334 231.452 505.078C230.787 504.821 231.009 502.64 231.452 501.345C231.895 500.05 232.898 499.199 233.563 499.456C234.228 499.712 234.414 500.972 233.913 502.267Z" fill="white" stroke="#263238" stroke-miterlimit="10"/>
<path d="M222.751 496.166C222.249 497.461 220.954 499.222 220.289 498.966C219.625 498.709 219.846 496.54 220.289 495.233C220.733 493.927 221.736 493.087 222.401 493.344C223.065 493.6 223.252 494.86 222.751 496.166Z" fill="white" stroke="#263238" stroke-miterlimit="10"/>
<path d="M209.326 504.599C208.824 505.906 207.529 507.667 206.864 507.41C206.2 507.154 206.421 504.973 206.864 503.678C207.308 502.383 208.311 501.532 208.976 501.788C209.64 502.045 209.827 503.305 209.326 504.599Z" fill="white" stroke="#263238" stroke-miterlimit="10"/>
<path d="M215.881 510.583C216.849 511.586 217.91 513.511 217.397 514C216.884 514.49 215.064 513.382 214.038 512.391C213.011 511.399 212.696 510.175 213.198 509.685C213.699 509.195 214.912 509.626 215.881 510.583Z" fill="white" stroke="#263238" stroke-miterlimit="10"/>
<path d="M236.386 511.014C235.884 512.309 234.589 514.07 233.924 513.814C233.26 513.557 233.481 511.388 233.924 510.081C234.368 508.775 235.371 507.935 236.036 508.192C236.7 508.448 236.887 509.708 236.386 511.014Z" fill="white" stroke="#263238" stroke-miterlimit="10"/>
<path d="M237.832 524.941C237.342 526.236 236.047 527.997 235.383 527.74C234.718 527.484 234.928 525.314 235.383 524.008C235.837 522.702 236.817 521.862 237.482 522.118C238.147 522.375 238.333 523.623 237.832 524.941Z" fill="white" stroke="#263238" stroke-miterlimit="10"/>
<path d="M226.67 518.829C226.18 520.124 224.885 521.897 224.22 521.64C223.555 521.384 223.765 519.203 224.22 517.908C224.675 516.613 225.655 515.762 226.32 516.018C226.985 516.275 227.171 517.523 226.67 518.829Z" fill="white" stroke="#263238" stroke-miterlimit="10"/>
<path d="M213.245 527.262C212.743 528.569 211.448 530.33 210.784 530.073C210.119 529.817 210.34 527.647 210.784 526.341C211.227 525.034 212.23 524.195 212.895 524.451C213.56 524.708 213.746 525.956 213.245 527.262Z" fill="white" stroke="#263238" stroke-miterlimit="10"/>
<path d="M249.239 496.703C250.207 497.706 251.257 499.619 250.744 500.121C250.231 500.622 248.411 499.502 247.385 498.511C246.358 497.519 246.043 496.295 246.557 495.793C247.07 495.292 248.26 495.712 249.239 496.703Z" fill="white" stroke="#263238" stroke-miterlimit="10"/>
<path d="M269.733 497.123C269.243 498.429 267.936 500.19 267.272 499.934C266.607 499.677 266.828 497.508 267.33 496.201C267.831 494.895 268.765 494.055 269.429 494.312C270.094 494.568 270.234 495.828 269.733 497.123Z" fill="white" stroke="#263238" stroke-miterlimit="10"/>
<path d="M271.144 511.049C270.654 512.356 269.36 514.117 268.695 513.86C268.03 513.604 268.24 511.434 268.695 510.128C269.15 508.822 270.129 507.982 270.794 508.238C271.459 508.495 271.681 509.755 271.144 511.049Z" fill="white" stroke="#263238" stroke-miterlimit="10"/>
<path d="M260.017 504.961C259.527 506.256 258.232 508.028 257.567 507.772C256.902 507.515 257.112 505.334 257.567 504.039C258.022 502.745 259.002 501.893 259.667 502.138C260.332 502.383 260.518 503.643 260.017 504.961Z" fill="white" stroke="#263238" stroke-miterlimit="10"/>
<path d="M246.65 513.382C246.16 514.689 244.865 516.45 244.2 516.193C243.536 515.937 243.745 513.767 244.2 512.461C244.655 511.154 245.635 510.315 246.3 510.571C246.965 510.828 247.093 512.088 246.65 513.382Z" fill="white" stroke="#263238" stroke-miterlimit="10"/>
<path d="M283.799 480.117C284.768 481.12 285.817 483.033 285.304 483.534C284.791 484.036 282.913 482.916 281.945 481.913C280.977 480.91 280.603 479.709 281.117 479.207C281.63 478.706 282.808 479.126 283.799 480.117Z" fill="white" stroke="#263238" stroke-miterlimit="10"/>
<path d="M304.293 480.537C303.803 481.843 302.508 483.604 301.843 483.348C301.179 483.091 301.389 480.91 301.843 479.615C302.298 478.321 303.278 477.469 303.943 477.726C304.608 477.982 304.794 479.3 304.293 480.537Z" fill="white" stroke="#263238" stroke-miterlimit="10"/>
<path d="M305.751 494.463C305.249 495.77 303.955 497.531 303.29 497.274C302.625 497.018 302.835 494.837 303.29 493.542C303.745 492.247 304.736 491.396 305.401 491.652C306.066 491.909 306.241 493.169 305.751 494.463Z" fill="white" stroke="#263238" stroke-miterlimit="10"/>
<path d="M294.588 488.363C294.087 489.658 292.792 491.419 292.127 491.163C291.463 490.906 291.672 488.737 292.127 487.43C292.582 486.124 293.574 485.284 294.239 485.541C294.903 485.797 295.078 487.057 294.588 488.363Z" fill="white" stroke="#263238" stroke-miterlimit="10"/>
<path d="M281.151 496.796C280.662 498.091 279.367 499.864 278.702 499.607C278.037 499.351 278.247 497.169 278.702 495.875C279.157 494.58 280.137 493.729 280.802 493.985C281.466 494.242 281.641 495.501 281.151 496.796Z" fill="white" stroke="#263238" stroke-miterlimit="10"/>
<path d="M294.752 501.345C295.72 502.337 296.781 504.261 296.268 504.751C295.755 505.241 293.877 504.133 292.897 503.141C291.918 502.15 291.556 500.925 292.069 500.435C292.582 499.945 293.784 500.295 294.752 501.345Z" fill="white" stroke="#263238" stroke-miterlimit="10"/>
<path d="M315.257 501.765C314.755 503.06 313.461 504.821 312.796 504.564C312.131 504.308 312.353 502.138 312.796 500.832C313.239 499.526 314.242 498.686 314.907 498.942C315.572 499.199 315.758 500.459 315.257 501.765Z" fill="white" stroke="#263238" stroke-miterlimit="10"/>
<path d="M316.703 515.692C316.213 516.986 314.907 518.748 314.242 518.503C313.577 518.258 313.799 516.065 314.3 514.759C314.802 513.452 315.735 512.612 316.4 512.869C317.065 513.126 317.205 514.385 316.703 515.692Z" fill="white" stroke="#263238" stroke-miterlimit="10"/>
<path d="M305.541 509.626C305.051 510.921 303.745 512.694 303.08 512.437C302.415 512.181 302.636 510 303.138 508.705C303.64 507.41 304.573 506.559 305.238 506.815C305.902 507.072 306.042 508.285 305.541 509.626Z" fill="white" stroke="#263238" stroke-miterlimit="10"/>
<path d="M292.139 518.013C291.637 519.319 290.343 521.08 289.678 520.824C289.013 520.567 289.235 518.398 289.678 517.091C290.121 515.785 291.124 514.945 291.789 515.202C292.454 515.458 292.617 516.718 292.139 518.013Z" fill="white" stroke="#263238" stroke-miterlimit="10"/>
<path d="M320.132 472.909C321.1 473.912 322.162 475.825 321.649 476.326C321.135 476.828 319.246 475.708 318.278 474.705C317.31 473.702 316.937 472.5 317.45 471.999C317.963 471.497 319.188 471.917 320.132 472.909Z" fill="white" stroke="#263238" stroke-miterlimit="10"/>
<path d="M340.661 473.329C340.159 474.635 338.864 476.396 338.2 476.14C337.535 475.883 337.745 473.713 338.2 472.407C338.655 471.101 339.646 470.261 340.311 470.518C340.976 470.774 341.127 472.034 340.661 473.329Z" fill="white" stroke="#263238" stroke-miterlimit="10"/>
<path d="M342.107 487.255C341.606 488.562 340.311 490.323 339.646 490.066C338.981 489.81 339.203 487.64 339.646 486.334C340.089 485.027 341.092 484.188 341.757 484.444C342.422 484.701 342.609 485.96 342.107 487.255Z" fill="white" stroke="#263238" stroke-miterlimit="10"/>
<path d="M330.945 481.155C330.443 482.45 329.148 484.211 328.484 483.966C327.819 483.721 328.04 481.528 328.484 480.222C328.927 478.916 329.93 478.076 330.595 478.332C331.26 478.589 331.446 479.849 330.945 481.155Z" fill="white" stroke="#263238" stroke-miterlimit="10"/>
<path d="M317.52 489.588C317.018 490.894 315.723 492.655 315.059 492.399C314.394 492.142 314.604 489.961 315.059 488.666C315.513 487.372 316.505 486.52 317.17 486.777C317.835 487.033 318.01 488.293 317.52 489.588Z" fill="white" stroke="#263238" stroke-miterlimit="10"/>
<path d="M264.857 511.703C264.729 513.079 263.982 515.202 263.271 515.074C262.559 514.945 262.163 512.869 262.279 511.481C262.396 510.093 263.073 509.02 263.784 509.078C264.496 509.137 264.974 510.315 264.857 511.703Z" fill="white" stroke="#263238" stroke-miterlimit="10"/>
<path d="M277.967 527.461C276.661 527.939 274.468 528.114 274.235 527.461C274.002 526.807 275.786 525.536 277.093 525.058C278.399 524.58 279.659 524.743 279.904 525.408C280.148 526.072 279.309 526.982 277.967 527.461Z" fill="white" stroke="#263238" stroke-miterlimit="10"/>
<path d="M330.49 502.791C329.487 503.748 327.55 504.786 327.061 504.273C326.571 503.76 327.702 501.882 328.705 500.925C329.708 499.969 330.933 499.607 331.423 500.12C331.913 500.634 331.505 501.835 330.49 502.791Z" fill="white" stroke="#263238" stroke-miterlimit="10"/>
<path d="M351.73 476.081C351.205 477.376 349.875 479.114 349.21 478.845C348.546 478.577 348.814 476.396 349.339 475.113C349.864 473.83 350.82 472.99 351.485 473.259C352.15 473.527 352.255 474.798 351.73 476.081Z" fill="white" stroke="#263238" stroke-miterlimit="10"/>
<path d="M304.888 520.381C303.884 521.337 301.96 522.375 301.458 521.85C300.957 521.325 302.1 519.459 303.115 518.503C304.129 517.546 305.331 517.185 305.832 517.698C306.334 518.211 305.902 519.412 304.888 520.381Z" fill="white" stroke="#263238" stroke-miterlimit="10"/>
<path d="M252.657 529.233C251.351 529.7 249.158 529.887 248.924 529.233C248.691 528.58 250.464 527.297 251.782 526.831C253.1 526.364 254.348 526.504 254.581 527.181C254.815 527.857 253.963 528.755 252.657 529.233Z" fill="white" stroke="#263238" stroke-miterlimit="10"/>
<path d="M190.255 532.733C188.867 532.791 186.756 532.301 186.697 531.566C186.639 530.831 188.762 530.202 190.197 530.143C191.631 530.085 192.739 530.61 192.763 531.31C192.786 532.009 191.643 532.674 190.255 532.733Z" fill="white" stroke="#263238" stroke-miterlimit="10"/>
<path d="M185.181 524.673C183.793 524.731 181.682 524.241 181.682 523.506C181.682 522.772 183.735 522.13 185.181 522.072C186.628 522.014 187.724 522.55 187.759 523.238C187.794 523.926 186.569 524.626 185.181 524.673Z" fill="white" stroke="#263238" stroke-miterlimit="10"/>
<path d="M160.804 530.89C159.451 530.528 157.561 529.432 157.748 528.744C157.935 528.055 160.081 528.044 161.457 528.394C162.833 528.744 163.79 529.56 163.568 530.295C163.347 531.03 162.145 531.251 160.804 530.89Z" fill="white" stroke="#263238" stroke-miterlimit="10"/>
<path d="M166.239 514.467C165.201 515.4 163.242 516.38 162.74 515.855C162.239 515.33 163.44 513.522 164.478 512.554C165.516 511.586 166.741 511.294 167.219 511.831C167.697 512.368 167.336 513.546 166.239 514.467Z" fill="white" stroke="#263238" stroke-miterlimit="10"/>
<path d="M225.737 531.135C224.43 531.613 222.238 531.788 222.004 531.135C221.771 530.481 223.544 529.21 224.862 528.732C226.18 528.254 227.428 528.417 227.661 529.082C227.895 529.747 227.043 530.621 225.737 531.135Z" fill="white" stroke="#263238" stroke-miterlimit="10"/>
<path d="M265.697 525.244C264.391 525.723 262.198 525.898 261.965 525.244C261.731 524.591 263.516 523.308 264.822 522.83C266.129 522.352 267.388 522.515 267.633 523.18C267.878 523.845 267.015 524.79 265.697 525.244Z" fill="white" stroke="#263238" stroke-miterlimit="10"/>
<path d="M261.708 489.39C260.402 489.856 258.209 490.043 257.975 489.39C257.742 488.736 259.515 487.453 260.821 486.987C262.128 486.52 263.387 486.66 263.632 487.337C263.877 488.013 262.979 488.911 261.708 489.39Z" fill="white" stroke="#263238" stroke-miterlimit="10"/>
<path d="M199.854 430.312C199.854 430.312 190.733 418.158 192.168 409.049C193.603 399.939 185.659 395.495 183.49 398.446C181.321 401.397 183.548 408.139 178.603 404.85C173.657 401.561 174.217 389.348 170.333 385.091C166.449 380.834 162.635 386.258 163.556 388.345C164.478 390.433 161.819 392.859 157.841 390.678C153.864 388.497 149.863 364.819 141.885 372.086C133.907 379.353 145.816 386.083 141.698 386.876C137.581 387.669 124.389 375.363 120.703 377.743C117.018 380.122 126.909 386.689 124.296 388.1C121.683 389.512 114.218 385.593 112.434 391.121C110.649 396.65 124.098 393.186 123.829 398.283C123.561 403.38 115.793 406.576 117.636 410.74C119.479 414.904 132.799 414.496 131.504 419.535C130.209 424.573 129.929 431.7 136.52 432.517C143.11 433.333 151.869 431.187 149.117 435.654C146.364 440.121 150.726 444.904 158.378 444.752C166.029 444.6 172.001 447.913 170.275 452.473C168.549 457.034 176.585 459.402 180.772 457.547C184.96 455.693 190.698 452.403 192.005 457.057C193.311 461.711 197.44 460.871 201.126 458.492C204.812 456.113 208.917 455.284 210.282 458.924C211.647 462.563 220.546 457.361 220.546 457.361C220.546 457.361 230.145 459.332 232.21 458.41C234.275 457.489 232.921 453.85 229.481 451.144C226.04 448.438 218.762 440.448 217.817 438.372C216.872 436.296 211.553 430.429 209.955 431.887C208.357 433.345 200.729 433.438 199.854 430.312Z" fill="#92E3A9" stroke="#263238" stroke-miterlimit="10"/>
<path d="M138.444 404.418C136.855 402.958 135.359 401.4 133.965 399.753" stroke="#263238" stroke-miterlimit="10"/>
<path d="M201.429 443.294C198.525 442.058 195.597 440.845 192.786 439.702C179.886 434.453 158.261 420.888 144.358 409.55" stroke="#263238" stroke-miterlimit="10"/>
<path d="M230.32 456.218C230.32 456.218 220.383 451.552 208.602 446.385" stroke="#263238" stroke-miterlimit="10"/>
<path d="M319.491 403.182C319.491 403.182 304.794 401.549 299.301 394.446C293.807 387.342 285.304 390.013 286.004 393.536C286.704 397.058 292.909 399.951 287.275 401.257C281.642 402.564 273.372 394.026 267.773 393.932C262.175 393.839 263.458 400.173 265.557 400.931C267.657 401.689 267.587 405.176 263.364 406.506C259.142 407.836 239.71 394.912 239.547 405.421C239.383 415.93 252.062 411.93 249.904 415.406C247.746 418.881 230.192 419.99 229.434 424.189C228.676 428.388 239.932 425.751 239.173 428.551C238.415 431.35 230.67 434.021 233.342 438.967C236.013 443.912 242.556 432.108 246.008 435.666C249.461 439.223 246.533 446.886 250.674 448.356C254.815 449.826 263.423 440.191 266.164 444.402C268.905 448.613 273.722 453.64 278.691 449.511C283.659 445.382 288.022 437.754 289.316 442.676C290.611 447.598 296.945 447.703 301.948 442.174C306.952 436.646 313.286 434.651 315.315 438.885C317.345 443.119 324.425 439.037 325.894 434.861C327.364 430.685 328.869 424.363 333.033 426.556C337.197 428.749 339.366 425.262 340.136 421.063C340.906 416.864 343.064 413.399 346.539 414.857C350.015 416.315 352.29 406.541 352.29 406.541C352.29 406.541 360.081 401.059 360.816 398.971C361.551 396.883 358.075 395.472 353.818 396.055C349.56 396.638 339.098 396.522 337.01 395.787C334.922 395.052 327.201 394.924 327.166 397.023C327.131 399.123 322.267 404.652 319.491 403.182Z" fill="#92E3A9" stroke="#263238" stroke-miterlimit="10"/>
<path d="M260.168 429.402C258.075 429.534 255.975 429.534 253.882 429.402" stroke="#263238" stroke-miterlimit="10"/>
<path d="M329.72 410.717C326.909 411.942 324.098 413.201 321.416 414.426C309.087 420.083 285.059 426.346 267.762 428.632" stroke="#263238" stroke-miterlimit="10"/>
<path d="M358.11 398.901C358.11 398.901 348.172 402.832 336.648 407.731" stroke="#263238" stroke-miterlimit="10"/>
<path d="M215.706 114.839C215.706 114.839 213.513 99.2679 200.764 95.2439C188.016 91.2199 174.521 100.003 168.665 107.806C162.81 115.609 162.134 124.602 165.586 129.839C169.039 135.076 178.976 144.769 191.748 147.16C204.52 149.551 210.97 142.716 213.723 136.604C216.936 129.812 217.638 122.1 215.706 114.839V114.839Z" fill="#92E3A9" stroke="#263238" stroke-miterlimit="10"/>
<path d="M212.627 115.562C212.627 115.562 210.69 101.869 199.481 98.3348C188.272 94.8007 176.41 102.522 171.266 109.381C166.123 116.239 165.516 124.147 168.56 128.754C171.605 133.361 180.329 141.876 191.55 143.917C202.771 145.958 208.451 140.022 210.877 134.644C213.687 128.688 214.306 121.931 212.627 115.562V115.562Z" fill="white"/>
<path d="M192.611 107.934C192.611 107.934 193.428 104.855 191.142 103.269C188.855 101.682 182.977 103.595 177.005 108.284C171.033 112.973 170.147 121.114 170.578 123.167C171.01 125.22 177.506 124.52 177.506 124.52L178.405 126.69C178.405 126.69 175.104 130.189 175.384 131.892C175.664 133.595 184.073 138.983 191.713 140.815C199.353 142.646 203.645 138.074 203.377 136.522C202.997 135.036 202.502 133.581 201.896 132.172L202.397 130.014C202.397 130.014 207.343 130.096 208.766 127.798C210.189 125.5 209.116 116.064 206.561 111.083C204.007 106.103 198.175 104.773 197.078 105.368C195.982 105.963 194.862 108.576 194.862 108.576C194.078 108.507 193.314 108.289 192.611 107.934Z" fill="#92E3A9"/>
<path d="M197.58 115.387C197.58 115.387 195.142 113.183 196.099 111.807C197.055 110.43 198.898 110.15 197.848 108.307C196.799 106.465 192.016 106.511 191.223 107.421C190.43 108.331 192.285 108.832 192.261 110.22C192.238 111.608 191.608 112.378 188.762 113.568C185.916 114.758 183.408 119.808 182.767 121.651C182.125 123.494 181.169 124.719 179.478 123.914C177.787 123.109 176.259 122.631 176.375 124.8C176.492 126.97 179.07 130.399 180.154 129.804C181.239 129.209 180.796 128.416 181.414 128.428C182.032 128.439 188.797 130.865 191.573 131.064C194.349 131.262 196.075 129.127 197.149 129.769C198.222 130.41 197.708 133.793 199.4 133.968C201.091 134.143 204.998 131.437 204.252 129.722C203.505 128.008 202.234 130.306 200.426 127.658C198.618 125.01 200.251 119.621 199.516 117.44C198.781 115.259 197.58 115.387 197.58 115.387Z" fill="white"/>
<path d="M187.316 110.372C188.284 111.375 189.345 113.288 188.832 113.789C188.319 114.291 186.429 113.171 185.461 112.168C184.493 111.165 184.12 109.964 184.633 109.462C185.146 108.961 186.348 109.369 187.316 110.372Z" fill="white"/>
<path d="M200.321 113.288C199.236 114.163 197.23 115.037 196.822 114.454C196.413 113.871 197.661 112.122 198.746 111.258C199.831 110.395 201.079 110.092 201.511 110.675C201.942 111.258 201.406 112.413 200.321 113.288Z" fill="white"/>
<path d="M182.954 132.58C183.327 131.25 184.458 129.372 185.146 129.571C185.835 129.769 185.811 131.903 185.426 133.291C185.041 134.679 184.19 135.554 183.502 135.356C182.814 135.158 182.569 133.921 182.954 132.58Z" fill="white"/>
<path d="M187.876 133.781C188.074 132.405 188.937 130.387 189.637 130.492C190.337 130.597 190.628 132.755 190.442 134.131C190.255 135.508 189.52 136.557 188.809 136.464C188.097 136.371 187.689 135.216 187.876 133.781Z" fill="white"/>
<path d="M194.57 134.435C193.987 133.175 193.626 131.017 194.267 130.714C194.909 130.41 196.332 132.09 196.915 133.35C197.498 134.609 197.451 135.881 196.798 136.184C196.145 136.487 195.154 135.706 194.57 134.435Z" fill="white"/>
<path d="M202.934 117.72C201.651 118.28 199.435 118.583 199.201 117.93C198.968 117.277 200.624 115.901 201.907 115.352C203.19 114.804 204.45 114.886 204.73 115.539C205.01 116.192 204.205 117.16 202.934 117.72Z" fill="white"/>
<path d="M202.829 124.602C201.429 124.672 199.33 124.194 199.271 123.436C199.213 122.677 201.312 122.048 202.77 121.978C204.228 121.908 205.313 122.444 205.336 123.144C205.36 123.844 204.217 124.544 202.829 124.602Z" fill="white"/>
<path d="M183.548 113.859C184.517 114.863 185.578 116.775 185.065 117.277C184.552 117.779 182.732 116.659 181.706 115.667C180.679 114.676 180.364 113.451 180.866 112.95C181.367 112.448 182.58 112.868 183.548 113.859Z" fill="white"/>
<path d="M180.166 118.887C181.332 119.668 182.755 121.324 182.359 121.919C181.962 122.514 179.886 121.803 178.731 121.033C177.576 120.263 176.958 119.143 177.355 118.548C177.751 117.953 179.058 118.128 180.166 118.887Z" fill="white"/>
<path d="M287.275 203.858C287.275 203.858 300.211 197.163 299.826 184.787C299.441 172.412 287.649 163.303 279.029 160.573C270.409 157.844 262.338 160.002 258.827 164.621C255.316 169.24 249.858 180.892 251.677 192.789C253.497 204.686 261.44 208.244 267.633 208.78C274.557 209.51 281.515 207.767 287.275 203.858V203.858Z" fill="#92E3A9" stroke="#263238" stroke-miterlimit="10"/>
<path d="M285.689 201.374C285.689 201.374 297.073 195.542 296.735 184.613C296.397 173.683 286.016 165.729 278.446 163.326C270.876 160.923 263.773 162.813 260.682 166.883C257.591 170.954 252.797 181.195 254.407 191.657C256.016 202.12 262.98 205.234 268.403 205.654C274.49 206.322 280.617 204.805 285.689 201.374V201.374Z" fill="white"/>
<path d="M286.237 181.545C286.237 181.545 289.176 181.323 289.865 178.839C290.553 176.355 287.065 171.771 281.14 168.015C275.215 164.259 267.797 165.962 266.164 166.953C264.531 167.945 267.108 173.427 267.108 173.427L265.475 174.862C265.475 174.862 261.416 173.054 260.005 173.823C258.594 174.593 256.506 183.586 257.229 190.876C257.952 198.166 263.283 200.475 264.542 199.752C265.73 198.969 266.854 198.091 267.902 197.128L269.931 196.906C269.931 196.906 271.377 201.245 273.815 201.793C276.253 202.342 284.184 198.504 287.812 194.795C291.439 191.086 290.763 185.464 289.9 184.753C289.036 184.041 286.4 183.796 286.4 183.796C286.205 183.063 286.15 182.299 286.237 181.545V181.545Z" fill="#92E3A9"/>
<path d="M281.21 188.193C281.21 188.193 282.376 185.382 283.881 185.791C285.386 186.199 286.214 187.738 287.497 186.245C288.78 184.752 287.275 180.6 286.237 180.192C285.199 179.784 285.339 181.545 284.114 181.953C282.889 182.361 282.026 182.035 280.137 179.947C278.247 177.859 273.033 177.183 271.226 177.183C269.418 177.183 268.053 176.728 268.24 175.001C268.426 173.275 268.38 171.794 266.525 172.564C264.67 173.334 262.443 176.623 263.306 177.393C264.169 178.162 264.705 177.532 264.892 178.081C265.079 178.629 265.02 185.277 265.685 187.762C266.35 190.246 268.764 191.109 268.531 192.241C268.298 193.372 265.184 193.955 265.545 195.495C265.907 197.034 269.476 199.624 270.747 198.446C272.019 197.268 269.581 196.86 271.377 194.468C273.173 192.077 278.375 191.844 280.032 190.538C281.688 189.231 281.21 188.193 281.21 188.193Z" fill="white"/>
<path d="M282.493 177.661C281.91 178.827 280.557 180.332 279.962 179.994C279.367 179.655 279.776 177.661 280.347 176.564C280.919 175.468 281.875 174.71 282.458 175.001C283.041 175.293 283.065 176.506 282.493 177.661Z" fill="white"/>
<path d="M283.974 189.931C282.878 189.243 281.501 187.762 281.851 187.202C282.201 186.642 284.184 187.202 285.234 187.902C286.284 188.602 286.937 189.593 286.587 190.153C286.237 190.713 285.012 190.608 283.974 189.931Z" fill="white"/>
<path d="M261.731 180.635C263.014 180.565 265.009 180.985 265.044 181.638C265.079 182.291 263.166 182.956 261.871 183.026C260.576 183.096 259.538 182.63 259.468 181.976C259.398 181.323 260.448 180.705 261.731 180.635Z" fill="white"/>
<path d="M262.198 185.371C263.457 185.114 265.487 185.254 265.615 185.896C265.744 186.537 263.936 187.458 262.664 187.715C261.393 187.972 260.332 187.645 260.145 186.992C259.958 186.339 260.926 185.569 262.198 185.371Z" fill="white"/>
<path d="M263.667 191.378C264.589 190.479 266.373 189.5 266.828 189.966C267.283 190.433 266.257 192.194 265.335 193.092C264.414 193.99 263.283 194.329 262.828 193.862C262.373 193.395 262.746 192.276 263.667 191.378Z" fill="white"/>
<path d="M280.848 193.535C279.974 192.591 279.04 190.783 279.53 190.339C280.02 189.896 281.735 190.969 282.61 191.914C283.484 192.859 283.776 193.99 283.309 194.445C282.843 194.9 281.723 194.503 280.848 193.535Z" fill="white"/>
<path d="M274.783 195.577C274.305 194.41 274.072 192.369 274.69 192.077C275.308 191.786 276.521 193.442 277.023 194.643C277.524 195.845 277.396 196.976 276.778 197.256C276.159 197.536 275.273 196.778 274.783 195.577Z" fill="white"/>
<path d="M278.282 175.445C277.711 176.611 276.358 178.104 275.763 177.777C275.168 177.451 275.565 175.445 276.148 174.278C276.731 173.112 277.664 172.435 278.259 172.727C278.854 173.019 278.866 174.29 278.282 175.445Z" fill="white"/>
<path d="M272.859 174.068C272.532 175.316 271.517 177.066 270.887 176.903C270.258 176.739 270.223 174.71 270.549 173.404C270.876 172.097 271.657 171.281 272.287 171.444C272.917 171.607 273.185 172.82 272.859 174.068Z" fill="white"/>
<path d="M225.655 359.827C207.8 359.548 190.038 357.199 172.724 352.829C131.318 342.331 105.202 323.541 104.106 322.748C98.7711 318.881 95.191 313.053 94.1531 306.547C93.1151 300.041 94.7044 293.388 98.5712 288.054C102.438 282.719 108.266 279.139 114.772 278.101C121.279 277.063 127.931 278.652 133.265 282.519C133.779 282.881 154.389 297.274 186.919 305.159C229.796 315.551 272.649 310.302 314.265 289.552C320.16 286.614 326.981 286.137 333.227 288.227C339.473 290.317 344.633 294.803 347.572 300.697C350.51 306.592 350.987 313.412 348.897 319.659C346.807 325.905 342.321 331.065 336.427 334.003C295.755 354.217 257.766 360.329 225.655 359.827Z" fill="#92E3A9" stroke="#263238" stroke-miterlimit="10"/>
<path d="M343.927 317.452C343.015 320.41 341.51 323.152 339.505 325.51C337.5 327.868 335.036 329.794 332.263 331.169C314.93 339.889 296.555 346.361 277.583 350.426" stroke="#263238" stroke-miterlimit="10"/>
<path d="M343.344 302.266C344.196 304.41 344.719 306.672 344.895 308.973" stroke="#263238" stroke-miterlimit="10"/>
<path d="M149.42 337.689C147.453 336.849 145.563 336.01 143.751 335.17" stroke="#263238" stroke-miterlimit="10"/>
<path d="M268.811 352.094C239.721 357.006 209.926 355.79 181.332 348.525C172.211 346.198 163.25 343.284 154.505 339.8" stroke="#263238" stroke-miterlimit="10"/>
<path opacity="0.2" d="M136.263 286.846C136.263 286.846 139.657 292.573 135.563 303.421C131.469 314.268 129.731 315.983 132.74 316.041C135.75 316.099 141.173 307.445 142.176 298.732C143.18 290.019 139.342 286.485 136.263 286.846Z" fill="black"/>
<path opacity="0.2" d="M159.672 297.344C159.672 297.344 163.067 303.071 158.961 313.918C154.855 324.766 153.129 326.492 156.138 326.539C159.147 326.585 164.571 317.942 165.586 309.229C166.601 300.516 162.728 296.901 159.672 297.344Z" fill="black"/>
<path opacity="0.2" d="M184.831 306.43C184.831 306.43 188.225 312.157 184.12 323.004C180.014 333.852 178.288 335.566 181.297 335.613C184.306 335.66 189.73 327.017 190.745 318.304C191.76 309.591 187.899 306.033 184.831 306.43Z" fill="black"/>
<path opacity="0.2" d="M209.675 310.956C209.675 310.956 213.734 316.239 210.935 327.495C208.136 338.751 206.573 340.663 209.617 340.325C212.661 339.987 216.977 330.796 216.954 322.025C216.93 313.253 212.673 310.174 209.675 310.956Z" fill="black"/>
<path opacity="0.2" d="M234.018 312.577C234.018 312.577 238.555 317.464 236.852 328.906C235.149 340.349 233.773 342.436 236.771 341.83C239.768 341.223 243.186 331.647 242.323 322.911C241.46 314.175 236.934 311.55 234.018 312.577Z" fill="black"/>
<path opacity="0.2" d="M262.828 311.107C262.828 311.107 268.065 315.225 268.158 326.83C268.252 338.436 267.213 340.663 270.083 339.66C272.952 338.657 274.842 328.591 272.637 320.1C270.433 311.609 265.546 309.649 262.828 311.107Z" fill="black"/>
<path opacity="0.2" d="M292.559 303.292C292.559 303.292 298.298 306.663 299.931 318.152C301.564 329.641 300.852 331.997 303.546 330.563C306.241 329.128 306.789 318.969 303.476 310.839C300.164 302.709 295.055 301.473 292.559 303.292Z" fill="black"/>
<path d="M151.648 143.544C139.039 143.334 128.67 152.397 128.483 163.769C128.297 175.141 138.374 184.531 150.983 184.764C163.592 184.997 173.949 175.911 174.136 164.539C174.322 153.167 164.245 143.742 151.648 143.544ZM149.397 183.038C138.747 182.863 130.233 175.223 130.384 165.95C130.536 156.678 139.284 149.318 149.933 149.493C160.582 149.668 169.085 157.319 168.945 166.58C168.805 175.841 160.034 183.201 149.397 183.038Z" fill="white" stroke="#263238" stroke-linecap="round" stroke-linejoin="round"/>
<path d="M162.262 146.39L161.084 148.081" stroke="#263238" stroke-linecap="round" stroke-linejoin="round"/>
<path d="M168.024 150.752L167.009 151.744" stroke="#263238" stroke-linecap="round" stroke-linejoin="round"/>
<path d="M172.759 157.389L171.033 158.497" stroke="#263238" stroke-linecap="round" stroke-linejoin="round"/>
<path d="M152.896 143.964L152.721 145.667" stroke="#263238" stroke-linecap="round" stroke-linejoin="round"/>
<path d="M142.76 145.364L142.736 146.355" stroke="#263238" stroke-linecap="round" stroke-linejoin="round"/>
<path d="M173.727 168.376L171.733 168.201" stroke="#263238" stroke-linecap="round" stroke-linejoin="round"/>
<path d="M157.41 182.07L158.238 183.796" stroke="#263238" stroke-linecap="round" stroke-linejoin="round"/>
<path d="M167.184 176.809L168.444 177.684" stroke="#263238" stroke-linecap="round" stroke-linejoin="round"/>
<path d="M133.825 151.487L134.385 151.919" stroke="#263238" stroke-linecap="round" stroke-linejoin="round"/>
<path d="M211.017 281.411C226.681 278.402 237.167 264.498 234.438 250.373C231.709 236.248 216.825 227.244 201.161 230.253C185.496 233.263 175.034 247.189 177.751 261.291C180.469 275.392 195.329 284.42 211.017 281.411ZM203.575 231.956C216.802 229.413 229.317 236.622 231.569 248.181C233.82 259.74 224.862 271.065 211.647 273.608C198.432 276.151 185.916 268.942 183.653 257.395C181.391 245.848 190.36 234.499 203.575 231.956Z" fill="white" stroke="#263238" stroke-linecap="round" stroke-linejoin="round"/>
<path d="M197.148 280.63L198.152 278.238" stroke="#263238" stroke-linecap="round" stroke-linejoin="round"/>
<path d="M188.879 276.722L189.882 275.241" stroke="#263238" stroke-linecap="round" stroke-linejoin="round"/>
<path d="M181.297 269.735L183.152 267.916" stroke="#263238" stroke-linecap="round" stroke-linejoin="round"/>
<path d="M209.372 281.213L209.139 279.055" stroke="#263238" stroke-linecap="round" stroke-linejoin="round"/>
<path d="M221.549 276.85L221.316 275.614" stroke="#263238" stroke-linecap="round" stroke-linejoin="round"/>
<path d="M177.262 256.392L179.769 256.1" stroke="#263238" stroke-linecap="round" stroke-linejoin="round"/>
<path d="M193.906 235.21L192.436 233.297" stroke="#263238" stroke-linecap="round" stroke-linejoin="round"/>
<path d="M183.175 244.25L181.379 243.492" stroke="#263238" stroke-linecap="round" stroke-linejoin="round"/>
<path d="M231.02 266.959L230.204 266.563" stroke="#263238" stroke-linecap="round" stroke-linejoin="round"/>
<path d="M331.341 365.904C347.006 362.895 357.492 349.003 354.762 334.878C352.033 320.753 337.15 311.749 321.497 314.758C305.844 317.767 295.358 331.659 298.076 345.784C300.794 359.909 315.688 368.925 331.341 365.904ZM323.911 316.449C337.127 313.907 349.642 321.173 351.905 332.674C354.168 344.174 345.186 355.57 331.971 358.113C318.756 360.655 306.241 353.389 303.978 341.888C301.715 330.388 310.685 319.004 323.911 316.449Z" fill="white" stroke="#263238" stroke-linecap="round" stroke-linejoin="round"/>
<path d="M317.473 365.123L318.476 362.732" stroke="#263238" stroke-linecap="round" stroke-linejoin="round"/>
<path d="M309.203 361.215L310.206 359.746" stroke="#263238" stroke-linecap="round" stroke-linejoin="round"/>
<path d="M301.622 354.24L303.476 352.421" stroke="#263238" stroke-linecap="round" stroke-linejoin="round"/>
<path d="M329.697 365.706L329.463 363.56" stroke="#263238" stroke-linecap="round" stroke-linejoin="round"/>
<path d="M341.874 361.344L341.64 360.107" stroke="#263238" stroke-linecap="round" stroke-linejoin="round"/>
<path d="M297.586 340.897L300.094 340.594" stroke="#263238" stroke-linecap="round" stroke-linejoin="round"/>
<path d="M314.231 319.715L312.761 317.802" stroke="#263238" stroke-linecap="round" stroke-linejoin="round"/>
<path d="M303.5 328.755L301.703 327.996" stroke="#263238" stroke-linecap="round" stroke-linejoin="round"/>
<path d="M351.345 351.453L350.529 351.068" stroke="#263238" stroke-linecap="round" stroke-linejoin="round"/>
<path d="M354.436 243.049C354.436 244.996 351.625 246.664 351.298 248.531C350.971 250.397 353.013 252.951 352.394 254.747C351.776 256.544 348.615 257.29 347.729 258.981C346.842 260.673 347.997 263.647 346.842 265.222C345.688 266.796 342.457 266.47 341.08 267.811C339.704 269.152 339.914 272.371 338.316 273.48C336.718 274.588 333.779 273.316 332.041 274.168C330.303 275.019 329.51 278.133 327.667 278.705C325.824 279.277 323.41 277.13 321.485 277.399C319.561 277.667 317.858 280.385 315.91 280.361C313.962 280.338 312.294 277.55 310.439 277.224C308.585 276.897 306.019 278.938 304.223 278.32C302.426 277.702 301.668 274.541 299.989 273.655C298.309 272.768 295.265 273.923 293.737 272.768C292.209 271.613 292.489 268.382 291.159 267.006C289.829 265.63 286.587 265.84 285.49 264.242C284.394 262.644 285.654 259.705 284.802 257.978C283.951 256.252 280.837 255.436 280.265 253.593C279.693 251.75 281.828 249.335 281.56 247.411C281.291 245.486 278.574 243.783 278.609 241.835C278.644 239.888 281.42 238.22 281.735 236.365C282.05 234.511 280.032 231.945 280.638 230.148C281.245 228.352 284.429 227.594 285.304 225.914C286.179 224.235 285.047 221.19 286.19 219.662C287.333 218.134 290.576 218.414 291.952 217.085C293.329 215.755 293.119 212.512 294.717 211.416C296.314 210.32 299.265 211.579 300.992 210.728C302.718 209.876 303.534 206.762 305.377 206.191C307.22 205.619 309.635 207.754 311.548 207.485C313.46 207.217 315.175 204.499 317.123 204.534C319.071 204.569 320.739 207.345 322.605 207.672C324.471 207.999 327.025 205.957 328.822 206.506C330.618 207.054 331.364 210.296 333.056 211.171C334.747 212.046 337.721 210.903 339.296 212.058C340.87 213.212 340.544 216.432 341.885 217.808C343.227 219.184 346.446 218.974 347.554 220.572C348.662 222.17 347.391 225.121 348.23 226.847C349.07 228.574 352.208 229.39 352.779 231.233C353.351 233.076 351.205 235.49 351.473 237.403C351.741 239.316 354.459 241.101 354.436 243.049Z" fill="#92E3A9" stroke="#263238" stroke-miterlimit="10"/>
<path d="M354.249 240.891C354.249 242.839 351.438 244.507 351.112 246.361C350.785 248.216 352.826 250.782 352.22 252.578C351.613 254.374 348.429 255.132 347.554 256.812C346.68 258.492 347.811 261.536 346.656 263.064C345.501 264.592 342.282 264.312 340.906 265.641C339.53 266.971 339.74 270.214 338.142 271.31C336.544 272.407 333.593 271.147 331.866 271.998C330.14 272.85 329.324 275.976 327.481 276.536C325.638 277.095 323.223 274.973 321.311 275.241C319.398 275.509 317.683 278.227 315.735 278.192C313.787 278.157 312.119 275.381 310.253 275.066C308.387 274.751 305.833 276.769 304.036 276.162C302.24 275.556 301.494 272.372 299.802 271.497C298.111 270.622 295.137 271.753 293.562 270.61C291.988 269.467 292.314 266.225 290.973 264.848C289.632 263.472 286.412 263.682 285.304 262.084C284.196 260.486 285.467 257.535 284.616 255.809C283.765 254.083 280.65 253.278 280.079 251.423C279.507 249.569 281.653 247.178 281.385 245.253C281.117 243.328 278.399 241.626 278.423 239.678C278.446 237.73 281.234 236.062 281.56 234.196C281.887 232.329 279.846 229.775 280.464 227.979C281.082 226.183 284.243 225.436 285.129 223.745C286.016 222.054 284.861 219.079 286.016 217.505C287.17 215.93 290.401 216.257 291.778 214.915C293.154 213.574 292.944 210.355 294.542 209.247C296.14 208.139 299.079 209.41 300.805 208.57C302.532 207.73 303.348 204.593 305.191 204.033C307.034 203.473 309.448 205.596 311.373 205.328C313.297 205.059 315 202.342 316.948 202.365C318.896 202.388 320.564 205.176 322.419 205.503C324.273 205.829 326.839 203.788 328.636 204.406C330.432 205.024 331.19 208.185 332.87 209.072C334.549 209.958 337.593 208.815 339.121 209.958C340.649 211.101 340.369 214.344 341.699 215.72C343.029 217.096 346.271 216.886 347.368 218.484C348.464 220.082 347.204 223.022 348.056 224.76C348.907 226.498 352.022 227.291 352.593 229.134C353.165 230.976 351.03 233.391 351.298 235.315C351.567 237.24 354.284 238.943 354.249 240.891Z" fill="#92E3A9" stroke="#263238" stroke-miterlimit="10"/>
<path d="M350.05 240.821C350.05 242.559 347.554 244.04 347.262 245.696C346.971 247.353 348.79 249.627 348.242 251.213C347.694 252.8 344.883 253.546 344.078 254.981C343.273 256.415 344.311 259.18 343.297 260.544C342.282 261.909 339.401 261.711 338.176 262.877C336.951 264.044 337.115 266.948 335.715 267.928C334.315 268.907 331.668 267.776 330.14 268.534C328.612 269.292 327.877 272.033 326.232 272.57C324.588 273.106 322.453 271.17 320.75 271.403C319.047 271.637 317.519 274.063 315.793 274.028C314.067 273.993 312.574 271.532 310.918 271.24C309.261 270.949 306.987 272.768 305.389 272.22C303.791 271.672 303.126 268.861 301.622 268.056C300.117 267.251 297.423 268.301 296.07 267.274C294.717 266.248 294.962 263.379 293.737 262.154C292.512 260.929 289.678 261.093 288.698 259.693C287.718 258.293 288.838 255.657 288.091 254.118C287.345 252.578 284.592 251.855 284.056 250.222C283.519 248.589 285.444 246.431 285.222 244.728C285.001 243.025 282.574 241.497 282.598 239.771C282.621 238.045 285.094 236.552 285.385 234.896C285.677 233.239 283.869 230.965 284.406 229.367C284.942 227.769 287.777 227.104 288.57 225.599C289.363 224.095 288.336 221.4 289.363 220.047C290.389 218.694 293.259 218.939 294.483 217.715C295.708 216.49 295.545 213.656 296.944 212.676C298.344 211.696 300.98 212.816 302.52 212.069C304.059 211.323 304.771 208.57 306.415 208.034C308.06 207.497 310.195 209.422 311.909 209.2C313.624 208.978 315.128 206.541 316.866 206.564C318.604 206.587 320.086 209.072 321.73 209.352C323.375 209.632 325.661 207.835 327.259 208.384C328.857 208.932 329.533 211.743 331.026 212.536C332.519 213.329 335.225 212.303 336.578 213.329C337.931 214.355 337.745 217.225 338.911 218.449C340.077 219.674 342.97 219.511 343.961 220.911C344.953 222.31 343.81 224.946 344.568 226.486C345.326 228.025 348.067 228.737 348.604 230.382C349.14 232.026 347.204 234.161 347.437 235.875C347.671 237.59 350.085 239.083 350.05 240.821Z" fill="white"/>
<path d="M319.339 232.773C319.339 232.773 321.205 224.725 320.389 221.645C319.572 218.566 311.326 217.878 308.025 221.855C304.724 225.833 311.711 234.324 313.682 236.342C315.653 238.36 317.006 238.138 319.339 232.773Z" fill="#92E3A9"/>
<path d="M322.372 245.346C322.372 245.346 329.009 250.292 332.146 250.782C335.284 251.272 339.238 243.982 336.905 239.363C334.572 234.744 324.005 237.741 321.369 238.745C318.733 239.748 318.395 241.066 322.372 245.346Z" fill="#92E3A9"/>
<path d="M309.635 240.249C309.635 240.249 301.47 241.486 298.904 243.375C296.338 245.265 298.741 253.196 303.663 254.794C308.585 256.392 313.892 246.769 315.047 244.192C316.202 241.614 315.467 240.447 309.635 240.249Z" fill="#92E3A9"/>
<path d="M171.185 238.301C171.861 237.625 172.549 236.937 172.538 236.4C172.815 235.59 172.786 234.706 172.456 233.916C172.048 233.134 169.668 233.916 169.493 233.193C169.442 232.396 169.656 231.605 170.1 230.941C170.473 230.195 171.115 227.932 170.858 227.442C170.601 226.952 170.625 226.801 169.692 226.532C168.759 226.264 166.531 227.326 166.053 226.754C165.639 226.107 165.493 225.325 165.644 224.573C165.644 223.791 165.726 223.068 165.259 222.718C164.446 222.36 163.556 222.207 162.67 222.275C161.652 222.318 160.635 222.151 159.684 221.785C159.016 221.357 158.523 220.703 158.296 219.942C157.993 219.278 157.69 218.589 157.071 218.368C156.128 218.237 155.167 218.301 154.249 218.554C153.185 218.815 152.083 218.886 150.994 218.764C150.133 218.552 149.354 218.089 148.755 217.435C148.237 216.855 147.553 216.447 146.795 216.268C146.173 216.283 145.559 216.418 144.988 216.665L144.031 217.038C143.681 217.178 143.331 217.33 142.981 217.458C142.289 217.738 141.557 217.907 140.812 217.96C139.821 217.942 138.845 217.707 137.954 217.271C137.179 216.875 136.317 216.678 135.447 216.7C135.276 216.727 135.108 216.77 134.945 216.828C134.26 217.14 133.614 217.531 133.02 217.994C132.304 218.553 131.52 219.019 130.688 219.383L130.198 219.534C129.145 219.721 128.067 219.721 127.014 219.534C126.083 219.339 125.122 219.339 124.191 219.534C123.411 219.932 122.744 220.522 122.255 221.249C121.681 222.043 120.946 222.707 120.097 223.197C119.947 223.275 119.791 223.341 119.63 223.395C118.715 223.689 117.767 223.87 116.808 223.931C116.017 223.989 115.236 224.13 114.475 224.351C114.315 224.406 114.162 224.481 114.02 224.573C113.428 225.072 113.018 225.752 112.854 226.509C112.636 227.36 112.184 228.132 111.547 228.737C110.969 229.17 110.322 229.505 109.634 229.728L108.573 230.09L107.582 230.44C107.01 230.605 106.481 230.892 106.03 231.28C105.844 231.569 105.72 231.893 105.666 232.232C105.612 232.572 105.629 232.918 105.715 233.251C105.871 234.024 105.756 234.827 105.389 235.525C104.911 236.248 101.691 236.517 100.723 237.077C99.7551 237.636 100.816 238.954 100.595 239.491C100.373 240.028 101.085 240.191 101.481 240.821C101.963 241.412 102.212 242.158 102.181 242.92C102.018 243.655 100.21 244.227 99.5218 244.926C98.8336 245.626 99.2302 246.466 99.2419 247.003C99.2535 247.539 99.9184 247.971 100.63 248.461C101.341 248.95 102.111 249.499 102.298 250.198C102.484 250.898 101.225 250.887 100.84 251.668C100.621 252.608 100.741 253.595 101.178 254.456C101.435 254.934 102.344 255.226 103.301 255.494C104.192 255.67 105.024 256.071 105.715 256.66C106.125 257.313 106.271 258.097 106.124 258.853C106.124 259.623 106.042 260.346 106.485 260.696C107.302 261.057 108.195 261.213 109.086 261.151C110.104 261.105 111.12 261.268 112.072 261.629C112.736 262.07 113.23 262.724 113.472 263.484C113.763 264.137 114.078 264.825 114.696 265.035C115.638 265.18 116.6 265.125 117.519 264.872C118.581 264.601 119.684 264.526 120.773 264.65C121.626 264.878 122.4 265.334 123.013 265.968C123.517 266.565 124.207 266.975 124.972 267.134C125.591 267.13 126.202 266.999 126.769 266.75L127.725 266.376L128.728 265.98C129.436 265.696 130.184 265.523 130.944 265.466C131.934 265.484 132.909 265.715 133.802 266.143C134.576 266.544 135.438 266.744 136.31 266.726C136.477 266.7 136.641 266.657 136.8 266.598C137.491 266.29 138.141 265.899 138.736 265.431C139.476 264.88 140.278 264.418 141.127 264.055L141.605 263.904C142.654 263.717 143.728 263.717 144.778 263.904C145.712 264.104 146.678 264.104 147.612 263.904C148.388 263.499 149.053 262.91 149.548 262.189C150.12 261.389 150.861 260.724 151.718 260.241L152.173 260.019C153.098 259.731 154.052 259.547 155.019 259.471C155.809 259.422 156.591 259.285 157.351 259.063C157.506 259.01 157.655 258.939 157.795 258.853C158.38 258.349 158.789 257.67 158.961 256.917C159.185 256.069 159.637 255.299 160.267 254.689C160.858 254.241 161.52 253.898 162.227 253.674L163.253 253.313L164.245 252.986C164.814 252.81 165.342 252.52 165.796 252.135C165.977 251.843 166.097 251.519 166.149 251.18C166.201 250.841 166.184 250.496 166.099 250.163C165.942 249.389 166.062 248.584 166.437 247.889C167.101 247.113 167.914 246.478 168.829 246.023C169.727 245.498 170.66 244.95 170.881 244.413C171.138 243.579 171.084 242.68 170.73 241.882C170.31 241.206 169.47 241.241 169.563 240.494C169.9 239.632 170.459 238.875 171.185 238.301V238.301Z" fill="#92E3A9" stroke="#263238" stroke-miterlimit="10"/>
<path d="M170.998 236.12C171.686 235.444 172.374 234.744 172.351 234.219C172.328 233.694 171.675 233.239 170.975 232.749C170.275 232.259 169.482 231.711 169.307 231.011C169.254 230.215 169.467 229.423 169.913 228.76C170.298 228.014 170.683 227.232 170.426 226.754C170.17 226.276 169.26 225.996 168.304 225.716C167.411 225.543 166.579 225.141 165.889 224.55C165.476 223.903 165.329 223.121 165.481 222.368C165.481 221.587 165.563 220.864 165.108 220.514C164.29 220.154 163.397 220.002 162.507 220.071C161.492 220.114 160.479 219.948 159.532 219.581C158.861 219.153 158.364 218.5 158.133 217.738C157.83 217.073 157.538 216.385 156.908 216.163C155.968 216.034 155.012 216.098 154.097 216.35C153.029 216.612 151.924 216.683 150.831 216.56C149.974 216.338 149.197 215.877 148.592 215.23C148.073 214.65 147.389 214.243 146.632 214.064C146.013 214.078 145.403 214.212 144.836 214.46L143.868 214.834C143.518 214.974 143.168 215.125 142.818 215.253C142.126 215.535 141.394 215.705 140.649 215.755C139.661 215.739 138.689 215.504 137.803 215.067C137.027 214.671 136.165 214.475 135.295 214.495C135.124 214.52 134.956 214.563 134.793 214.624C134.105 214.93 133.459 215.322 132.869 215.79C132.152 216.348 131.368 216.814 130.536 217.178L130.058 217.33C129.005 217.516 127.927 217.516 126.874 217.33C125.943 217.129 124.981 217.129 124.051 217.33C123.269 217.73 122.6 218.32 122.103 219.044C121.533 219.841 120.797 220.506 119.945 220.992C119.796 221.072 119.64 221.139 119.479 221.19C118.562 221.481 117.615 221.661 116.656 221.727C115.866 221.785 115.084 221.926 114.323 222.147C114.161 222.197 114.008 222.272 113.868 222.368C113.276 222.867 112.866 223.548 112.702 224.305C112.489 225.154 112.036 225.924 111.396 226.521C110.825 226.962 110.181 227.302 109.494 227.524L108.421 227.885L107.442 228.235C106.867 228.401 106.334 228.687 105.879 229.075C105.696 229.366 105.574 229.69 105.52 230.029C105.465 230.367 105.48 230.714 105.564 231.046C105.731 231.819 105.615 232.626 105.237 233.321C104.593 234.091 103.8 234.722 102.904 235.175C102.006 235.724 101.085 236.272 100.851 236.808C100.618 237.345 101.015 237.975 101.423 238.616C101.906 239.206 102.152 239.955 102.111 240.716C101.777 241.566 101.231 242.317 100.525 242.897C99.86 243.562 99.1719 244.262 99.1719 244.786C99.1719 245.311 99.8484 245.766 100.572 246.256C101.295 246.746 102.041 247.294 102.228 247.994C102.289 248.792 102.075 249.586 101.621 250.245C101.248 251.003 100.863 251.773 101.108 252.251C101.353 252.73 102.274 253.021 103.231 253.289C104.123 253.463 104.955 253.864 105.645 254.456C106.054 255.109 106.203 255.891 106.065 256.649C106.007 257.418 105.972 258.142 106.427 258.491C107.242 258.846 108.129 259.002 109.016 258.946C110.034 258.899 111.05 259.062 112.002 259.425C112.669 259.86 113.166 260.511 113.413 261.267C113.693 261.932 114.008 262.62 114.58 262.83C115.522 262.976 116.484 262.92 117.403 262.667C118.465 262.399 119.567 262.32 120.657 262.434C121.509 262.668 122.283 263.127 122.896 263.764C123.401 264.36 124.091 264.771 124.856 264.93C125.474 264.925 126.086 264.794 126.652 264.545L127.608 264.172L128.612 263.775C129.323 263.49 130.075 263.317 130.839 263.262C131.826 263.28 132.796 263.511 133.685 263.939C134.462 264.333 135.322 264.533 136.193 264.522C136.364 264.494 136.532 264.451 136.695 264.393C137.384 264.083 138.034 263.692 138.631 263.227C139.352 262.678 140.135 262.217 140.964 261.851L141.453 261.699C142.503 261.512 143.577 261.512 144.626 261.699C145.56 261.9 146.526 261.9 147.46 261.699C148.235 261.297 148.897 260.708 149.385 259.984C149.96 259.187 150.7 258.523 151.554 258.037C151.702 257.961 151.854 257.895 152.009 257.838C152.93 257.55 153.881 257.366 154.844 257.29C155.634 257.241 156.416 257.104 157.176 256.882C157.337 256.829 157.491 256.755 157.631 256.66C158.216 256.16 158.625 255.486 158.798 254.736C159.026 253.887 159.482 253.117 160.116 252.508C160.706 252.06 161.369 251.717 162.075 251.493C162.402 251.365 162.752 251.248 163.09 251.132L164.081 250.793C164.652 250.625 165.18 250.339 165.633 249.954C165.813 249.662 165.933 249.338 165.986 248.999C166.038 248.66 166.021 248.314 165.936 247.982C165.789 247.208 165.908 246.406 166.274 245.708C166.943 244.932 167.759 244.297 168.677 243.842C169.483 243.482 170.188 242.929 170.73 242.232C170.951 241.695 170.543 241.066 170.158 240.412C169.664 239.829 169.413 239.077 169.458 238.313C169.772 237.46 170.303 236.704 170.998 236.12V236.12Z" fill="#92E3A9" stroke="#263238" stroke-miterlimit="10"/>
<path d="M166.682 236.54C167.277 235.945 167.849 235.374 167.849 234.872C167.849 234.371 167.254 234.009 166.682 233.577C166.111 233.146 165.376 232.679 165.224 232.061C165.18 231.359 165.369 230.662 165.761 230.078C166.088 229.425 166.437 228.737 166.204 228.317C165.971 227.897 165.154 227.652 164.35 227.419C163.568 227.264 162.838 226.915 162.227 226.404C161.863 225.837 161.734 225.152 161.865 224.491C161.865 223.815 161.947 223.173 161.539 222.87C160.826 222.549 160.044 222.413 159.264 222.473C158.374 222.514 157.484 222.371 156.651 222.054C156.065 221.672 155.628 221.099 155.415 220.432C155.159 219.849 154.89 219.266 154.342 219.056C153.52 218.931 152.681 218.982 151.881 219.208C150.943 219.439 149.972 219.502 149.012 219.394C148.259 219.204 147.578 218.799 147.052 218.228C146.59 217.731 145.988 217.385 145.326 217.236C144.783 217.25 144.249 217.369 143.751 217.586L142.9 217.913C142.597 218.041 142.293 218.169 141.978 218.274C141.373 218.526 140.731 218.676 140.077 218.718C139.213 218.696 138.362 218.494 137.581 218.123C136.9 217.773 136.142 217.597 135.377 217.61C135.225 217.634 135.077 217.673 134.933 217.726C134.333 217.994 133.765 218.331 133.242 218.729C132.603 219.212 131.901 219.605 131.154 219.896C131.018 219.953 130.878 220 130.734 220.036C129.808 220.199 128.861 220.199 127.935 220.036C127.119 219.87 126.278 219.87 125.462 220.036C124.771 220.387 124.181 220.909 123.748 221.552C123.249 222.25 122.604 222.831 121.858 223.255C121.728 223.327 121.592 223.386 121.45 223.43C120.647 223.684 119.817 223.841 118.977 223.896C118.289 223.949 117.609 224.074 116.948 224.27C116.808 224.315 116.675 224.378 116.551 224.456C116.028 224.895 115.663 225.493 115.513 226.159C115.312 226.904 114.908 227.578 114.347 228.107C113.844 228.49 113.28 228.786 112.679 228.982L111.734 229.308L110.871 229.6C110.368 229.749 109.903 230.003 109.506 230.347C109.344 230.6 109.236 230.884 109.188 231.181C109.14 231.478 109.153 231.781 109.226 232.073C109.37 232.751 109.267 233.459 108.935 234.067C108.358 234.754 107.643 235.311 106.835 235.7C106.054 236.179 105.237 236.657 105.039 237.123C104.841 237.59 105.19 238.161 105.54 238.721C105.965 239.238 106.182 239.896 106.147 240.564C105.85 241.304 105.373 241.957 104.759 242.465C104.176 243.06 103.593 243.632 103.593 244.133C103.593 244.635 104.187 244.996 104.759 245.428C105.33 245.86 106.054 246.326 106.217 246.944C106.262 247.646 106.073 248.344 105.68 248.927C105.354 249.58 105.016 250.268 105.237 250.688C105.459 251.108 106.287 251.353 107.092 251.598C107.872 251.743 108.603 252.084 109.215 252.59C109.571 253.163 109.7 253.85 109.576 254.514C109.576 255.191 109.506 255.832 109.891 256.135C110.623 256.461 111.425 256.597 112.224 256.532C113.115 256.496 114.004 256.643 114.837 256.964C115.428 257.34 115.866 257.915 116.073 258.585C116.329 259.156 116.598 259.751 117.146 259.949C117.972 260.077 118.815 260.025 119.619 259.798C120.553 259.569 121.519 259.502 122.476 259.6C123.225 259.8 123.903 260.204 124.436 260.766C124.892 261.271 125.496 261.618 126.162 261.757C126.705 261.754 127.241 261.639 127.737 261.419C128.017 261.326 128.297 261.209 128.577 261.093L129.451 260.743C130.078 260.495 130.739 260.341 131.411 260.288C132.277 260.306 133.129 260.513 133.907 260.894C134.59 261.24 135.347 261.412 136.111 261.396C136.259 261.372 136.404 261.333 136.543 261.279C137.151 261.014 137.723 260.673 138.246 260.264C138.893 259.795 139.594 259.403 140.334 259.098L140.765 258.97C141.683 258.806 142.623 258.806 143.541 258.97C144.364 259.142 145.214 259.142 146.037 258.97C146.722 258.623 147.304 258.104 147.729 257.465C148.232 256.767 148.88 256.186 149.63 255.762C149.759 255.697 149.891 255.638 150.026 255.587C150.834 255.335 151.667 255.175 152.511 255.109C153.203 255.066 153.887 254.945 154.552 254.747C154.691 254.702 154.825 254.639 154.949 254.561C155.467 254.12 155.827 253.522 155.975 252.858C156.18 252.115 156.583 251.442 157.141 250.91C157.658 250.518 158.238 250.219 158.856 250.024C159.148 249.907 159.451 249.814 159.754 249.709L160.617 249.417C161.12 249.268 161.585 249.014 161.982 248.671C162.144 248.417 162.252 248.133 162.299 247.836C162.345 247.538 162.328 247.235 162.25 246.944C162.111 246.261 162.218 245.55 162.553 244.938C163.138 244.26 163.852 243.705 164.653 243.305C165.434 242.839 166.251 242.36 166.449 241.894C166.647 241.427 166.298 240.856 165.959 240.308C165.521 239.793 165.299 239.128 165.341 238.453C165.615 237.71 166.077 237.05 166.682 236.54V236.54Z" fill="white"/>
<path d="M136.461 242.244C136.461 242.337 135.365 250.7 130.046 252.66C129.659 252.819 129.256 252.94 128.845 253.021C127.355 253.263 125.829 253.16 124.385 252.719C122.941 252.279 121.618 251.512 120.517 250.478C119.526 249.37 119.351 248.239 120.12 247.376C121.94 245.276 128.973 241.731 129.265 241.544H129.323C132.822 240.319 134.607 239.981 135.622 240.378C136.636 240.774 136.531 241.544 136.461 242.244ZM134.677 238.406L134.327 238.558C133.445 238.796 132.515 238.796 131.633 238.558C131.516 238.558 119.094 235.957 121.298 231.56C122.22 229.682 124.798 228.06 127.317 227.139C127.995 226.888 128.688 226.682 129.393 226.521C131.446 226.054 133.056 226.171 133.814 226.812C135.645 228.399 136.566 233.694 136.613 233.916V233.997C136.403 236.54 135.843 237.858 134.677 238.406ZM156.838 237.741C156.609 238.354 156.254 238.911 155.796 239.377C155.338 239.843 154.787 240.208 154.179 240.448C154.074 240.495 153.965 240.53 153.852 240.552C150.645 241.416 143.028 240.867 142.702 240.844H142.585C139.366 240.133 138.001 239.503 137.849 238.64C137.698 237.776 138.584 237.158 139.354 236.598C142.115 234.728 145.072 233.163 148.172 231.933C150.656 231.011 153.141 230.568 154.82 231.443C155.901 232.034 156.719 233.011 157.111 234.178C157.502 235.346 157.438 236.619 156.932 237.741H156.838Z" fill="#92E3A9"/>
<path d="M243.617 398.971C244.562 399.088 245.542 399.204 245.95 398.866C246.358 398.528 247.315 398.47 247.863 397.268C248.236 396.463 246.16 395.052 246.603 394.481C247.201 393.954 247.955 393.639 248.749 393.583C249.932 393.323 251.038 392.792 251.98 392.031C252.19 391.53 252.342 391.448 251.98 390.562C251.619 389.675 249.414 388.555 249.554 387.832C249.809 387.107 250.336 386.508 251.024 386.164C251.654 385.709 252.26 385.301 252.248 384.73C252.041 383.857 251.611 383.054 251 382.397C250.344 381.621 249.852 380.721 249.554 379.749C249.48 378.956 249.69 378.162 250.149 377.51C250.558 376.953 250.73 376.257 250.627 375.573C250.156 374.749 249.516 374.034 248.749 373.474C247.887 372.793 247.149 371.968 246.568 371.036C246.215 370.222 246.102 369.323 246.242 368.447C246.365 367.685 246.251 366.903 245.915 366.207C245.524 365.732 245.045 365.336 244.504 365.041L243.617 364.516C243.291 364.329 242.952 364.143 242.637 363.945C241.991 363.569 241.405 363.097 240.9 362.545C240.329 361.75 239.932 360.844 239.733 359.886C239.567 359.031 239.195 358.23 238.648 357.553C238.521 357.432 238.38 357.327 238.229 357.238C237.569 356.881 236.867 356.607 236.141 356.421C235.25 356.191 234.392 355.85 233.586 355.407L233.166 355.115C232.362 354.407 231.691 353.562 231.184 352.619C230.761 351.766 230.161 351.015 229.422 350.414C228.623 350.049 227.745 349.889 226.868 349.948C225.89 349.989 224.915 349.818 224.01 349.446C223.856 349.376 223.708 349.294 223.567 349.201C222.774 348.657 222.046 348.023 221.398 347.312C220.879 346.723 220.292 346.198 219.648 345.749C219.509 345.652 219.355 345.577 219.193 345.527C218.435 345.361 217.643 345.451 216.942 345.784C216.136 346.136 215.246 346.254 214.376 346.122C213.679 345.936 213.017 345.636 212.416 345.236L211.472 344.618L210.597 344.046C210.112 343.701 209.559 343.462 208.976 343.346C208.633 343.38 208.302 343.484 208.001 343.65C207.7 343.817 207.437 344.043 207.226 344.314C206.719 344.926 206.013 345.339 205.231 345.481C204.38 345.551 202.175 343.148 201.161 342.775C200.146 342.401 199.738 344.011 199.178 344.163C198.618 344.314 198.921 344.979 198.676 345.691C198.507 346.434 198.072 347.09 197.452 347.534C196.763 347.86 195.212 346.787 194.232 346.67C193.253 346.554 192.844 347.394 192.424 347.732C192.005 348.07 192.075 348.898 192.133 349.726C192.269 350.52 192.151 351.337 191.795 352.059C191.363 352.619 190.628 351.639 189.742 351.814C188.855 351.989 187.969 353.307 187.747 353.797C187.526 354.287 187.887 355.22 188.237 356.13C188.652 356.932 188.853 357.828 188.82 358.731C188.566 359.46 188.039 360.062 187.351 360.41C186.721 360.842 186.126 361.262 186.126 361.833C186.345 362.699 186.769 363.499 187.362 364.166C188.033 364.934 188.53 365.837 188.82 366.814C188.886 367.605 188.68 368.395 188.237 369.053C188.029 369.324 187.879 369.634 187.797 369.966C187.714 370.297 187.701 370.641 187.759 370.978C188.224 371.806 188.861 372.525 189.625 373.089C190.494 373.756 191.24 374.569 191.83 375.492C192.171 376.305 192.284 377.197 192.156 378.07C192.023 378.831 192.133 379.614 192.471 380.309C192.862 380.785 193.341 381.181 193.882 381.475L194.769 381.989L195.702 382.537C196.365 382.918 196.963 383.403 197.475 383.971C198.071 384.763 198.489 385.674 198.7 386.642C198.863 387.498 199.236 388.299 199.784 388.975C199.911 389.088 200.048 389.19 200.193 389.279C200.859 389.64 201.568 389.914 202.304 390.095C203.195 390.329 204.053 390.674 204.858 391.121L205.278 391.401C206.075 392.113 206.742 392.957 207.249 393.897C207.672 394.753 208.277 395.506 209.022 396.102C209.817 396.468 210.692 396.628 211.565 396.568C212.546 396.528 213.525 396.699 214.434 397.07L214.866 397.303C215.659 397.852 216.387 398.49 217.035 399.204C217.563 399.795 218.154 400.327 218.796 400.791C218.936 400.877 219.084 400.948 219.24 401.001C219.999 401.158 220.79 401.064 221.491 400.732C222.295 400.386 223.18 400.273 224.045 400.406C224.766 400.588 225.449 400.896 226.063 401.316L226.961 401.899L227.836 402.47C228.324 402.818 228.881 403.056 229.469 403.17C229.809 403.136 230.139 403.032 230.438 402.866C230.737 402.699 230.999 402.473 231.207 402.202C231.715 401.587 232.427 401.173 233.213 401.036C234.232 401.079 235.232 401.329 236.152 401.771C236.931 402.184 237.801 402.397 238.683 402.389C239.497 402.073 240.171 401.478 240.585 400.709C240.853 399.963 240.316 399.321 240.993 398.983C241.852 398.755 242.756 398.751 243.617 398.971V398.971Z" fill="#92E3A9" stroke="#263238" stroke-miterlimit="10"/>
<path d="M245.215 397.478C246.172 397.595 247.14 397.712 247.548 397.373C247.956 397.035 247.91 396.207 247.851 395.379C247.699 394.993 247.648 394.574 247.705 394.163C247.761 393.752 247.922 393.362 248.173 393.031C248.424 392.701 248.756 392.44 249.137 392.275C249.518 392.11 249.935 392.046 250.347 392.09C251.176 391.926 252.027 391.751 252.249 391.25C252.47 390.748 252.097 389.838 251.747 388.917C251.33 388.111 251.129 387.211 251.164 386.304C251.316 385.546 251.992 385.138 252.634 384.636C253.275 384.135 253.87 383.773 253.858 383.202C253.643 382.332 253.214 381.53 252.61 380.869C251.95 380.094 251.454 379.193 251.152 378.221C251.085 377.428 251.295 376.637 251.747 375.982C251.952 375.709 252.101 375.399 252.185 375.069C252.269 374.738 252.287 374.394 252.237 374.057C251.763 373.232 251.123 372.513 250.359 371.946C249.491 371.271 248.752 370.445 248.178 369.508C247.823 368.698 247.706 367.804 247.84 366.931C247.974 366.17 247.863 365.386 247.525 364.691C247.136 364.213 246.656 363.816 246.113 363.525L245.215 363C244.889 362.813 244.562 362.627 244.247 362.428C243.599 362.055 243.012 361.583 242.509 361.029C241.933 360.232 241.535 359.321 241.343 358.358C241.178 357.501 240.801 356.699 240.247 356.025C240.123 355.904 239.986 355.799 239.838 355.71C239.176 355.362 238.475 355.092 237.75 354.905C236.859 354.673 236 354.328 235.196 353.879C235.05 353.791 234.909 353.694 234.776 353.587C233.969 352.882 233.298 352.036 232.793 351.091C232.363 350.243 231.759 349.496 231.02 348.898C230.228 348.523 229.352 348.358 228.478 348.42C227.501 348.461 226.527 348.294 225.62 347.93L225.177 347.685C224.384 347.136 223.656 346.498 223.007 345.784C222.48 345.204 221.894 344.68 221.258 344.221C221.116 344.129 220.963 344.054 220.803 343.999C220.041 343.83 219.245 343.921 218.54 344.256C217.737 344.606 216.852 344.723 215.986 344.594C215.286 344.415 214.623 344.115 214.026 343.708L213.081 343.09L212.207 342.53C211.724 342.18 211.171 341.941 210.585 341.83C210.243 341.859 209.911 341.959 209.61 342.124C209.309 342.289 209.045 342.514 208.836 342.786C208.331 343.4 207.624 343.814 206.841 343.953C205.822 343.91 204.822 343.66 203.902 343.218C203.116 342.81 202.244 342.598 201.359 342.6C200.799 342.751 200.531 343.463 200.286 344.163C200.117 344.909 199.677 345.566 199.05 346.006C198.178 346.264 197.255 346.297 196.367 346.099C195.422 345.982 194.454 345.866 194.034 346.204C193.614 346.542 193.684 347.37 193.743 348.198C193.881 348.992 193.762 349.809 193.404 350.531C192.808 351.07 192.048 351.394 191.247 351.453C190.418 351.616 189.567 351.791 189.357 352.281C189.147 352.771 189.497 353.704 189.847 354.613C190.258 355.417 190.458 356.312 190.43 357.215C190.169 357.939 189.644 358.539 188.96 358.894C188.319 359.326 187.736 359.746 187.724 360.317C187.947 361.184 188.375 361.984 188.972 362.65C189.632 363.425 190.128 364.326 190.43 365.298C190.498 366.093 190.292 366.887 189.847 367.549C189.639 367.817 189.489 368.126 189.407 368.455C189.325 368.784 189.312 369.127 189.369 369.462C189.837 370.291 190.472 371.014 191.235 371.584C192.099 372.259 192.837 373.08 193.416 374.011C193.766 374.822 193.883 375.714 193.754 376.588C193.614 377.349 193.724 378.135 194.069 378.828C194.454 379.31 194.935 379.707 195.481 379.994L196.367 380.519C196.682 380.694 196.985 380.881 197.288 381.067C197.952 381.448 198.554 381.928 199.073 382.49C199.654 383.284 200.052 384.196 200.239 385.161C200.407 386.017 200.784 386.819 201.336 387.494C201.462 387.611 201.599 387.716 201.744 387.809C202.41 388.159 203.114 388.429 203.844 388.614C204.737 388.851 205.599 389.196 206.41 389.64C206.55 389.733 206.69 389.827 206.818 389.932C207.617 390.636 208.285 391.477 208.789 392.416C209.219 393.27 209.828 394.022 210.574 394.621C211.368 394.988 212.243 395.148 213.116 395.087C214.097 395.053 215.074 395.224 215.986 395.589C216.126 395.67 216.266 395.74 216.406 395.834C217.208 396.376 217.94 397.014 218.587 397.735C219.112 398.325 219.703 398.853 220.348 399.309C220.49 399.395 220.638 399.469 220.791 399.531C221.551 399.676 222.338 399.583 223.042 399.263C223.845 398.913 224.73 398.795 225.597 398.925C226.31 399.119 226.987 399.426 227.603 399.834L228.513 400.429L229.387 400.989C229.872 401.344 230.43 401.587 231.02 401.701C231.674 401.701 232.187 401.222 232.758 400.721C233.264 400.108 233.971 399.694 234.753 399.554C235.772 399.598 236.772 399.848 237.692 400.289C238.477 400.699 239.349 400.915 240.235 400.919C240.795 400.767 241.051 400.044 241.308 399.356C241.465 398.602 241.908 397.937 242.544 397.502C243.418 397.266 244.338 397.258 245.215 397.478Z" fill="#92E3A9" stroke="#263238" stroke-miterlimit="10"/>
<path d="M242.229 394.341C243.057 394.434 243.909 394.539 244.271 394.247C244.632 393.956 244.585 393.244 244.539 392.486C244.404 392.148 244.358 391.78 244.408 391.419C244.457 391.057 244.599 390.715 244.82 390.425C245.04 390.135 245.333 389.907 245.668 389.763C246.003 389.62 246.369 389.565 246.732 389.605C247.443 389.465 248.19 389.314 248.388 388.87C248.586 388.427 248.26 387.634 247.956 386.852C247.588 386.132 247.412 385.328 247.443 384.52C247.571 383.867 248.166 383.458 248.726 383.062C249.286 382.665 249.811 382.304 249.799 381.802C249.61 381.043 249.238 380.342 248.714 379.761C248.129 379.081 247.692 378.286 247.431 377.428C247.369 376.733 247.555 376.039 247.956 375.469C248.312 374.977 248.463 374.366 248.376 373.766C247.962 373.044 247.402 372.416 246.732 371.923C245.977 371.325 245.33 370.603 244.819 369.788C244.512 369.072 244.411 368.284 244.527 367.514C244.641 366.847 244.543 366.162 244.247 365.554C243.906 365.132 243.486 364.779 243.011 364.516L242.229 364.061L241.366 363.56C240.803 363.228 240.292 362.816 239.85 362.335C239.333 361.641 238.968 360.846 238.777 360.002C238.637 359.248 238.308 358.542 237.82 357.949C237.709 357.848 237.588 357.758 237.459 357.681C236.88 357.369 236.265 357.13 235.628 356.97C234.845 356.768 234.093 356.467 233.388 356.072C233.259 355.993 233.135 355.907 233.015 355.815C232.308 355.194 231.72 354.452 231.277 353.622C230.903 352.877 230.374 352.221 229.726 351.698C229.026 351.371 228.256 351.227 227.486 351.278C226.629 351.313 225.774 351.166 224.978 350.846L224.594 350.636C223.901 350.152 223.263 349.592 222.692 348.968C222.232 348.454 221.715 347.992 221.153 347.592C221.03 347.511 220.897 347.448 220.756 347.405C220.089 347.254 219.391 347.332 218.773 347.627C218.07 347.937 217.293 348.038 216.534 347.918C215.92 347.757 215.337 347.497 214.808 347.149L213.979 346.6L213.21 346.111C212.786 345.804 212.3 345.593 211.787 345.492C211.488 345.52 211.198 345.609 210.936 345.754C210.673 345.898 210.442 346.095 210.259 346.332C209.815 346.866 209.194 347.223 208.509 347.335C207.614 347.306 206.736 347.087 205.931 346.694C205.24 346.334 204.471 346.15 203.692 346.157C203.202 346.286 202.969 346.904 202.747 347.522C202.6 348.175 202.218 348.752 201.674 349.143C200.915 349.364 200.114 349.392 199.341 349.225C198.664 349.042 197.946 349.074 197.288 349.318C196.939 349.598 196.985 350.31 197.032 351.068C197.163 351.777 197.061 352.509 196.74 353.156C196.214 353.628 195.545 353.912 194.839 353.96C194.128 354.1 193.381 354.252 193.183 354.684C192.984 355.115 193.311 355.932 193.614 356.713C193.985 357.433 194.162 358.237 194.128 359.046C193.894 359.68 193.432 360.204 192.833 360.515C192.285 360.889 191.76 361.262 191.76 361.763C191.954 362.52 192.326 363.22 192.844 363.805C193.432 364.483 193.869 365.278 194.128 366.137C194.186 366.834 194.005 367.529 193.614 368.109C193.434 368.348 193.304 368.621 193.232 368.911C193.16 369.202 193.147 369.504 193.194 369.8C193.607 370.526 194.168 371.158 194.839 371.654C195.592 372.248 196.239 372.966 196.752 373.777C197.058 374.494 197.159 375.281 197.043 376.052C196.923 376.718 197.021 377.405 197.323 378.011C197.659 378.439 198.08 378.793 198.56 379.049L199.341 379.504L200.146 379.982C200.729 380.319 201.256 380.744 201.709 381.242C202.234 381.931 202.6 382.728 202.782 383.575C202.925 384.328 203.254 385.034 203.739 385.628C203.85 385.729 203.971 385.819 204.1 385.896C204.683 386.207 205.302 386.446 205.943 386.608C206.724 386.818 207.476 387.124 208.183 387.517C208.311 387.592 208.436 387.674 208.556 387.762C209.255 388.382 209.84 389.12 210.282 389.943C210.658 390.694 211.191 391.354 211.845 391.88C212.539 392.207 213.307 392.348 214.073 392.288C214.934 392.257 215.793 392.408 216.592 392.731C216.723 392.789 216.848 392.86 216.965 392.941C217.668 393.418 218.31 393.978 218.878 394.609C219.339 395.127 219.855 395.592 220.418 395.997C220.544 396.071 220.677 396.134 220.814 396.184C221.48 396.318 222.17 396.236 222.786 395.95C223.491 395.647 224.266 395.546 225.025 395.659C225.67 395.822 226.279 396.102 226.821 396.487L227.626 397L228.396 397.49C228.816 397.804 229.303 398.016 229.819 398.108C230.402 398.108 230.88 397.7 231.347 397.257C231.796 396.732 232.415 396.381 233.097 396.265C233.993 396.308 234.873 396.526 235.686 396.907C236.368 397.27 237.129 397.459 237.902 397.455C238.404 397.327 238.625 396.685 238.859 396.079C238.994 395.423 239.378 394.846 239.932 394.469C240.673 394.227 241.465 394.183 242.229 394.341V394.341Z" fill="white"/>
<path d="M219.112 374.045C219.03 374.045 211.775 378.396 206.958 375.41C206.588 375.183 206.244 374.917 205.932 374.617C204.813 373.592 203.947 372.32 203.402 370.904C202.858 369.487 202.65 367.963 202.794 366.452C203.062 364.994 203.855 364.178 204.998 364.236C207.774 364.376 214.889 367.735 215.193 367.864H215.251C218.354 369.823 219.742 371.06 220.045 372.109C220.348 373.159 219.707 373.672 219.112 374.045ZM221.071 370.313C220.955 370.258 220.842 370.195 220.733 370.126C219.988 369.596 219.4 368.875 219.03 368.039C219.03 367.934 213.35 356.561 218.19 355.57C220.243 355.15 223.077 356.153 225.387 357.588C226.001 357.964 226.589 358.381 227.148 358.836C228.781 360.177 229.691 361.507 229.644 362.51C229.528 364.924 225.923 368.913 225.772 369.088C223.579 370.488 222.238 370.826 221.071 370.313ZM235.266 387.401C234.643 387.593 233.987 387.655 233.339 387.583C232.691 387.511 232.064 387.306 231.499 386.981L231.207 386.782C228.559 384.788 224.302 378.443 224.116 378.174L224.057 378.081C222.634 375.107 222.284 373.637 222.891 372.984C223.497 372.331 224.512 372.657 225.422 372.914C228.613 373.92 231.683 375.273 234.578 376.95C236.829 378.338 238.707 380.029 239.057 381.884C239.243 383.113 238.955 384.366 238.251 385.391C237.547 386.415 236.48 387.133 235.266 387.401V387.401Z" fill="#92E3A9"/>
<path d="M461.557 37.9859C454.384 15.0781 441.717 -1.368 433.272 1.2797C432.527 1.51519 431.834 1.89134 431.231 2.38776L270.934 71.2046L296.91 154.205L459.247 84.2215C467.692 81.6321 468.73 60.9054 461.557 37.9859Z" fill="#92E3A9" stroke="#263238" stroke-miterlimit="10"/>
<path d="M296.913 154.219C305.36 151.575 306.392 130.853 299.219 107.934C292.046 85.0155 279.383 68.5797 270.936 71.2235C262.489 73.8674 261.457 94.5898 268.63 117.508C275.803 140.427 288.466 156.863 296.913 154.219Z" fill="#263238" stroke="#263238" stroke-miterlimit="10"/>
<path d="M292.792 111.177C288.127 96.0954 279.74 85.2829 274.188 87.0209C273.697 87.1773 273.238 87.4224 272.835 87.744L261.813 92.7712L263.656 98.6847C263.224 104.295 264.216 111.83 266.7 119.761C269.185 127.693 272.66 134.446 276.218 138.808L278.901 147.381L291.299 141.631C296.805 139.882 297.516 126.246 292.792 111.177Z" fill="#92E3A9" stroke="#263238" stroke-miterlimit="10"/>
<path d="M280.393 116.927C285.117 132.008 284.441 145.643 278.877 147.381C273.313 149.119 264.985 138.307 260.215 123.225C255.444 108.144 256.226 94.509 261.813 92.7711C267.4 91.0332 275.681 101.846 280.393 116.927Z" fill="#263238" stroke="#263238" stroke-miterlimit="10"/>
<path d="M272.998 94.5441L271.226 95.3955" stroke="#263238" stroke-miterlimit="10"/>
<path d="M281.035 90.6833L274.585 93.7859" stroke="#263238" stroke-miterlimit="10"/>
<path d="M286.272 96.5619L276.463 101.274" stroke="#263238" stroke-miterlimit="10"/>
<path d="M289.631 104.038L279.822 108.751" stroke="#263238" stroke-miterlimit="10"/>
<path d="M285.794 117.382L282.901 118.77" stroke="#263238" stroke-miterlimit="10"/>
<path d="M292.711 114.058L288.138 116.251" stroke="#263238" stroke-miterlimit="10"/>
<path d="M272.229 120.321C270.456 114.664 267.33 110.605 265.23 111.258C265.046 111.317 264.875 111.412 264.729 111.538L243.734 127.949L245.962 135.053L271.657 131.717C273.745 131.11 274.002 125.99 272.229 120.321Z" fill="#92E3A9" stroke="#263238" stroke-miterlimit="10"/>
<path d="M246.125 131.087C246.743 133.058 246.65 134.831 245.927 135.053C245.204 135.274 244.119 133.886 243.501 131.915C242.882 129.944 242.976 128.171 243.699 127.949C244.422 127.728 245.483 129.127 246.125 131.087Z" fill="#92E3A9" stroke="#263238" stroke-miterlimit="10"/>
<path d="M155.858 309.159C155.858 309.159 155.94 304.494 160.524 305.462C165.108 306.43 167.522 315.225 169.925 320.718C172.328 326.212 181.449 335.17 189.87 332.79C198.291 330.411 197.627 320.322 204.368 318.794C211.11 317.266 214.376 322.736 217.199 328.241C220.021 333.747 221.211 341.667 227.988 340.955C234.764 340.244 236.876 336.056 236.876 336.056C236.876 336.056 226.203 340.139 223.59 327.448C220.196 311.037 207.576 307.165 203.295 312.554C199.015 317.942 198.478 323.273 193.393 326.13C188.307 328.988 181.635 327.192 177.938 322.106C174.24 317.021 168.257 299.677 164.35 297.344C160.442 295.011 159.684 297.286 159.684 297.286C159.684 297.286 152.172 301.543 155.858 309.159Z" fill="#263238" stroke="#263238" stroke-linecap="round" stroke-linejoin="round"/>
<path d="M231.323 342.32C229.656 342.314 228.013 341.914 226.53 341.153C223.205 339.427 222.016 335.321 220.499 330.154C218.073 321.815 215.717 315.4 209.372 314.91C207.039 314.723 205.978 316.076 203.54 320.742C201.207 325.174 197.965 331.239 190.325 331.367C176.981 331.636 172.573 320.777 169.33 312.903C167.137 307.55 165.248 302.931 161.702 301.928C159.369 301.275 158.786 301.1 156.71 307.631C155.415 311.702 153.945 316.309 149.816 318.805C146.026 321.138 141.372 320.66 137.383 317.639C131.982 313.58 127.503 304.226 130.384 293.297C130.518 292.799 130.748 292.332 131.061 291.923C131.375 291.514 131.766 291.171 132.212 290.913C132.658 290.655 133.151 290.488 133.662 290.421C134.173 290.353 134.692 290.387 135.19 290.52C135.688 290.654 136.154 290.884 136.563 291.197C136.972 291.511 137.315 291.902 137.573 292.348C137.831 292.795 137.998 293.287 138.066 293.798C138.133 294.309 138.099 294.828 137.966 295.326C136.065 302.406 138.596 308.763 142.06 311.364C143.04 312.11 144.474 312.822 145.734 312.064C147.332 311.096 148.288 308.11 149.233 305.229C150.773 300.423 153.619 291.465 163.836 294.358C171.056 296.399 173.995 303.572 176.597 309.906C180.096 318.409 182.603 323.634 190.197 323.494C192.914 323.494 194.232 321.5 196.6 317.032C198.968 312.565 202.234 306.407 210.025 307.025C222.284 307.97 225.771 319.96 228.081 327.892C228.711 330.073 229.667 333.339 230.414 334.213C230.918 334.425 231.469 334.502 232.012 334.439C232.556 334.376 233.074 334.174 233.516 333.852C234.683 333.059 238.392 329.466 237.015 316.449C234.939 295.956 241.774 142.004 241.833 138.26C241.833 137.176 242.334 133.058 244.165 132.323L244.935 132.067C246.008 132.067 245.857 132.277 245.845 133.361C245.845 134.271 242.801 295.618 244.83 315.656C246.393 331.099 241.914 337.608 237.832 340.349C235.918 341.662 233.644 342.35 231.323 342.32V342.32Z" fill="white" stroke="#263238" stroke-linecap="round" stroke-linejoin="round"/>
<path d="M230.18 339.59C230.18 339.59 234.496 341.923 239.512 335.905C243.011 331.566 243.011 325.722 243.011 321.908" stroke="#263238" stroke-linecap="round" stroke-linejoin="round"/>
<path d="M243.057 318.304L242.649 311.655" stroke="#263238" stroke-linecap="round" stroke-linejoin="round"/>
<path d="M141.138 317.079C141.926 317.366 142.738 317.581 143.565 317.721C149.77 318.805 152.896 313.055 152.896 313.055" stroke="#263238" stroke-linecap="round" stroke-linejoin="round"/>
<path d="M134.677 311.959C135.257 312.881 135.964 313.717 136.776 314.443" stroke="#263238" stroke-linecap="round" stroke-linejoin="round"/>
<path d="M186.989 328.755C187.584 328.86 188.225 328.953 188.937 329.011C193.929 329.466 196.355 327.308 196.355 327.308" stroke="#263238" stroke-linecap="round" stroke-linejoin="round"/>
<path d="M181.787 326.783C182.312 327.17 182.884 327.487 183.49 327.728" stroke="#263238" stroke-linecap="round" stroke-linejoin="round"/>
<path d="M421.958 200.709C421.958 200.709 429.68 198.376 432.327 197.991C434.975 197.606 441.227 197.886 441.985 195.507C442.743 193.127 431.487 189.08 428.875 189.045C427.901 188.966 426.926 189.194 426.089 189.699C425.252 190.203 424.594 190.958 424.209 191.856C423.474 193.279 419.742 200.907 419.742 200.907L421.958 200.709Z" fill="#92E3A9" stroke="#263238" stroke-miterlimit="10"/>
<path d="M485.374 260.836C484.441 259.378 472.719 256.31 471.529 255.809C470.34 255.307 460.822 248.904 456.553 245.72C452.284 242.535 436.853 230.498 431.639 225.891C426.425 221.284 415.683 216.991 415.683 216.991C415.683 216.991 431.044 188.158 435.628 172.669C440.212 157.179 439.687 144.372 438.801 139.8C438.801 139.8 421.305 137.829 410.294 134.295C403.649 132.141 397.496 128.692 392.192 124.147L388.541 127.215C388.541 127.215 380.493 134.528 367.429 155.208C359.025 168.473 353.542 183.375 351.345 198.924C351.053 201.805 358.891 207.217 363.009 207.765C367.126 208.313 383.724 204.266 384.459 204.021C385.193 203.776 391.912 203.181 391.912 203.181C391.912 203.181 387.969 224.503 390.314 228.142C392.658 231.781 398.63 233.566 398.63 233.566C398.63 233.566 456.331 261.174 459.667 263.39C463.003 265.606 469.127 272.721 469.127 272.721C469.127 272.721 474.212 285.05 476.125 289.646C478.038 294.241 478.376 298.58 480.79 297.892C483.205 297.204 486.226 288.561 486.622 281.411C487.019 274.261 486.319 262.352 485.374 260.836ZM394.489 190.409L380.808 189.243L398.187 169.333L400.52 172.739L394.489 190.409Z" fill="#263238" stroke="#263238" stroke-linecap="round" stroke-linejoin="round"/>
<path d="M396.577 168.155L389.171 159.803" stroke="#6E6E6E" stroke-linecap="round" stroke-linejoin="round"/>
<path d="M394.489 190.409L392.402 200.709" stroke="#6E6E6E" stroke-linecap="round" stroke-linejoin="round"/>
<path d="M380.784 189.231C380.784 189.231 374.171 197.536 371.453 199.414" stroke="#6E6E6E" stroke-linecap="round" stroke-linejoin="round"/>
<path d="M485.374 260.836C484.441 259.378 472.719 256.31 471.529 255.809C470.596 255.424 464.683 251.493 460.075 248.251C459.983 252.931 458.173 257.415 454.99 260.848C457.474 262.107 459.142 262.982 459.656 263.309C462.98 265.525 469.115 272.64 469.115 272.64C469.115 272.64 474.2 284.968 476.113 289.564C478.026 294.16 478.364 298.499 480.779 297.81C483.193 297.122 486.214 288.479 486.611 281.329C487.007 274.179 486.319 262.352 485.374 260.836Z" fill="white" stroke="#263238" stroke-linecap="round" stroke-linejoin="round"/>
<path d="M473.29 256.369C474.224 258.958 475.53 263.192 474.982 264.755C474.224 266.901 472.054 267.834 469.861 269.724C469.153 270.278 468.685 271.084 468.555 271.975L469.091 272.593C469.091 272.593 474.177 284.922 476.09 289.517C478.003 294.113 478.341 298.452 480.755 297.764C483.17 297.076 486.191 288.433 486.587 281.283C486.984 274.133 486.412 262.294 485.421 260.836C484.593 259.67 476.918 257.453 473.29 256.369Z" fill="#92E3A9" stroke="#263238" stroke-miterlimit="10"/>
<path d="M411.589 23.931C411.589 23.931 398.829 12.5354 395.831 11.4156C392.833 10.2959 385.333 13.6434 377.904 16.7694C370.474 19.8953 345.245 36.388 345.245 36.388C345.245 36.388 333.429 41.3568 330.653 42.2199C329.155 42.7574 327.807 43.6439 326.72 44.8061C325.632 45.9684 324.838 47.3729 324.401 48.9033C323.783 51.726 322.29 52.0059 324.728 51.8543C327.166 51.7027 330.991 48.5651 331.726 48.4251C332.461 48.2851 341.781 47.5853 341.781 47.5853C341.781 47.5853 338.34 51.4927 338.153 52.9157C337.966 54.3387 340.941 53.7788 343.507 50.9678C346.073 48.1568 348.359 47.2587 349.572 45.4858C350.579 43.8118 351.46 42.0652 352.208 40.2604C352.208 40.2604 376.807 32.0957 378.603 31.4308C380.4 30.766 389.777 27.5934 389.777 27.5934C389.777 27.5934 396.694 38.0909 400.683 44.4361C404.672 50.7812 405.069 55.3185 405.069 55.3185C405.069 55.3185 399.318 68.9302 397.242 78.5062C395.166 88.0823 396.776 107.328 396.717 111.41C396.659 115.492 388.809 124.742 388.553 127.145C388.296 129.547 392.752 134.901 399.412 139.088C406.072 143.276 417.549 146.588 423.323 146.682C429.096 146.775 439.209 144.535 440.224 141.433C441.238 138.33 441.46 124.147 441.518 120.543C441.577 116.939 440.76 108.517 442.055 102.779C443.35 97.0401 445.916 86.7409 442.206 78.028C438.497 69.3151 434.812 59.8907 434.812 59.8907C434.812 59.8907 414.586 32.6555 414.365 31.8974C414.143 31.1392 411.589 23.931 411.589 23.931Z" fill="white" stroke="#263238" stroke-linecap="round" stroke-linejoin="round"/>
<path d="M324.6 49.6498C324.6 49.6498 328.484 45.4858 329.347 44.8559C330.21 44.2261 335.937 42.8498 335.937 42.8498" stroke="#263238" stroke-linecap="round" stroke-linejoin="round"/>
<path d="M442.195 78.063C438.497 69.3501 434.8 59.9257 434.8 59.9257C434.8 59.9257 414.575 32.6905 414.353 31.9324C414.132 31.1742 411.589 23.9659 411.589 23.9659C411.589 23.9659 398.829 12.5703 395.831 11.4506C392.833 10.3309 385.333 13.6784 377.904 16.8043C373.961 18.4606 365.073 23.861 357.503 28.5732L362.344 36.9245C369.342 34.5917 377.6 31.8507 378.615 31.4425C380.411 30.7077 389.789 27.6051 389.789 27.6051C389.789 27.6051 396.706 38.1026 400.695 44.4477C404.684 50.7929 405.08 55.3301 405.08 55.3301C405.08 55.3301 399.33 68.9418 397.254 78.5179C395.178 88.0939 396.787 107.339 396.729 111.422C396.671 115.504 388.821 124.753 388.564 127.156C388.308 129.559 392.763 134.913 399.423 139.1C406.083 143.287 417.561 146.6 423.334 146.693C429.108 146.787 439.221 144.547 440.235 141.444C441.25 138.342 441.472 124.159 441.53 120.554C441.588 116.95 440.772 108.529 442.067 102.79C443.361 97.0518 445.904 86.7176 442.195 78.063Z" fill="#8F8F8F" stroke="#263238" stroke-linecap="round" stroke-linejoin="round"/>
<path d="M400.45 102.114C400.45 102.114 407.95 115.947 412.359 121.254Z" fill="white"/>
<path d="M400.45 102.114C400.45 102.114 407.95 115.947 412.359 121.254" stroke="#263238" stroke-linecap="round" stroke-linejoin="round"/>
<path d="M412.277 125.488C412.837 126.037 413.444 126.55 413.968 127.016Z" fill="white"/>
<path d="M412.277 125.488C412.837 126.037 413.444 126.55 413.968 127.016" stroke="#263238" stroke-linecap="round" stroke-linejoin="round"/>
<path d="M405.208 116.157C406.864 118.907 408.753 121.51 410.854 123.937Z" fill="white"/>
<path d="M405.208 116.157C406.864 118.907 408.753 121.51 410.854 123.937" stroke="#263238" stroke-linecap="round" stroke-linejoin="round"/>
<path d="M408.544 49.3465C408.544 49.3465 409.594 43.3629 407.728 40.0154C405.862 36.6679 404.334 26.9869 407.728 22.228C411.122 17.4691 420.278 19.0671 420.278 19.0671C420.278 19.0671 424.232 11.9288 432.164 12.0688C440.095 12.2087 444.772 19.9536 444.772 19.9536C444.772 19.9536 456.028 7.12329 471.751 15.5913C487.474 24.0592 484.71 46.5589 484.71 46.5589C484.71 46.5589 497.423 52.9506 496.257 64.218C495.09 75.4853 491.37 84.0465 477.186 84.3381C463.003 84.6297 466.304 73.3974 460.402 66.2825C454.5 59.1675 446.615 57.173 442.475 60.4505C439.891 62.5851 437.801 65.2555 436.351 68.277C436.351 68.277 437.517 56.2865 429.866 53.0323C422.214 49.7781 414.703 52.0642 414.003 53.0323C413.124 53.9188 412.145 54.7015 411.087 55.3651L408.544 49.3465Z" fill="#263238" stroke="#263238" stroke-linecap="round" stroke-linejoin="round"/>
<path d="M424.687 42.8031C425.69 44.2805 426.341 45.9685 426.588 47.7369" stroke="#787878" stroke-linecap="round" stroke-linejoin="round"/>
<path d="M420.325 19.0204C418.028 22.5796 416.869 26.7536 417.001 30.9876C417.246 35.2449 420.593 37.7293 423.288 40.9369" stroke="#787878" stroke-linecap="round" stroke-linejoin="round"/>
<path d="M468.007 52.1459C468.263 52.4375 468.532 52.7057 468.788 52.9623C473.524 57.6279 482.423 56.7881 483.951 50.0814" stroke="#787878" stroke-linecap="round" stroke-linejoin="round"/>
<path d="M431.931 44.2378C431.931 44.2378 436.363 37.3444 447.899 37.7643C457.055 38.1026 461.895 44.5877 465.826 49.5682" stroke="#787878" stroke-linecap="round" stroke-linejoin="round"/>
<path d="M492.105 60.5672C491.825 59.6685 491.386 58.8271 490.81 58.0828" stroke="#787878" stroke-linecap="round" stroke-linejoin="round"/>
<path d="M443.863 49.1949C443.863 49.1949 454.535 43.363 462.746 55.0268C470.958 66.6907 467.004 74.8554 480.674 76.0218C489.445 76.78 492.583 71.0297 492.781 65.6526" stroke="#787878" stroke-linecap="round" stroke-linejoin="round"/>
<path d="M432.957 31.979C432.638 31.6902 432.363 31.3562 432.141 30.9876C430.274 27.8384 430.869 20.875 436.806 21.9364" stroke="#787878" stroke-linecap="round" stroke-linejoin="round"/>
<path d="M445.274 21.3532C445.274 21.3532 447.607 26.672 443.921 30.6843C442.99 31.7077 441.828 32.4936 440.531 32.9765C439.235 33.4594 437.841 33.6253 436.468 33.4603" stroke="#787878" stroke-linecap="round" stroke-linejoin="round"/>
<path d="M411.111 70.7731C411.111 70.7731 408.521 82.262 413.023 86.426C417.526 90.59 424.571 85.4112 428.548 77.0949L411.111 70.7731Z" fill="white" stroke="#263238" stroke-linecap="round" stroke-linejoin="round"/>
<path d="M439.022 63.5648C439.022 63.5648 442.125 59.0742 443.618 60.0656C445.111 61.057 442.545 64.5912 440.48 66.8307C438.416 69.0701 437.424 69.0468 437.424 69.0468L439.022 63.5648Z" fill="white" stroke="#263238" stroke-linecap="round" stroke-linejoin="round"/>
<path d="M437.833 59.2492L439.979 51.2361C440.049 46.9438 435.582 45.9174 432.281 46.5705C430.348 46.9791 428.475 47.6296 426.705 48.5067C426.705 48.5067 422.693 43.9812 419.217 43.3396C415.216 42.5932 412.09 44.1794 412.044 46.6988C411.902 48.6039 411.445 50.4723 410.691 52.2275L409.758 47.9235C409.758 47.9235 409.023 62.0485 409.466 65.8393C409.909 69.63 412.079 83.0202 420.547 82.9152C427.603 82.8335 436.386 70.5631 437.693 68.0554C438.451 66.5974 439.069 62.5734 439.477 58.6193L437.833 59.2492Z" fill="white" stroke="#263238" stroke-linecap="round" stroke-linejoin="round"/>
<path d="M409.711 50.7229C409.711 50.7229 408.813 43.6429 406.993 47.3987C405.174 51.1544 409.326 57.278 409.326 57.278L409.711 50.7229Z" fill="white" stroke="#263238" stroke-linecap="round" stroke-linejoin="round"/>
<path d="M418.727 70.5515C418.727 70.5515 419.194 72.581 423.999 72.1494" stroke="#263238" stroke-linecap="round" stroke-linejoin="round"/>
<path d="M416.663 73.2924C417.511 74.4367 418.761 75.2164 420.162 75.474C421.563 75.7317 423.009 75.448 424.209 74.6804" stroke="#263238" stroke-linecap="round" stroke-linejoin="round"/>
<path d="M413.607 59.6224C414.244 60.803 415.246 61.7462 416.463 62.3116C417.68 62.8769 419.047 63.0342 420.36 62.76" stroke="#263238" stroke-linecap="round" stroke-linejoin="round"/>
<path d="M427.172 65.0111C428.012 66.0748 429.177 66.8341 430.489 67.1732C431.801 67.5123 433.188 67.4125 434.438 66.889" stroke="#263238" stroke-linecap="round" stroke-linejoin="round"/>
<path d="M422.215 58.5143C422.215 58.5143 420.115 54.397 414.505 55.3301" stroke="#263238" stroke-linecap="round" stroke-linejoin="round"/>
<path d="M427.79 59.8673C427.79 59.8673 433.155 58.8176 436.013 63.1799" stroke="#263238" stroke-linecap="round" stroke-linejoin="round"/>
<path d="M425.889 105.858L417.327 130.224C417.327 130.224 380.633 125.792 378.242 125.267C375.851 124.742 364.817 122.934 362.426 122.607C360.034 122.281 355.929 122.747 354.716 123.447C353.503 124.147 349.14 126.946 347.717 127.18C346.294 127.413 343.39 127.588 344.323 128.813C345.256 130.037 348.639 129.839 348.639 129.839C347.705 130.685 346.504 131.176 345.245 131.227C343.332 131.227 337.29 133.256 339.413 133.56C341.536 133.863 347.577 134.644 350.68 134.936C353.783 135.228 365.668 129.652 365.668 129.652C365.668 129.652 384.33 136.207 395.294 139.508C406.258 142.809 423.288 146.682 426.18 146.728C429.073 146.775 440.329 118.852 442.58 112.903C444.831 106.954 447.933 94.2408 446.79 90.625C445.647 87.0092 441.437 83.9999 441.437 83.9999" fill="#8F8F8F"/>
<path d="M425.889 105.858L417.327 130.224C417.327 130.224 380.633 125.792 378.242 125.267C375.851 124.742 364.817 122.934 362.426 122.607C360.034 122.281 355.929 122.747 354.716 123.447C353.503 124.147 349.14 126.946 347.717 127.18C346.294 127.413 343.39 127.588 344.323 128.813C345.256 130.037 348.639 129.839 348.639 129.839C347.705 130.685 346.504 131.176 345.245 131.227C343.332 131.227 337.29 133.256 339.413 133.56C341.536 133.863 347.577 134.644 350.68 134.936C353.783 135.228 365.668 129.652 365.668 129.652C365.668 129.652 384.33 136.207 395.294 139.508C406.258 142.809 423.288 146.682 426.18 146.728C429.073 146.775 440.329 118.852 442.58 112.903C444.831 106.954 447.933 94.2408 446.79 90.625C445.647 87.0092 441.437 83.9999 441.437 83.9999" stroke="#263238" stroke-linecap="round" stroke-linejoin="round"/>
<path d="M388.156 137.246L391.107 126.993C384.552 126.176 379.117 125.465 378.277 125.267C375.886 124.753 364.852 122.934 362.461 122.607C360.07 122.281 355.964 122.747 354.751 123.447C353.538 124.147 349.176 126.946 347.753 127.18C346.33 127.413 343.425 127.588 344.358 128.813C345.291 130.037 348.674 129.839 348.674 129.839C347.74 130.685 346.539 131.176 345.28 131.227C343.367 131.227 337.325 133.256 339.448 133.56C341.571 133.863 347.613 134.644 350.715 134.936C353.818 135.228 365.703 129.652 365.703 129.652C365.703 129.652 377.717 133.863 388.156 137.246Z" fill="white" stroke="#263238" stroke-linecap="round" stroke-linejoin="round"/>
<path d="M348.615 129.839C348.615 129.839 350.038 130.585 353.199 128.673Z" fill="white"/>
<path d="M348.615 129.839C348.615 129.839 350.038 130.585 353.199 128.673" stroke="#263238" stroke-linecap="round" stroke-linejoin="round"/>
</svg>
