<svg width="1382" height="818" viewBox="0 0 1382 818" fill="none" xmlns="http://www.w3.org/2000/svg">
<path d="M1325.29 308.562C1311.73 265.641 1289.57 225.927 1260.18 191.837C1159.61 76.5621 1011.57 18.17 862.02 3.79745C485.549 -32.2418 385.726 199.033 316.51 241.582C181.392 324.68 -67.9804 435.17 29.8431 638.15C83.8235 750.092 242.373 760.052 349.451 760.739C661.824 762.699 703.863 716.68 870.059 754.719C1036.25 792.758 1204.65 782.641 1291.63 650.543C1353.55 556.503 1359.22 413.464 1325.29 308.562Z" fill="#92E3A9"/>
<path opacity="0.7" d="M1325.29 308.562C1311.73 265.641 1289.57 225.927 1260.18 191.837C1159.61 76.5621 1011.57 18.17 862.02 3.79745C485.549 -32.2418 385.726 199.033 316.51 241.582C181.392 324.68 -67.9804 435.17 29.8431 638.15C83.8235 750.092 242.373 760.052 349.451 760.739C661.824 762.699 703.863 716.68 870.059 754.719C1036.25 792.758 1204.65 782.641 1291.63 650.543C1353.55 556.503 1359.22 413.464 1325.29 308.562Z" fill="white"/>
<path d="M1325.55 420.327V502.229H1376.63" stroke="#263238" stroke-linecap="round" stroke-linejoin="round"/>
<path d="M1204.86 250.131V217.307H1242.71V319.876H1266V428.15H1289.29V279.994H1325.55V410.425" stroke="#263238" stroke-linecap="round" stroke-linejoin="round"/>
<path d="M69.5882 370.856V319.876H107.431V388.248H145.275V268.582H232.608V376.856H311.196V234.405H375.235V371.17H438.922V69.1504H477.137V194.503H509.157V17.8563H587.745V388.248H692.549V143.229H759.49V285.68H817.706V97.6406H919.588V302.778H972V183.111H1012.75V262.895H1053.49V166.013H1076.78V69.1504H1111.73V344.307H1143.65V274.288H1152.47V428.15H1204.86V259.033" stroke="#263238" stroke-linecap="round" stroke-linejoin="round"/>
<path d="M20.098 502.229H69.5882V379.758" stroke="#263238" stroke-linecap="round" stroke-linejoin="round"/>
<path d="M1220.43 458.386H1192.39V486.425H1220.43V458.386Z" stroke="#263238" stroke-linecap="round" stroke-linejoin="round"/>
<path d="M1266.49 458.386H1238.45V486.425H1266.49V458.386Z" stroke="#263238" stroke-linecap="round" stroke-linejoin="round"/>
<path d="M109.137 458.386H81.098V486.425H109.137V458.386Z" stroke="#263238" stroke-linecap="round" stroke-linejoin="round"/>
<path d="M65.0784 520.445H37.0392V548.484H65.0784V520.445Z" stroke="#263238" stroke-linecap="round" stroke-linejoin="round"/>
<path d="M1220.43 504.425H1192.39V532.464H1220.43V504.425Z" stroke="#263238" stroke-linecap="round" stroke-linejoin="round"/>
<path d="M1153.16 665.562C1158.25 667.797 1170.71 667.523 1170.8 667.523C1170.9 667.523 1168.12 659.366 1167.88 658.876C1165.16 653.17 1156.51 643.719 1149.47 644.68C1148.31 644.869 1147.2 645.3 1146.21 645.947C1145.23 646.593 1144.39 647.439 1143.75 648.43C1143.12 649.422 1142.7 650.536 1142.52 651.7C1142.34 652.865 1142.41 654.054 1142.73 655.19C1143.82 660.052 1148.82 663.66 1153.16 665.562Z" fill="#92E3A9"/>
<path d="M1157.45 701.641C1162.75 702.425 1173.86 699.19 1174.75 698.935C1176.57 705.296 1178.82 711.526 1181.49 717.582C1183.02 721.131 1184.67 724.641 1186.35 728.15C1185.35 726.66 1184.39 725.346 1184.27 725.17C1180.14 720.386 1169.31 713.562 1162.71 716.327C1161.63 716.816 1160.67 717.527 1159.89 718.412C1159.11 719.297 1158.53 720.338 1158.17 721.465C1157.82 722.592 1157.71 723.78 1157.85 724.952C1157.99 726.125 1158.37 727.255 1158.98 728.268C1161.39 732.66 1167.16 734.837 1171.84 735.503C1176.53 736.17 1186.14 733.641 1188.65 732.935C1189.31 734.268 1189.96 735.621 1190.61 736.954C1193.84 743.366 1197.08 749.739 1200.06 756.111C1201.12 758.346 1202.02 760.582 1203.04 762.837C1202.14 761.503 1201.35 760.405 1201.24 760.248C1197.08 755.464 1186.25 748.641 1179.67 751.405C1178.59 751.897 1177.64 752.609 1176.86 753.495C1176.08 754.38 1175.49 755.42 1175.14 756.546C1174.79 757.672 1174.68 758.859 1174.82 760.031C1174.96 761.203 1175.34 762.332 1175.94 763.346C1178.35 767.739 1184.14 769.895 1188.8 770.582C1193.47 771.268 1202.18 768.974 1205.16 768.131C1206.08 770.464 1207 772.797 1207.78 775.092C1208.29 776.66 1208.88 778.15 1209.29 779.758C1209.71 781.366 1210.18 782.935 1210.61 784.484C1211.33 787.523 1212.1 790.641 1212.75 793.621C1213.2 795.68 1213.59 797.66 1214 799.66C1212.98 797.405 1210.88 793.072 1210.67 792.719C1207.29 787.346 1197.63 778.994 1190.75 780.719C1189.61 781.046 1188.56 781.606 1187.66 782.364C1186.76 783.121 1186.02 784.06 1185.51 785.118C1184.99 786.177 1184.7 787.332 1184.66 788.51C1184.61 789.687 1184.82 790.86 1185.25 791.954C1186.98 796.66 1192.37 799.68 1196.88 801.072C1201.88 802.582 1212.9 801.19 1214.29 801.072C1214.94 804.366 1215.55 807.582 1216.08 810.621C1216.49 812.876 1216.84 815.033 1217.18 817.111H1221.59C1221.18 814.797 1220.73 812.386 1220.22 809.856C1219.57 806.503 1218.78 802.935 1217.96 799.268C1221.29 797.959 1224.53 796.44 1227.67 794.719C1231.31 798.641 1240.61 803.248 1241.82 803.837C1240.55 806.954 1239.29 809.974 1238.06 812.797L1236.1 817.111H1240.98C1241.35 816.229 1241.73 815.346 1242.1 814.425C1243.39 811.268 1244.73 807.876 1246.02 804.366C1247.35 804.641 1258.27 806.876 1263.37 805.719C1267.98 804.68 1273.57 802.072 1275.65 797.503C1276.17 796.445 1276.46 795.29 1276.5 794.112C1276.55 792.934 1276.35 791.759 1275.91 790.665C1275.47 789.57 1274.81 788.58 1273.96 787.758C1273.12 786.937 1272.11 786.302 1271 785.895C1264.27 783.641 1254 791.268 1250.25 796.366C1250.02 796.68 1247.98 800.288 1246.73 802.464C1247.25 801.013 1247.8 799.641 1248.33 798.15C1249.41 795.229 1250.29 792.268 1251.47 789.092C1251.92 787.543 1252.39 785.993 1252.86 784.405C1253.33 782.817 1253.71 781.131 1254.14 779.484C1255.04 775.562 1255.78 771.641 1256.45 767.719C1259 768.66 1268.22 771.837 1272.9 771.503C1277.59 771.17 1283.55 769.444 1286.29 765.248C1286.97 764.282 1287.43 763.185 1287.66 762.028C1287.88 760.871 1287.86 759.68 1287.59 758.532C1287.33 757.384 1286.82 756.305 1286.11 755.364C1285.4 754.423 1284.5 753.643 1283.47 753.072C1277.16 749.817 1265.82 755.817 1261.35 760.288C1261.08 760.562 1258.22 764.209 1256.69 766.17C1257.06 763.758 1257.45 761.386 1257.75 758.935C1258.63 751.895 1259.27 744.758 1259.98 737.621C1260.2 735.444 1260.43 733.268 1260.67 731.092C1261.57 731.425 1272.43 735.444 1277.69 735.013C1282.39 734.699 1288.33 733.052 1291.06 728.758C1291.74 727.793 1292.2 726.696 1292.43 725.538C1292.65 724.38 1292.63 723.188 1292.37 722.039C1292.1 720.89 1291.59 719.811 1290.88 718.87C1290.17 717.93 1289.27 717.15 1288.24 716.582C1281.92 713.327 1270.59 719.327 1266.14 723.797C1265.78 724.131 1261.69 729.268 1260.71 730.641C1261.2 725.837 1261.75 721.072 1262.49 716.386C1263.44 710.056 1264.81 703.794 1266.57 697.641C1267 697.797 1278.33 702.052 1283.69 701.66C1288.41 701.346 1294.33 699.601 1297.08 695.405C1297.75 694.439 1298.22 693.342 1298.44 692.185C1298.66 691.028 1298.64 689.837 1298.38 688.689C1298.11 687.541 1297.61 686.461 1296.9 685.521C1296.19 684.58 1295.29 683.799 1294.25 683.229C1287.94 679.974 1276.61 685.974 1272.14 690.444C1271.78 690.797 1267.37 696.327 1266.65 697.386C1266.65 697.033 1266.82 696.66 1266.92 696.307C1268.87 690.185 1271.36 684.247 1274.35 678.562C1275.96 675.405 1277.69 672.484 1279.41 669.66C1281.37 670.68 1290.69 675.17 1295.63 675.366C1300.57 675.562 1306.43 674.484 1309.61 670.601C1310.39 669.718 1310.97 668.679 1311.33 667.554C1311.68 666.429 1311.79 665.243 1311.65 664.072C1311.52 662.901 1311.13 661.772 1310.53 660.758C1309.93 659.745 1309.12 658.869 1308.16 658.19C1302.27 654.268 1290.33 658.993 1285.39 662.935C1285.12 663.15 1282.61 665.641 1280.82 667.484C1281.63 666.229 1282.43 664.915 1283.22 663.719C1286.2 659.248 1289.2 655.346 1291.86 651.954C1293.41 649.993 1294.84 648.288 1296.2 646.68C1298.69 646.68 1308.73 646.327 1313.12 644.268C1317.51 642.209 1322.29 638.503 1323.33 633.601C1323.62 632.457 1323.66 631.267 1323.45 630.107C1323.24 628.947 1322.79 627.843 1322.13 626.868C1321.47 625.894 1320.61 625.069 1319.6 624.449C1318.6 623.829 1317.48 623.426 1316.31 623.268C1309.25 622.503 1300.88 632.17 1298.29 637.954C1298.08 638.464 1295.49 646.68 1295.61 646.68H1295.88C1294.55 648.209 1293.14 649.837 1291.63 651.66C1288.86 655.052 1285.75 658.915 1282.71 663.327C1279.34 668.058 1276.25 672.981 1273.45 678.072C1270.31 683.76 1267.68 689.718 1265.61 695.876C1265.61 695.876 1265.61 696.033 1265.61 696.092C1265.61 694.013 1265.61 688.248 1265.51 687.758C1264.69 681.484 1259.41 669.817 1252.45 668.523C1251.29 668.337 1250.1 668.398 1248.97 668.701C1247.83 669.004 1246.77 669.543 1245.86 670.283C1244.94 671.023 1244.2 671.947 1243.66 672.995C1243.13 674.043 1242.82 675.192 1242.76 676.366C1242.35 681.346 1245.96 686.346 1249.49 689.503C1253.41 693.052 1264.53 696.503 1265.41 696.778C1263.42 703.09 1261.86 709.529 1260.75 716.052C1260.06 719.856 1259.49 723.699 1258.98 727.562C1258.98 725.758 1258.98 724.15 1258.98 723.935C1258.18 717.641 1252.9 705.974 1245.92 704.68C1244.76 704.5 1243.58 704.565 1242.44 704.871C1241.31 705.177 1240.25 705.716 1239.34 706.455C1238.43 707.194 1237.68 708.115 1237.15 709.16C1236.61 710.205 1236.3 711.351 1236.24 712.523C1235.82 717.523 1239.45 722.523 1242.98 725.68C1246.51 728.837 1255.92 731.994 1258.41 732.797C1258.24 734.268 1258.04 735.758 1257.86 737.229C1257 744.366 1256.18 751.464 1255.18 758.425C1254.8 760.876 1254.37 763.268 1253.94 765.66C1253.94 764.072 1253.94 762.719 1253.84 762.523C1253.04 756.248 1247.76 744.582 1240.78 743.288C1239.62 743.105 1238.44 743.168 1237.3 743.472C1236.17 743.777 1235.11 744.316 1234.2 745.055C1233.28 745.795 1232.54 746.717 1232 747.764C1231.47 748.811 1231.16 749.958 1231.1 751.131C1230.69 756.111 1234.31 761.111 1237.84 764.268C1241.37 767.425 1249.88 770.288 1252.82 771.248C1252.31 773.68 1251.8 776.131 1251.2 778.484C1250.73 780.072 1250.41 781.641 1249.86 783.229C1249.31 784.817 1248.86 786.346 1248.35 787.876C1247.29 790.817 1246.22 793.758 1245.1 796.68C1244.33 798.641 1243.59 800.601 1242.82 802.405C1243.2 799.974 1243.86 795.19 1243.86 794.797C1243.79 789.216 1242.28 783.748 1239.49 778.915C1239.51 778.298 1239.47 777.681 1239.37 777.072C1239.23 775.901 1238.83 774.775 1238.22 773.766C1237.61 772.756 1236.79 771.887 1235.83 771.214C1234.86 770.541 1233.76 770.079 1232.6 769.859C1231.44 769.638 1230.25 769.664 1229.1 769.935C1222.25 771.758 1217.9 783.797 1217.57 790.131C1217.57 790.503 1217.8 794.582 1218 797.15C1217.65 795.66 1217.33 794.209 1216.96 792.68C1216.24 789.641 1215.43 786.641 1214.57 783.405C1214.12 781.856 1213.63 780.288 1213.16 778.699C1212.69 777.111 1212.06 775.523 1211.49 773.915C1210.14 770.209 1208.59 766.503 1206.94 762.817C1209.59 762.19 1218.98 759.797 1222.76 756.935C1226.55 754.072 1230.49 749.346 1230.47 744.327C1230.5 743.149 1230.28 741.978 1229.83 740.891C1229.37 739.803 1228.7 738.823 1227.84 738.013C1226.99 737.203 1225.97 736.582 1224.86 736.191C1223.75 735.799 1222.57 735.645 1221.39 735.739C1214.33 736.503 1208.22 747.739 1206.94 753.954C1206.94 754.327 1206.43 758.895 1206.25 761.405C1205.25 759.19 1204.29 756.974 1203.16 754.778C1200 748.425 1196.61 742.092 1193.35 735.778L1190.31 729.895C1191.27 729.68 1202.49 727.072 1206.73 723.817C1210.47 720.935 1214.45 716.229 1214.43 711.229C1214.46 710.049 1214.25 708.877 1213.79 707.787C1213.34 706.697 1212.67 705.714 1211.81 704.902C1210.95 704.09 1209.94 703.467 1208.82 703.075C1207.71 702.682 1206.53 702.527 1205.35 702.621C1198.29 703.386 1192.18 714.621 1190.9 720.837C1190.9 721.307 1190.2 727.856 1190.14 729.543C1187.92 725.248 1185.75 720.974 1183.76 716.66C1181.07 710.855 1178.76 704.882 1176.84 698.778C1177.27 698.68 1189.02 696.013 1193.33 692.68C1197.1 689.817 1201.08 685.092 1201.04 680.092C1201.07 678.911 1200.86 677.737 1200.41 676.646C1199.96 675.554 1199.28 674.57 1198.42 673.758C1197.57 672.945 1196.55 672.323 1195.44 671.931C1194.32 671.539 1193.14 671.387 1191.96 671.484C1184.92 672.248 1178.78 683.484 1177.51 689.699C1177.51 690.19 1176.78 697.248 1176.75 698.523C1176.75 698.17 1176.49 697.817 1176.39 697.464C1174.63 691.29 1173.43 684.971 1172.8 678.582C1172.39 675.052 1172.22 671.66 1172.12 668.346C1174.35 668.092 1184.55 666.719 1188.78 664.17C1193.02 661.621 1197.31 657.464 1197.82 652.405C1197.98 651.237 1197.9 650.047 1197.57 648.915C1197.24 647.782 1196.67 646.732 1195.91 645.831C1195.15 644.931 1194.21 644.2 1193.14 643.688C1192.08 643.175 1190.92 642.892 1189.75 642.856C1182.65 642.856 1175.33 653.346 1173.37 659.386C1173.37 659.699 1172.57 663.15 1172.08 665.68C1172.08 664.19 1172.08 662.641 1172.08 661.229C1172.08 655.856 1172.43 650.935 1172.76 646.582C1172.98 644.111 1173.22 641.895 1173.47 639.797C1175.53 638.386 1183.73 632.601 1186.25 628.464C1188.78 624.327 1190.73 618.66 1188.9 613.915C1188.5 612.805 1187.88 611.791 1187.06 610.938C1186.25 610.086 1185.26 609.414 1184.17 608.967C1183.08 608.519 1181.91 608.306 1180.73 608.341C1179.55 608.376 1178.4 608.659 1177.33 609.17C1171.04 612.425 1169.37 625.131 1170.41 631.366C1170.41 631.915 1172.88 640.19 1173 640.131L1173.12 640.033C1172.84 641.994 1172.57 644.19 1172.31 646.542C1171.88 650.895 1171.43 655.817 1171.31 661.209C1171.12 667.01 1171.25 672.817 1171.73 678.601C1172.22 685.083 1173.3 691.507 1174.94 697.797C1174.94 697.797 1174.94 697.954 1174.94 698.033C1173.82 696.268 1170.53 691.484 1170.24 691.131C1166.1 686.346 1155.27 679.523 1148.67 682.288C1147.59 682.779 1146.64 683.491 1145.86 684.377C1145.08 685.262 1144.49 686.302 1144.14 687.428C1143.79 688.554 1143.68 689.742 1143.82 690.913C1143.96 692.085 1144.34 693.215 1144.94 694.229C1147 698.797 1152.75 700.954 1157.45 701.641Z" fill="#92E3A9"/>
<path d="M1279.16 668.307C1279.16 668.307 1281.41 660.033 1281.49 659.484C1282.37 653.209 1280.37 640.562 1273.98 637.484C1272.91 636.999 1271.74 636.746 1270.56 636.742C1269.38 636.738 1268.21 636.983 1267.13 637.46C1266.06 637.937 1265.09 638.637 1264.3 639.512C1263.51 640.388 1262.91 641.421 1262.55 642.542C1260.84 647.248 1263 653.033 1265.59 656.993C1268.61 661.66 1279.14 668.307 1279.16 668.307Z" fill="#92E3A9"/>
<path d="M16.8235 665.562C21.9216 667.797 34.4706 667.523 34.4706 667.523C34.4706 667.523 31.7843 659.366 31.549 658.876C28.8235 653.17 20.1765 643.719 13.1373 644.68C11.9749 644.868 10.8654 645.3 9.88117 645.946C8.89695 646.593 8.06016 647.44 7.42545 648.431C6.79075 649.423 6.3724 650.538 6.19773 651.702C6.02306 652.867 6.09599 654.055 6.41177 655.19C7.4902 660.052 12.4902 663.66 16.8235 665.562Z" fill="#92E3A9"/>
<path d="M21.1373 701.64C26.4118 702.425 37.5294 699.19 38.4118 698.935C40.2461 705.273 42.4995 711.483 45.1569 717.523C46.6863 721.072 48.3334 724.582 50.0392 728.092C49.0196 726.601 48.0785 725.288 47.9608 725.111C43.804 720.327 32.9804 713.503 26.3922 716.268C25.32 716.76 24.3632 717.472 23.5839 718.357C22.8047 719.243 22.2204 720.282 21.8691 721.409C21.5178 722.535 21.4072 723.722 21.5446 724.894C21.682 726.065 22.0643 727.195 22.6667 728.209C25.0785 732.601 30.8628 734.778 35.5294 735.444C40.1961 736.111 49.8236 733.582 52.3334 732.876C53 734.209 53.6471 735.562 54.2941 736.895C57.5098 743.307 60.7451 749.68 63.7255 756.052C64.7843 758.288 65.6863 760.523 66.7059 762.778C65.8039 761.444 65.0392 760.346 64.902 760.19C60.7451 755.405 49.9216 748.582 43.3334 751.346C42.2611 751.838 41.3043 752.55 40.5251 753.436C39.7459 754.321 39.1616 755.361 38.8103 756.487C38.4589 757.613 38.3484 758.8 38.4858 759.972C38.6232 761.144 39.0055 762.273 39.6079 763.288C42.0196 767.68 47.8039 769.837 52.4902 770.523C57.1765 771.209 65.8432 768.915 68.8236 768.072C69.7451 770.405 70.6667 772.739 71.451 775.033C71.9608 776.601 72.549 778.091 72.9608 779.699C73.3726 781.307 73.8432 782.876 74.2745 784.425C75 787.464 75.7843 790.582 76.4118 793.562C76.8628 795.621 77.2745 797.601 77.6667 799.601C76.6471 797.346 74.5491 793.013 74.3334 792.66C70.9608 787.288 61.2941 778.935 54.4118 780.66C53.2766 781.001 52.2262 781.577 51.3294 782.352C50.4326 783.127 49.7096 784.083 49.2079 785.156C48.7062 786.23 48.4371 787.398 48.4182 788.583C48.3992 789.768 48.6309 790.943 49.0981 792.033C50.8039 796.739 56.1961 799.758 60.7255 801.15C65.7059 802.66 76.7255 801.268 78.1177 801.15C78.7647 804.444 79.3922 807.66 79.9216 810.699C80.3138 812.954 80.6667 815.111 81 817.19H85.4314C85 814.876 84.549 812.464 84.0392 809.935C83.3922 806.582 82.6275 803.013 81.804 799.346C85.1239 798.032 88.3589 796.513 91.4902 794.797C95.1373 798.719 104.431 803.327 105.647 803.915C104.373 807.033 103.118 810.052 101.882 812.876C101.235 814.366 100.588 815.778 99.9216 817.19H104.588C104.961 816.307 105.333 815.425 105.706 814.503C107.02 811.346 108.333 807.954 109.627 804.444C110.961 804.719 121.882 806.954 126.98 805.797C131.588 804.758 137.177 802.15 139.255 797.582C139.778 796.524 140.073 795.368 140.119 794.189C140.166 793.01 139.963 791.835 139.525 790.74C139.086 789.644 138.422 788.654 137.575 787.832C136.727 787.011 135.716 786.378 134.608 785.974C127.882 783.719 117.627 791.346 113.863 796.444C113.627 796.758 111.588 800.366 110.333 802.542C110.882 801.091 111.412 799.719 111.941 798.229C113.02 795.307 113.902 792.346 115.078 789.17C115.529 787.621 116 786.072 116.471 784.484C116.941 782.895 117.314 781.209 117.745 779.562C118.667 775.641 119.392 771.719 120.059 767.797C122.627 768.739 131.824 771.915 136.51 771.582C141.196 771.248 147.157 769.523 149.902 765.327C150.58 764.362 151.047 763.264 151.272 762.107C151.497 760.949 151.476 759.757 151.209 758.608C150.943 757.459 150.437 756.379 149.726 755.439C149.014 754.498 148.112 753.719 147.078 753.15C140.765 749.895 129.431 755.895 124.961 760.366C124.686 760.641 121.824 764.288 120.294 766.248C120.667 763.837 121.059 761.464 121.353 759.013C122.235 751.974 122.902 744.837 123.588 737.699C123.804 735.523 124.039 733.346 124.275 731.17C125.177 731.503 136.039 735.523 141.294 735.091C146.02 734.778 151.941 733.131 154.667 728.837C155.345 727.871 155.811 726.774 156.037 725.617C156.262 724.459 156.241 723.267 155.974 722.118C155.708 720.969 155.202 719.889 154.49 718.949C153.779 718.008 152.877 717.228 151.843 716.66C145.549 713.405 134.196 719.405 129.745 723.876C129.412 724.209 125.294 729.346 124.314 730.719C124.824 725.915 125.373 721.15 126.098 716.464C127.058 710.134 128.427 703.872 130.196 697.719C130.608 697.876 141.863 702.131 147.314 701.739C152.02 701.425 157.961 699.68 160.686 695.484C161.361 694.518 161.825 693.42 162.049 692.263C162.273 691.106 162.251 689.915 161.984 688.767C161.718 687.619 161.214 686.54 160.504 685.599C159.794 684.659 158.894 683.878 157.863 683.307C151.549 680.052 140.216 686.052 135.765 690.523C135.412 690.876 130.98 696.405 130.255 697.464C130.353 697.111 130.431 696.739 130.529 696.386C132.48 690.264 134.967 684.326 137.961 678.641C139.569 675.484 141.294 672.562 143.039 669.739C145 670.758 154.314 675.248 159.235 675.444C164.157 675.641 170.039 674.562 173.235 670.68C174.012 669.793 174.594 668.754 174.943 667.628C175.292 666.503 175.4 665.317 175.262 664.147C175.123 662.976 174.74 661.849 174.138 660.836C173.535 659.823 172.727 658.948 171.765 658.268C165.882 654.346 153.941 659.072 149 663.013C148.726 663.229 146.235 665.719 144.431 667.562C145.235 666.307 146.039 664.993 146.843 663.797C149.804 659.327 152.726 655.425 155.471 652.033C157.02 650.072 158.451 648.366 159.804 646.758C162.294 646.758 172.333 646.405 176.726 644.346C181.118 642.288 185.902 638.582 186.941 633.68C187.224 632.536 187.264 631.345 187.056 630.185C186.849 629.025 186.399 627.922 185.737 626.947C185.075 625.972 184.215 625.148 183.213 624.527C182.211 623.907 181.089 623.505 179.922 623.346C172.863 622.582 164.49 632.248 161.902 638.033C161.686 638.542 159.098 646.758 159.235 646.758H159.373C158.039 648.288 156.627 649.915 155.118 651.739C152.353 655.131 149.235 658.993 146.196 663.405C142.88 668.087 139.83 672.951 137.059 677.974C133.916 683.661 131.291 689.62 129.216 695.778V695.993C129.216 693.915 129.216 688.15 129.098 687.66C128.275 681.386 123.02 669.719 116.039 668.425C114.878 668.239 113.691 668.299 112.555 668.603C111.419 668.906 110.36 669.445 109.446 670.185C108.532 670.925 107.785 671.849 107.252 672.897C106.719 673.945 106.413 675.094 106.353 676.268C105.941 681.248 109.569 686.248 113.098 689.405C117.02 692.954 128.118 696.405 129 696.68C127.02 702.994 125.461 709.433 124.333 715.954C123.647 719.758 123.098 723.601 122.569 727.464C122.569 725.66 122.569 724.052 122.569 723.837C121.745 717.542 116.471 705.876 109.49 704.582C108.33 704.402 107.145 704.467 106.012 704.773C104.878 705.079 103.822 705.618 102.909 706.357C101.997 707.096 101.249 708.017 100.714 709.062C100.18 710.107 99.8695 711.253 99.804 712.425C99.4118 717.425 103.02 722.425 106.549 725.582C110.078 728.739 119.49 731.895 121.98 732.699C121.804 734.17 121.608 735.66 121.431 737.131C120.569 744.268 119.765 751.366 118.745 758.327C118.392 760.778 117.941 763.17 117.51 765.562C117.51 763.974 117.51 762.621 117.51 762.425C116.686 756.15 111.412 744.484 104.451 743.19C103.29 743.004 102.103 743.064 100.967 743.367C99.8309 743.671 98.7716 744.21 97.8578 744.95C96.944 745.69 96.1963 746.614 95.6634 747.662C95.1305 748.71 94.8243 749.858 94.7647 751.033C94.353 756.013 97.9608 761.013 101.49 764.17C105.02 767.327 113.529 770.19 116.49 771.15C115.961 773.582 115.451 776.033 114.843 778.386C114.392 779.974 114.059 781.542 113.51 783.131C112.961 784.719 112.51 786.248 112 787.778C110.941 790.719 109.863 793.66 108.745 796.582C108 798.542 107.235 800.503 106.471 802.307C106.863 799.876 107.51 795.091 107.51 794.699C107.435 789.118 105.929 783.65 103.137 778.817C103.156 778.2 103.117 777.583 103.02 776.974C102.875 775.804 102.485 774.678 101.876 773.669C101.267 772.659 100.453 771.79 99.485 771.117C98.5176 770.443 97.4191 769.981 96.2612 769.761C95.1033 769.54 93.912 769.566 92.7647 769.837C85.902 771.66 81.549 783.699 81.2353 790.033C81.2353 790.405 81.451 794.484 81.6471 797.052C81.2941 795.562 80.9804 794.111 80.6079 792.582C79.8824 789.542 79.0785 786.542 78.2353 783.307C77.7647 781.758 77.2941 780.19 76.8039 778.601C76.3138 777.013 75.7059 775.425 75.1569 773.817C73.804 770.111 72.2353 766.405 70.5883 762.719C73.2549 762.091 82.6471 759.699 86.4118 756.837C90.1765 753.974 94.1569 749.248 94.1177 744.229C94.1461 743.051 93.9269 741.88 93.474 740.793C93.0212 739.705 92.345 738.725 91.4891 737.915C90.6333 737.105 89.6169 736.484 88.5058 736.093C87.3947 735.701 86.2137 735.547 85.0392 735.64C77.9804 736.405 71.8628 747.641 70.5883 753.856C70.5883 754.229 70.0785 758.797 69.902 761.307C68.902 759.091 67.9412 756.876 66.8039 754.68C63.6471 748.327 60.2745 741.993 57 735.68C55.9608 733.719 55.0392 731.758 53.9608 729.797C54.902 729.582 66.1177 726.974 70.353 723.719C74.0981 720.837 78.1961 716.131 78.0589 711.131C78.0901 709.951 77.8729 708.778 77.4213 707.688C76.9697 706.598 76.2939 705.616 75.4377 704.804C74.5816 703.992 73.5642 703.369 72.4517 702.976C71.3392 702.583 70.1565 702.429 68.9804 702.523C61.9216 703.288 55.8039 714.523 54.5294 720.739C54.4314 721.209 53.8432 727.758 53.7647 729.444C51.549 725.15 49.3726 720.876 47.3922 716.562C44.7004 710.757 42.3883 704.784 40.4706 698.68C40.9216 698.582 52.6471 695.915 56.9608 692.582C60.7255 689.719 64.7059 684.993 64.6667 679.993C64.7008 678.815 64.4861 677.643 64.0368 676.553C63.5875 675.463 62.9135 674.479 62.0588 673.667C61.2042 672.855 60.188 672.232 59.0765 671.839C57.965 671.446 56.7831 671.291 55.6079 671.386C48.549 672.15 42.4314 683.386 41.1373 689.601C41.0392 690.092 40.4118 697.15 40.3922 698.425C40.2745 698.072 40.1177 697.719 40.0196 697.366C38.2696 691.19 37.0688 684.871 36.4314 678.484C36.0392 674.954 35.8432 671.562 35.7451 668.248C37.9804 667.993 48.1961 666.621 52.4118 664.072C56.6275 661.523 60.9412 657.366 61.451 652.307C61.5757 651.126 61.4488 649.931 61.0785 648.802C60.7082 647.674 60.103 646.636 59.3028 645.758C58.5025 644.88 57.5254 644.181 56.4357 643.708C55.3459 643.235 54.1683 642.998 52.9804 643.013C45.902 643.013 38.5687 653.503 36.6275 659.542C36.5098 659.856 35.804 663.307 35.3138 665.837C35.3138 664.346 35.3138 662.797 35.3138 661.386C35.3138 656.013 35.6471 651.091 36 646.739C36.1961 644.268 36.451 642.052 36.6863 639.954C38.6471 638.542 46.9608 632.758 49.4706 628.621C51.9804 624.484 53.9608 618.817 52.1177 614.072C51.7204 612.962 51.0943 611.948 50.2798 611.095C49.4653 610.243 48.4807 609.571 47.3899 609.123C46.2991 608.676 45.1264 608.463 43.9479 608.498C42.7694 608.533 41.6114 608.815 40.549 609.327C34.2549 612.582 32.5883 625.288 33.6275 631.523C33.7255 632.072 36.0981 640.346 36.2157 640.288L36.3334 640.19C36.0589 642.15 35.7843 644.346 35.5294 646.699C35.0981 651.052 34.6471 655.974 34.5294 661.366C34.3325 667.166 34.47 672.974 34.9412 678.758C35.4302 685.225 36.4932 691.636 38.1177 697.915V698.15C37 696.386 33.7255 691.601 33.4314 691.248C29.2745 686.464 18.451 679.641 11.8628 682.405C10.7905 682.897 9.83374 683.609 9.0545 684.494C8.27526 685.38 7.69101 686.42 7.33968 687.546C6.98835 688.672 6.8778 689.859 7.01521 691.031C7.15262 692.203 7.53492 693.332 8.13728 694.346C10.6667 698.797 16.451 700.954 21.1373 701.64Z" fill="#92E3A9"/>
<path d="M142.824 668.307C142.941 668.307 145.098 660.033 145.157 659.484C146.039 653.209 144.039 640.562 137.647 637.484C136.572 636.999 135.406 636.746 134.227 636.742C133.047 636.738 131.88 636.983 130.801 637.46C129.723 637.937 128.757 638.637 127.967 639.512C127.177 640.388 126.58 641.421 126.216 642.542C124.51 647.248 126.686 653.033 129.255 656.993C132.275 661.66 142.824 668.307 142.824 668.307Z" fill="#92E3A9"/>
<path d="M141.608 101.935H1126.8C1132.24 101.935 1137.46 104.096 1141.31 107.942C1145.15 111.788 1147.31 117.005 1147.31 122.444V768.033H121.098V122.444C121.098 117.005 123.259 111.788 127.105 107.942C130.952 104.096 136.168 101.935 141.608 101.935Z" fill="#263238" stroke="#263238" stroke-miterlimit="10"/>
<path d="M1105.12 147.19H163.039V704.405H1105.12V147.19Z" fill="white" stroke="#263238" stroke-linecap="round" stroke-linejoin="round"/>
<path d="M495.196 314.523H181.451V361.366H495.196V314.523Z" fill="white" stroke="#263238" stroke-linecap="round" stroke-linejoin="round"/>
<path d="M495.196 551.405H181.451V598.248H495.196V551.405Z" fill="white" stroke="#263238" stroke-linecap="round" stroke-linejoin="round"/>
<path d="M819.941 314.523H506.196V361.366H819.941V314.523Z" fill="white" stroke="#263238" stroke-linecap="round" stroke-linejoin="round"/>
<path d="M495.196 490.268H181.451V537.111H495.196V490.268Z" fill="white" stroke="#263238" stroke-linecap="round" stroke-linejoin="round"/>
<path d="M819.941 490.268H506.196V537.111H819.941V490.268Z" fill="white" stroke="#263238" stroke-linecap="round" stroke-linejoin="round"/>
<path d="M818.588 373.092H181.451V419.935H818.588V373.092Z" fill="white" stroke="#263238" stroke-linecap="round" stroke-linejoin="round"/>
<path d="M818.588 431.66H181.451V478.503H818.588V431.66Z" fill="white" stroke="#263238" stroke-linecap="round" stroke-linejoin="round"/>
<path d="M193.49 250.288C197.235 250.288 198.961 252.562 198.961 256.288V268.503C198.961 272.17 197.235 274.386 193.49 274.386H187.843V250.288H193.49ZM193.49 271.856C195.451 271.856 196.353 270.641 196.353 268.444V256.052C196.353 253.856 195.412 252.66 193.451 252.66H190.569V271.856H193.49Z" fill="#263238"/>
<path d="M210.02 260.954V263.366H204.137V271.935H211.373V274.386H201.471V250.288H211.373V252.817H204.137V261.033L210.02 260.954Z" fill="#263238"/>
<path d="M213.843 274.386V250.288H216.529V271.856H223.333V274.386H213.843Z" fill="#263238"/>
<path d="M228.118 250.288V274.386H225.431V250.288H228.118Z" fill="#263238"/>
<path d="M232.882 250.288L236.804 271.248L240.726 250.288H243.196L238.667 274.386H234.745L230.216 250.307L232.882 250.288Z" fill="#263238"/>
<path d="M253.804 260.954V263.366H247.922V271.935H255.137V274.386H245.235V250.288H255.137V252.817H247.922V261.033L253.804 260.954Z" fill="#263238"/>
<path d="M262.98 250.288C266.765 250.288 268.333 252.248 268.333 255.797V257.758C268.333 260.405 267.412 262.052 265.353 262.719C267.549 263.366 268.373 265.15 268.373 267.739V271.484C268.291 272.47 268.459 273.462 268.863 274.366H266.137C265.753 273.443 265.599 272.44 265.686 271.444V267.66C265.686 264.954 264.412 264.092 262.176 264.092H260.216V274.386H257.529V250.288H262.98ZM262.294 261.641C264.412 261.641 265.686 260.954 265.686 258.346V256.033C265.686 253.876 264.902 252.739 262.902 252.739H260.294V261.641H262.294Z" fill="#263238"/>
<path d="M275.078 265.739L269.98 250.288H272.784L276.529 262.052L280.314 250.288H282.843L277.726 265.739V274.386H275.078V265.739Z" fill="#263238"/>
<path d="M292.824 269.523L291.961 274.386H289.412L294.02 250.307H297.941L302.529 274.386H299.804L298.863 269.543L292.824 269.523ZM293.157 267.209H298.529L295.882 253.327L293.157 267.209Z" fill="#263238"/>
<path d="M310.255 250.288C314 250.288 315.725 252.562 315.725 256.288V268.503C315.725 272.17 314 274.386 310.255 274.386H304.608V250.288H310.255ZM310.255 271.856C312.216 271.856 313.118 270.641 313.118 268.444V256.052C313.118 253.856 312.196 252.66 310.235 252.66H307.333V271.856H310.255Z" fill="#263238"/>
<path d="M323.863 250.288C327.627 250.288 329.333 252.562 329.333 256.288V268.503C329.333 272.17 327.627 274.386 323.863 274.386H318.235V250.288H323.863ZM323.863 271.856C325.824 271.856 326.706 270.641 326.706 268.444V256.052C326.706 253.856 325.784 252.66 323.824 252.66H320.941V271.856H323.863Z" fill="#263238"/>
<path d="M337.216 250.288C341 250.288 342.569 252.248 342.569 255.797V257.758C342.569 260.405 341.647 262.052 339.588 262.719C341.784 263.366 342.608 265.15 342.608 267.739V271.484C342.526 272.47 342.695 273.462 343.098 274.366H340.373C339.989 273.443 339.834 272.44 339.922 271.444V267.66C339.922 264.954 338.647 264.092 336.412 264.092H334.451V274.386H331.765V250.288H337.216ZM336.529 261.641C338.647 261.641 339.922 260.954 339.922 258.346V256.033C339.922 253.876 339.137 252.739 337.137 252.739H334.529V261.641H336.529Z" fill="#263238"/>
<path d="M353.961 260.954V263.366H348.078V271.935H355.294V274.386H345.392V250.288H355.294V252.817H348.078V261.033L353.961 260.954Z" fill="#263238"/>
<path d="M368.196 256.072V256.739H365.647V255.954C365.647 253.778 364.824 252.523 362.902 252.523C360.98 252.523 360.137 253.778 360.137 255.915C360.137 261.327 368.235 261.798 368.235 268.601C368.235 272.248 366.471 274.621 362.804 274.621C359.137 274.621 357.392 272.248 357.392 268.601V267.229H359.902V268.739C359.902 270.915 360.804 272.19 362.726 272.19C364.647 272.19 365.549 270.915 365.549 268.739C365.549 263.386 357.49 262.856 357.49 256.092C357.49 252.386 359.216 250.072 362.824 250.072C366.431 250.072 368.196 252.425 368.196 256.072Z" fill="#263238"/>
<path d="M380.98 256.072V256.739H378.431V255.954C378.431 253.778 377.608 252.523 375.686 252.523C373.765 252.523 372.941 253.778 372.941 255.915C372.941 261.327 381.02 261.798 381.02 268.601C381.02 272.248 379.255 274.621 375.588 274.621C371.922 274.621 370.176 272.248 370.176 268.601V267.229H372.686V268.739C372.686 270.915 373.588 272.19 375.51 272.19C377.431 272.19 378.333 270.915 378.333 268.739C378.333 263.386 370.294 262.856 370.294 256.092C370.294 252.386 372 250.072 375.627 250.072C379.255 250.072 380.98 252.425 380.98 256.072Z" fill="#263238"/>
<path d="M200.196 337.131V339.092H195.765V347.425H193.608V328.15H201.275V330.111H195.765V337.131H200.196Z" fill="#CCCCCC"/>
<path d="M205.118 328.229V347.503H202.961V328.229H205.118Z" fill="#CCCCCC"/>
<path d="M211.569 328.229C214.588 328.229 215.863 329.778 215.863 332.641V334.209C215.982 335.039 215.808 335.884 215.371 336.6C214.935 337.315 214.263 337.857 213.471 338.131C215.235 338.66 215.882 340.092 215.882 342.15V345.15C215.825 345.942 215.959 346.736 216.275 347.464H214.098C213.794 346.719 213.673 345.912 213.745 345.111V342.092C213.745 339.915 212.726 339.229 210.941 339.229H209.431V347.464H207.275V328.19L211.569 328.229ZM211.02 337.307C212.726 337.307 213.745 336.758 213.745 334.68V332.837C213.745 331.092 213.118 330.19 211.51 330.19H209.431V337.307H211.02Z" fill="#CCCCCC"/>
<path d="M226.49 332.856V333.386H224.529V332.758C224.529 331.013 223.863 329.994 222.333 329.994C220.804 329.994 220.137 331.013 220.137 332.719C220.137 337.033 226.588 337.464 226.588 342.876C226.588 345.797 225.196 347.699 222.255 347.699C219.314 347.699 217.922 345.739 217.922 342.876V341.778H219.882V343.013C219.882 344.739 220.588 345.758 222.137 345.758C223.686 345.758 224.392 344.739 224.392 343.013C224.392 338.719 217.961 338.307 217.961 332.876C217.961 329.915 219.333 328.072 222.216 328.072C225.098 328.072 226.49 329.935 226.49 332.856Z" fill="#CCCCCC"/>
<path d="M231.176 347.503V330.19H227.627V328.229H236.863V330.19H233.294V347.503H231.176Z" fill="#CCCCCC"/>
<path d="M244.451 347.503H242.49V328.229H245.216L249.667 342.15V328.229H251.627V347.503H249.392L244.471 331.915L244.451 347.503Z" fill="#CCCCCC"/>
<path d="M255.98 343.621L255.235 347.543H253.275L256.961 328.268H260.078L263.765 347.543H261.608L260.863 343.621H255.98ZM256.255 341.778H260.588L258.412 330.66L256.255 341.778Z" fill="#CCCCCC"/>
<path d="M272.51 347.464H270.392L267.196 332.15V347.503H265.235V328.229H268.431L271.608 343.621L274.667 328.229H277.667V347.503H275.706V332.013L272.51 347.464Z" fill="#CCCCCC"/>
<path d="M286.647 336.758V338.719H281.941V345.562H287.824V347.523H279.98V328.248H287.824V330.209H281.941V336.778L286.647 336.758Z" fill="#CCCCCC"/>
<path d="M518.706 347.503V328.229H520.843V345.543H526.353V347.503H518.706Z" fill="#CCCCCC"/>
<path d="M530.137 343.621L529.392 347.543H527.431L531.118 328.268H534.235L537.922 347.543H535.765L535.039 343.621H530.137ZM530.412 341.778H534.706L532.529 330.66L530.412 341.778Z" fill="#CCCCCC"/>
<path d="M547.902 332.856V333.386H545.941V332.758C545.941 331.013 545.275 329.994 543.726 329.994C542.177 329.994 541.53 331.013 541.53 332.719C541.53 337.033 548 337.464 548 342.876C548 345.797 546.588 347.699 543.647 347.699C540.706 347.699 539.333 345.739 539.333 342.876V341.778H541.294V343.013C541.294 344.739 542.02 345.758 543.549 345.758C545.079 345.758 545.804 344.739 545.804 343.013C545.804 338.719 539.373 338.307 539.373 332.876C539.373 329.915 540.745 328.072 543.647 328.072C546.549 328.072 547.902 329.935 547.902 332.856Z" fill="#CCCCCC"/>
<path d="M552.588 347.503V330.19H549.039V328.229H558.255V330.19H554.706V347.503H552.588Z" fill="#CCCCCC"/>
<path d="M565.863 347.503H563.902V328.229H566.627L571.098 342.15V328.229H573.059V347.503H570.843L565.902 331.915L565.863 347.503Z" fill="#CCCCCC"/>
<path d="M577.392 343.621L576.647 347.543H574.686L578.373 328.268H581.49L585.176 347.543H583.039L582.294 343.621H577.392ZM577.667 341.778H581.961L579.784 330.66L577.667 341.778Z" fill="#CCCCCC"/>
<path d="M593.922 347.464H591.961L588.765 332.15V347.503H586.902V328.229H589.902L593.059 343.621L596.118 328.229H599.118V347.503H597.157V332.013L593.922 347.464Z" fill="#CCCCCC"/>
<path d="M608.078 336.758V338.719H603.373V345.562H609.137V347.523H601.294V328.248H609.137V330.209H603.373V336.778L608.078 336.758Z" fill="#CCCCCC"/>
<path d="M196.333 400.739L195.588 404.66H193.627L197.333 385.405H200.431L204.118 404.66H201.961L201.216 400.739H196.333ZM196.608 398.895H200.902L198.726 387.778L196.608 398.895Z" fill="#CCCCCC"/>
<path d="M210.294 385.366C213.294 385.366 214.667 387.19 214.667 390.15V399.954C214.667 402.895 213.294 404.699 210.294 404.699H205.784V385.366H210.294ZM210.294 402.68C211.843 402.68 212.588 401.719 212.588 399.954V390.15C212.588 388.386 211.843 387.425 210.275 387.425H207.961V402.778L210.294 402.68Z" fill="#CCCCCC"/>
<path d="M221.176 385.366C224.176 385.366 225.549 387.19 225.549 390.15V399.954C225.549 402.895 224.176 404.699 221.176 404.699H216.667V385.366H221.176ZM221.176 402.68C222.706 402.68 223.451 401.719 223.451 399.954V390.15C223.451 388.386 222.706 387.425 221.137 387.425H218.824V402.778L221.176 402.68Z" fill="#CCCCCC"/>
<path d="M231.863 385.366C234.882 385.366 236.137 386.915 236.137 389.778V391.346C236.137 393.464 235.412 394.778 233.745 395.268C235.51 395.778 236.177 397.229 236.177 399.19V402.19C236.109 402.98 236.237 403.774 236.549 404.503H234.392C234.078 403.768 233.95 402.967 234.02 402.17V399.15C234.02 396.974 233 396.288 231.216 396.288H229.706V404.503H227.569V385.366H231.863ZM231.294 394.445C233 394.445 234.02 393.895 234.02 391.797V389.954C234.02 388.229 233.392 387.327 231.804 387.327H229.706V394.445H231.294Z" fill="#CCCCCC"/>
<path d="M245.255 393.994V395.954H240.549V402.817H246.333V404.778H238.49V385.366H246.333V387.327H240.549V393.994H245.255Z" fill="#CCCCCC"/>
<path d="M256.667 390.072V390.582H254.706V389.954C254.706 388.229 254.039 387.209 252.49 387.209C250.941 387.209 250.294 388.229 250.294 389.935C250.294 394.248 256.765 394.66 256.765 400.092C256.765 402.994 255.353 404.895 252.412 404.895C249.471 404.895 248.098 402.935 248.098 400.092V398.974H250.059V400.19C250.059 401.935 250.784 402.954 252.314 402.954C253.843 402.954 254.588 401.935 254.588 400.19C254.588 395.895 248.137 395.484 248.137 390.072C248.137 387.092 249.51 385.248 252.412 385.248C255.314 385.248 256.667 387.072 256.667 390.072Z" fill="#CCCCCC"/>
<path d="M266.863 390.072V390.582H264.902V389.954C264.902 388.229 264.235 387.209 262.686 387.209C261.137 387.209 260.49 388.229 260.49 389.935C260.49 394.248 266.961 394.66 266.961 400.092C266.961 402.994 265.549 404.895 262.608 404.895C259.667 404.895 258.294 402.935 258.294 400.092V398.974H260.255V400.19C260.255 401.935 260.98 402.954 262.51 402.954C264.039 402.954 264.765 401.935 264.765 400.19C264.765 395.895 258.333 395.484 258.333 390.072C258.333 387.092 259.706 385.248 262.608 385.248C265.51 385.248 266.863 387.072 266.863 390.072Z" fill="#CCCCCC"/>
<path d="M273.039 404.621V385.366H275.176V402.68H280.686V404.641L273.039 404.621Z" fill="#CCCCCC"/>
<path d="M284.451 385.366V404.621H282.294V385.366H284.451Z" fill="#CCCCCC"/>
<path d="M288.549 404.621H286.588V385.366H289.294L293.765 399.288V385.366H295.726V404.621H293.49L288.569 389.052L288.549 404.621Z" fill="#CCCCCC"/>
<path d="M304.745 393.994V395.954H300.039V402.817H305.824V404.778H297.98V385.366H305.824V387.327H300.039V393.994H304.745Z" fill="#CCCCCC"/>
<path d="M316 388.856C315.197 389.356 314.278 389.64 313.333 389.68V387.935C314.094 387.95 314.836 387.703 315.436 387.235C316.036 386.767 316.457 386.107 316.627 385.366H318.118V404.621H316V388.856Z" fill="#CCCCCC"/>
<path d="M196.333 462.621L195.588 466.543H193.627L197.333 447.288H200.431L204.118 466.543H201.961L201.216 462.621H196.333ZM196.608 460.778H200.902L198.726 449.66L196.608 460.778Z" fill="#CCCCCC"/>
<path d="M210.294 447.288C213.294 447.288 214.667 449.092 214.667 452.072V461.778C214.667 464.719 213.294 466.543 210.294 466.543H205.784V447.288H210.294ZM210.294 464.582C211.843 464.582 212.588 463.621 212.588 461.856V451.954C212.588 450.19 211.843 449.229 210.275 449.229H207.961V464.582H210.294Z" fill="#CCCCCC"/>
<path d="M221.176 447.288C224.176 447.288 225.549 449.092 225.549 452.072V461.778C225.549 464.719 224.176 466.543 221.176 466.543H216.667V447.288H221.176ZM221.176 464.582C222.706 464.582 223.451 463.621 223.451 461.856V451.954C223.451 450.19 222.706 449.229 221.137 449.229H218.824V464.582H221.176Z" fill="#CCCCCC"/>
<path d="M231.863 447.288C234.882 447.288 236.137 448.817 236.137 451.68V453.248C236.137 455.366 235.412 456.699 233.745 457.17C235.51 457.699 236.177 459.131 236.177 461.19V464.19C236.113 464.98 236.24 465.773 236.549 466.503H234.392C234.078 465.768 233.95 464.967 234.02 464.17V461.131C234.02 458.954 233 458.268 231.216 458.268H229.706V466.543H227.569V447.288H231.863ZM231.294 456.366C233 456.366 234.02 455.817 234.02 453.719V451.876C234.02 450.131 233.392 449.229 231.804 449.229H229.706V456.366H231.294Z" fill="#CCCCCC"/>
<path d="M245.255 455.817V457.778H240.549V464.582H246.333V466.543H238.49V447.288H246.333V449.248H240.549V455.837L245.255 455.817Z" fill="#CCCCCC"/>
<path d="M256.667 451.895V452.425H254.706V451.797C254.706 450.052 254.039 449.033 252.49 449.033C250.941 449.033 250.294 450.052 250.294 451.758C250.294 456.092 256.765 456.503 256.765 461.915C256.765 464.837 255.353 466.739 252.412 466.739C249.471 466.739 248.098 464.778 248.098 461.915V460.817H250.059V462.033C250.059 463.758 250.784 464.778 252.314 464.778C253.843 464.778 254.588 463.758 254.588 462.033C254.588 457.739 248.137 457.327 248.137 451.895C248.137 448.935 249.51 447.092 252.412 447.092C255.314 447.092 256.667 448.994 256.667 451.895Z" fill="#CCCCCC"/>
<path d="M266.863 451.895V452.425H264.902V451.797C264.902 450.052 264.235 449.033 262.686 449.033C261.137 449.033 260.49 450.052 260.49 451.758C260.49 456.092 266.961 456.503 266.961 461.915C266.961 464.837 265.549 466.739 262.608 466.739C259.667 466.739 258.294 464.778 258.294 461.915V460.817H260.255V462.033C260.255 463.758 260.98 464.778 262.51 464.778C264.039 464.778 264.765 463.758 264.765 462.033C264.765 457.739 258.333 457.327 258.333 451.895C258.333 448.935 259.706 447.092 262.608 447.092C265.51 447.092 266.863 448.994 266.863 451.895Z" fill="#CCCCCC"/>
<path d="M273.039 466.543V447.288H275.176V464.582H280.686V466.543H273.039Z" fill="#CCCCCC"/>
<path d="M284.451 447.288V466.543H282.294V447.288H284.451Z" fill="#CCCCCC"/>
<path d="M288.549 466.543H286.588V447.288H289.294L293.765 461.209V447.288H295.726V466.543H293.49L288.569 450.974L288.549 466.543Z" fill="#CCCCCC"/>
<path d="M304.745 455.817V457.778H300.039V464.582H305.824V466.543H297.98V447.288H305.824V449.248H300.039V455.837L304.745 455.817Z" fill="#CCCCCC"/>
<path d="M320.726 451.954C320.726 457.837 314.216 459.797 314.176 464.288V464.582H320.51V466.543H312.059V464.896C312.059 458.68 318.588 457.464 318.588 452.033C318.588 450.072 317.922 449.013 316.333 449.013C314.745 449.013 314.078 450.131 314.078 451.856V453.562H312.118V451.994C312.118 449.033 313.471 447.092 316.431 447.092C319.392 447.092 320.726 449.013 320.726 451.954Z" fill="#CCCCCC"/>
<path d="M197.176 523.405V506.111H193.608V504.15H202.843V506.111H199.294V523.405H197.176Z" fill="#CCCCCC"/>
<path d="M204.118 508.817C204.118 505.876 205.588 503.974 208.529 503.974C211.471 503.974 212.961 505.935 212.961 508.817V518.778C213.052 519.4 213.004 520.034 212.819 520.635C212.635 521.236 212.319 521.788 211.895 522.252C211.471 522.715 210.949 523.079 210.367 523.315C209.784 523.552 209.157 523.657 208.529 523.621C205.588 523.621 204.118 521.66 204.118 518.778V508.817ZM206.235 518.895C206.235 520.66 206.98 521.68 208.529 521.68C210.078 521.68 210.804 520.66 210.804 518.895V508.719C210.804 506.974 210.098 505.935 208.529 505.935C206.961 505.935 206.235 506.974 206.235 508.719V518.895Z" fill="#CCCCCC"/>
<path d="M220.118 523.405H217.157L214.529 504.15H216.608L218.863 520.543L221.02 504.17H223.137L225.255 520.582L227.431 504.15H229.216L226.686 523.405H223.843L222 510.346L220.118 523.405Z" fill="#CCCCCC"/>
<path d="M232.922 523.405H230.961V504.15H233.686L238.137 518.072V504.15H240.098V523.405H237.843L232.922 507.837V523.405Z" fill="#CCCCCC"/>
<path d="M251.078 504.17L243.49 523.405H241.529L249.137 504.15L251.078 504.17Z" fill="#CCCCCC"/>
<path d="M261.118 508.817V510.562H259.157V508.719C259.157 506.974 258.471 505.935 256.902 505.935C255.333 505.935 254.647 506.974 254.647 508.719V518.895C254.647 520.621 255.373 521.68 256.902 521.68C258.431 521.68 259.157 520.621 259.157 518.895V516.386H261.118V518.778C261.118 521.699 259.745 523.621 256.784 523.621C253.824 523.621 252.451 521.66 252.451 518.778V508.817C252.451 505.895 253.824 503.974 256.784 503.974C259.745 503.974 261.118 505.895 261.118 508.817Z" fill="#CCCCCC"/>
<path d="M265.216 504.17V523.405H263.078V504.15L265.216 504.17Z" fill="#CCCCCC"/>
<path d="M270.196 523.405V506.111H266.647V504.15H275.863V506.111H272.353V523.405H270.196Z" fill="#CCCCCC"/>
<path d="M280.726 516.523L276.667 504.17H278.882L281.882 513.641L284.922 504.17H286.882L282.765 516.523V523.405H280.647L280.726 516.523Z" fill="#CCCCCC"/>
<path d="M197.843 567.209C200.882 567.209 202.157 568.994 202.157 571.915V574.229C202.157 577.288 200.745 578.876 197.686 578.876H195.726V586.484H193.569V567.209H197.843ZM197.686 577.013C199.275 577.013 200.039 576.268 200.039 574.425V571.876C200.039 570.111 199.412 569.229 197.843 569.229H195.784V577.072L197.686 577.013Z" fill="#CCCCCC"/>
<path d="M205.961 577.817V586.484H203.824V567.209H205.961V575.876H210.706V567.209H212.843V586.484H210.706V577.817H205.961Z" fill="#CCCCCC"/>
<path d="M214.882 571.856C214.882 568.915 216.333 567.013 219.275 567.013C222.216 567.013 223.706 568.974 223.706 571.856V581.817C223.706 584.739 222.255 586.66 219.275 586.66C216.294 586.66 214.882 584.699 214.882 581.817V571.856ZM217 581.935C217 583.699 217.745 584.719 219.275 584.719C220.804 584.719 221.569 583.699 221.569 581.935V571.758C221.569 570.013 220.843 568.974 219.275 568.974C217.706 568.974 217 570.013 217 571.758V581.935Z" fill="#CCCCCC"/>
<path d="M227.647 586.484H225.686V567.209H228.412L232.863 581.131V567.209H234.824V586.484H232.588L227.667 570.896L227.647 586.484Z" fill="#CCCCCC"/>
<path d="M243.843 575.739V577.699H239.137V584.562H244.902V586.523H237.059V567.248H244.902V569.209H239.118V575.778L243.843 575.739Z" fill="#CCCCCC"/>
<path d="M253.059 586.484H251.098V567.209H253.824L258.275 581.131V567.209H260.235V586.484H258L253.078 570.896L253.059 586.484Z" fill="#CCCCCC"/>
<path d="M264.51 581.935C264.51 583.66 265.196 584.719 266.765 584.719C268.333 584.719 269 583.66 269 581.935V567.209H270.961V581.817C270.961 584.739 269.608 586.699 266.647 586.699C263.686 586.699 262.353 584.739 262.353 581.817V567.209H264.51V581.935Z" fill="#CCCCCC"/>
<path d="M280.196 586.445H278.235L275.039 571.131V586.484H273.078V567.209H276.059L279.235 582.601L282.294 567.209H285.294V586.484H283.333V570.974L280.196 586.445Z" fill="#CCCCCC"/>
<path d="M291.765 567.209C294.765 567.209 295.941 568.641 295.941 571.484V572.425C295.941 574.386 295.373 575.719 293.686 576.248C295.647 576.778 296.275 578.209 296.275 580.386V581.994C296.375 582.599 296.332 583.22 296.149 583.805C295.966 584.391 295.649 584.926 295.221 585.366C294.794 585.807 294.269 586.141 293.689 586.342C293.11 586.543 292.491 586.605 291.882 586.523H287.451V567.248L291.765 567.209ZM291.235 575.386C292.941 575.386 293.824 574.837 293.824 572.837V571.699C293.824 569.994 293.255 569.17 291.706 569.17H289.588V575.386H291.235ZM291.882 584.523C293.451 584.523 294.157 583.699 294.157 581.915V580.268C294.157 578.111 293.314 577.405 291.471 577.405H289.51V584.582L291.882 584.523Z" fill="#CCCCCC"/>
<path d="M305.078 575.739V577.699H300.373V584.562H306.255V586.523H298.412V567.248H306.255V569.209H300.373V575.778L305.078 575.739Z" fill="#CCCCCC"/>
<path d="M312.431 567.209C315.451 567.209 316.706 568.758 316.706 571.621V573.19C316.706 575.307 315.98 576.621 314.314 577.111C316.078 577.621 316.745 579.072 316.745 581.033V584.19C316.681 584.98 316.809 585.773 317.118 586.503H314.961C314.65 585.76 314.522 584.953 314.588 584.15V581.131C314.588 578.954 313.569 578.268 311.784 578.268H310.275V586.503H308.137V567.229L312.431 567.209ZM311.863 576.288C313.569 576.288 314.588 575.739 314.588 573.66V571.817C314.588 570.072 313.961 569.17 312.373 569.17H310.275V576.346L311.863 576.288Z" fill="#CCCCCC"/>
<path d="M522.902 504.17C525.941 504.17 527.235 505.954 527.235 508.876V511.19C527.235 514.248 525.804 515.837 522.745 515.837H520.784V523.405H518.647V504.15L522.902 504.17ZM522.745 513.974C524.333 513.974 525.098 513.229 525.098 511.386V508.817C525.098 507.072 524.471 506.19 522.902 506.19H520.941V514.033L522.745 513.974Z" fill="#CCCCCC"/>
<path d="M528.745 508.817C528.745 505.876 530.196 503.974 533.137 503.974C536.078 503.974 537.569 505.935 537.569 508.817V518.778C537.569 521.699 536.118 523.621 533.137 523.621C530.157 523.621 528.745 521.66 528.745 518.778V508.817ZM530.863 518.895C530.863 520.66 531.608 521.68 533.137 521.68C534.667 521.68 535.431 520.66 535.431 518.895V508.719C535.431 506.974 534.706 505.935 533.137 505.935C531.569 505.935 530.863 506.974 530.863 508.719V518.895Z" fill="#CCCCCC"/>
<path d="M547.941 508.797V509.307H545.98V508.68C545.98 506.954 545.314 505.935 543.784 505.935C542.255 505.935 541.588 506.954 541.588 508.66C541.588 512.974 548.039 513.386 548.039 518.817C548.039 521.719 546.647 523.621 543.706 523.621C540.765 523.621 539.373 521.66 539.373 518.817V517.719H541.333V518.915C541.333 520.66 542.039 521.68 543.588 521.68C545.137 521.68 545.843 520.66 545.843 518.915C545.843 514.621 539.392 514.209 539.392 508.797C539.392 505.817 540.784 503.974 543.667 503.974C546.549 503.974 547.941 505.876 547.941 508.797Z" fill="#CCCCCC"/>
<path d="M552.608 523.405V506.111H549.059V504.15H558.275V506.111H554.706V523.405H552.608Z" fill="#CCCCCC"/>
<path d="M572.51 508.817V510.562H570.549V508.719C570.549 506.974 569.863 505.935 568.294 505.935C566.726 505.935 566.039 506.974 566.039 508.719V518.895C566.039 520.621 566.745 521.68 568.294 521.68C569.843 521.68 570.549 520.621 570.549 518.895V516.386H572.51V518.778C572.51 521.699 571.118 523.621 568.157 523.621C565.196 523.621 563.843 521.66 563.843 518.778V508.817C563.843 505.895 565.216 503.974 568.157 503.974C571.098 503.974 572.51 505.895 572.51 508.817Z" fill="#CCCCCC"/>
<path d="M574.314 508.817C574.314 505.876 575.765 503.974 578.706 503.974C581.647 503.974 583.137 505.935 583.137 508.817V518.778C583.137 521.699 581.686 523.621 578.706 523.621C575.725 523.621 574.314 521.66 574.314 518.778V508.817ZM576.431 518.895C576.431 520.66 577.176 521.68 578.706 521.68C580.235 521.68 581 520.66 581 518.895V508.719C581 506.974 580.274 505.935 578.706 505.935C577.137 505.935 576.431 506.974 576.431 508.719V518.895Z" fill="#CCCCCC"/>
<path d="M589.667 504.17C592.667 504.17 594.039 505.994 594.039 508.954V518.758C594.039 521.699 592.667 523.503 589.667 523.503H585.157V504.248L589.667 504.17ZM589.667 521.484C591.196 521.484 591.941 520.523 591.941 518.758V508.856C591.941 507.092 591.196 506.131 589.628 506.131H587.314V521.445L589.667 521.484Z" fill="#CCCCCC"/>
<path d="M602.902 512.699V514.66H598.196V521.445H603.98V523.405H596.039V504.15H603.98V506.111H598.196V512.68L602.902 512.699Z" fill="#CCCCCC"/>
<path d="M1105.12 147.19H163.039V205.758H1105.12V147.19Z" fill="#92E3A9" stroke="#263238" stroke-linecap="round" stroke-linejoin="round"/>
<path d="M593.922 163.935H458.392V205.758H593.922V163.935Z" fill="white" stroke="#263238" stroke-linecap="round" stroke-linejoin="round"/>
<path d="M744.51 163.935H608.98V205.758H744.51V163.935Z" fill="white" stroke="#263238" stroke-linecap="round" stroke-linejoin="round"/>
<path d="M895.118 163.935H759.588V205.758H895.118V163.935Z" fill="white" stroke="#263238" stroke-linecap="round" stroke-linejoin="round"/>
<path d="M1045.71 163.935H910.177V205.758H1045.71V163.935Z" fill="white" stroke="#263238" stroke-linecap="round" stroke-linejoin="round"/>
<path d="M989.196 735.974H283.922V770.719H989.196V735.974Z" fill="#263238" stroke="#263238" stroke-linecap="round" stroke-linejoin="round"/>
<path d="M989.196 752.699H283.922V770.719H989.196V752.699Z" fill="white" stroke="#263238" stroke-linecap="round" stroke-linejoin="round"/>
<path d="M38.1177 791.307C38.1177 791.307 49.6863 805.464 84.4314 817.052H1188.67C1188.67 817.052 1214.41 810.621 1225.92 792.601L38.1177 791.307Z" fill="#263238" stroke="#263238" stroke-linecap="round" stroke-linejoin="round"/>
<path d="M1224.78 765.954H39.451C37.4043 765.954 35.7451 767.613 35.7451 769.66V789.307C35.7451 791.354 37.4043 793.013 39.451 793.013H1224.78C1226.83 793.013 1228.49 791.354 1228.49 789.307V769.66C1228.49 767.613 1226.83 765.954 1224.78 765.954Z" fill="#969696" stroke="#263238" stroke-miterlimit="10"/>
<path d="M642.941 122.092C642.941 120.312 642.413 118.571 641.424 117.091C640.435 115.611 639.03 114.458 637.385 113.777C635.741 113.095 633.931 112.917 632.185 113.264C630.44 113.612 628.836 114.469 627.577 115.728C626.319 116.986 625.461 118.59 625.114 120.336C624.767 122.082 624.945 123.891 625.626 125.536C626.308 127.18 627.461 128.586 628.941 129.575C630.421 130.564 632.161 131.092 633.941 131.092C636.328 131.092 638.617 130.143 640.305 128.456C641.993 126.768 642.941 124.479 642.941 122.092V122.092Z" fill="#263238" stroke="#263238" stroke-linecap="round" stroke-linejoin="round"/>
<path d="M130.765 289.386C130.083 289.386 129.43 289.115 128.948 288.633C128.467 288.152 128.196 287.498 128.196 286.817V212.17C128.216 211.502 128.496 210.869 128.976 210.404C129.455 209.939 130.097 209.679 130.765 209.68V209.68C131.448 209.68 132.103 209.95 132.588 210.431C133.073 210.912 133.348 211.565 133.353 212.248V286.896C133.332 287.566 133.05 288.203 132.566 288.668C132.083 289.134 131.436 289.391 130.765 289.386V289.386Z" fill="#263238"/>
<path d="M1018.24 238.484H890.196C888.626 238.484 887.353 239.757 887.353 241.327V319.699C887.353 321.27 888.626 322.543 890.196 322.543H1018.24C1019.81 322.543 1021.08 321.27 1021.08 319.699V241.327C1021.08 239.757 1019.81 238.484 1018.24 238.484Z" fill="#ADADAD"/>
<path d="M1010.8 246.386H985.51V264.974H1010.8V246.386Z" fill="white"/>
<path d="M901.471 287.288H917.079" stroke="white" stroke-miterlimit="10"/>
<path d="M901.471 253.817H917.079" stroke="white" stroke-miterlimit="10"/>
<path d="M901.471 308.856H917.079" stroke="white" stroke-miterlimit="10"/>
<path d="M926 308.856H941.627" stroke="white" stroke-miterlimit="10"/>
<path d="M924.529 287.288H940.137" stroke="white" stroke-miterlimit="10"/>
<path d="M947.588 287.288H963.196" stroke="white" stroke-miterlimit="10"/>
<path d="M970.627 287.288H986.255" stroke="white" stroke-miterlimit="10"/>
<path d="M993.686 287.288H1009.31" stroke="white" stroke-miterlimit="10"/>
<path d="M769.843 610.425C769.843 610.425 739 591.19 744.353 590.288C749.706 589.386 832.471 592.543 839.627 593.425C846.784 594.307 870.49 597.013 873.608 598.347C876.726 599.68 908.49 610.876 928.627 612.66C948.765 614.445 969.804 613.111 973.353 614.896C976.902 616.68 990.353 630.582 987.216 635.464C984.078 640.347 975.588 641.739 975.588 641.739L909.392 648.896C909.392 648.896 898.667 636.366 890.157 632.778C881.647 629.19 824.412 612.209 808.314 612.209C792.216 612.209 769.843 610.425 769.843 610.425Z" fill="#263238" stroke="#263238" stroke-miterlimit="10"/>
<path d="M762.255 646.209C762.255 646.209 733.137 701.66 702.765 722.229C702.765 722.229 697.843 724.033 706.784 724.033C715.725 724.033 743.471 694.052 752.412 683.327C761.353 672.601 770.745 665.876 782.372 665.876H799.373L762.255 646.209Z" fill="#263238" stroke="#263238" stroke-miterlimit="10"/>
<path d="M790.882 693.621C778.673 693.617 766.736 697.234 756.582 704.015C746.428 710.796 738.514 720.436 733.84 731.716C729.165 742.996 727.941 755.408 730.322 767.384C732.703 779.359 738.583 790.359 747.216 798.993C755.85 807.627 766.85 813.506 778.825 815.887C790.801 818.268 803.213 817.044 814.493 812.37C825.773 807.695 835.413 799.781 842.194 789.627C848.975 779.473 852.592 767.537 852.588 755.327C852.588 738.961 846.087 723.266 834.515 711.694C822.943 700.122 807.248 693.621 790.882 693.621V693.621ZM790.882 790.68C783.902 790.68 777.078 788.61 771.274 784.732C765.47 780.854 760.946 775.341 758.275 768.892C755.603 762.443 754.905 755.347 756.266 748.5C757.628 741.654 760.99 735.365 765.926 730.429C770.862 725.493 777.15 722.132 783.997 720.77C790.843 719.408 797.94 720.107 804.389 722.778C810.838 725.45 816.35 729.973 820.228 735.777C824.106 741.581 826.176 748.405 826.176 755.386C826.176 764.746 822.458 773.723 815.839 780.342C809.22 786.961 800.243 790.68 790.882 790.68V790.68Z" fill="#263238" stroke="#263238" stroke-miterlimit="10"/>
<path d="M790.882 729.837C785.841 729.837 780.913 731.332 776.721 734.133C772.529 736.933 769.262 740.914 767.332 745.572C765.403 750.23 764.898 755.355 765.882 760.3C766.865 765.244 769.293 769.786 772.858 773.351C776.423 776.916 780.965 779.344 785.909 780.327C790.854 781.311 795.979 780.806 800.637 778.877C805.295 776.947 809.276 773.68 812.077 769.488C814.878 765.297 816.373 760.368 816.373 755.327C816.373 748.566 813.687 742.083 808.907 737.303C804.126 732.522 797.643 729.837 790.882 729.837V729.837ZM790.882 769.935C787.992 769.939 785.166 769.085 782.761 767.482C780.357 765.88 778.481 763.6 777.372 760.931C776.264 758.262 775.972 755.324 776.533 752.489C777.095 749.654 778.484 747.049 780.526 745.005C782.569 742.96 785.172 741.566 788.006 741.001C790.84 740.436 793.778 740.724 796.448 741.829C799.119 742.934 801.401 744.806 803.007 747.209C804.613 749.612 805.471 752.437 805.471 755.327C805.471 759.198 803.934 762.91 801.199 765.649C798.464 768.388 794.753 769.93 790.882 769.935V769.935Z" fill="#263238" stroke="#263238" stroke-miterlimit="10"/>
<path d="M790.882 711.052C782.123 711.041 773.557 713.627 766.269 718.485C758.98 723.343 753.296 730.254 749.936 738.343C746.576 746.432 745.691 755.336 747.392 763.928C749.094 772.52 753.306 780.415 759.496 786.613C765.685 792.811 773.574 797.033 782.164 798.746C790.754 800.459 799.659 799.586 807.753 796.237C815.847 792.887 822.765 787.213 827.632 779.93C832.5 772.648 835.098 764.086 835.098 755.327C835.103 743.593 830.448 732.338 822.157 724.035C813.865 715.732 802.616 711.063 790.882 711.052V711.052ZM790.882 790.68C783.902 790.68 777.078 788.61 771.274 784.732C765.47 780.853 760.946 775.341 758.275 768.892C755.603 762.443 754.905 755.346 756.266 748.5C757.628 741.654 760.99 735.365 765.926 730.429C770.862 725.493 777.15 722.131 783.997 720.77C790.843 719.408 797.94 720.107 804.389 722.778C810.838 725.449 816.35 729.973 820.228 735.777C824.106 741.581 826.176 748.405 826.176 755.386C826.176 764.746 822.458 773.723 815.839 780.342C809.22 786.961 800.243 790.68 790.882 790.68V790.68Z" fill="white" stroke="#263238" stroke-miterlimit="10"/>
<path d="M818.608 669.464L801.157 716.876L809.216 719.994L827.098 672.582L818.608 669.464Z" fill="#263238" stroke="#263238" stroke-miterlimit="10"/>
<path d="M801.157 716.876C801.157 716.876 782.823 708.817 768.059 719.994C753.294 731.17 751.51 744.974 751.51 744.974C751.51 744.974 774.765 761.954 805.176 764.582C835.588 767.209 866.451 762.797 881.647 758.327C890.958 755.561 899.95 751.815 908.471 747.15L870.902 705.974C870.902 705.974 865.549 698.366 853.02 705.523C840.49 712.68 840.039 722.072 840.039 722.072L801.157 716.876Z" fill="#263238" stroke="#263238" stroke-miterlimit="10"/>
<path d="M827.098 672.582L814.137 720.445L851.706 737.445C851.302 731.977 852.545 726.513 855.274 721.758C859.745 714.601 865.569 715.033 866.902 715.876C868.235 716.719 876.294 720.798 876.294 720.798L872.725 692.621L827.098 672.582Z" fill="#263238" stroke="#263238" stroke-miterlimit="10"/>
<path d="M1162.12 693.621C1149.91 693.617 1137.97 697.234 1127.82 704.015C1117.66 710.796 1109.75 720.436 1105.07 731.716C1100.4 742.996 1099.18 755.408 1101.56 767.384C1103.94 779.359 1109.82 790.359 1118.45 798.993C1127.09 807.627 1138.09 813.506 1150.06 815.887C1162.04 818.268 1174.45 817.044 1185.73 812.37C1197.01 807.695 1206.65 799.781 1213.43 789.627C1220.21 779.473 1223.83 767.537 1223.82 755.327C1223.82 747.224 1222.23 739.2 1219.13 731.713C1216.03 724.227 1211.48 717.424 1205.75 711.694C1200.02 705.964 1193.22 701.419 1185.73 698.318C1178.24 695.217 1170.22 693.621 1162.12 693.621V693.621ZM1162.12 790.68C1155.14 790.68 1148.31 788.61 1142.51 784.732C1136.71 780.854 1132.18 775.341 1129.51 768.892C1126.84 762.443 1126.14 755.347 1127.5 748.5C1128.86 741.654 1132.22 735.365 1137.16 730.429C1142.1 725.493 1148.39 722.132 1155.23 720.77C1162.08 719.408 1169.17 720.107 1175.62 722.778C1182.07 725.45 1187.59 729.973 1191.46 735.777C1195.34 741.581 1197.41 748.405 1197.41 755.386C1197.41 764.746 1193.69 773.723 1187.07 780.342C1180.46 786.961 1171.48 790.68 1162.12 790.68V790.68Z" fill="#263238" stroke="#263238" stroke-miterlimit="10"/>
<path d="M1162.12 729.837C1157.08 729.837 1152.15 731.332 1147.96 734.133C1143.76 736.933 1140.5 740.914 1138.57 745.572C1136.64 750.23 1136.13 755.355 1137.12 760.3C1138.1 765.244 1140.53 769.786 1144.09 773.351C1147.66 776.916 1152.2 779.344 1157.14 780.327C1162.09 781.311 1167.21 780.806 1171.87 778.877C1176.53 776.947 1180.51 773.68 1183.31 769.488C1186.11 765.297 1187.61 760.368 1187.61 755.327C1187.61 748.566 1184.92 742.083 1180.14 737.303C1175.36 732.522 1168.88 729.837 1162.12 729.837ZM1162.12 769.935C1159.23 769.939 1156.4 769.085 1154 767.482C1151.59 765.88 1149.72 763.6 1148.61 760.931C1147.5 758.262 1147.21 755.324 1147.77 752.489C1148.33 749.654 1149.72 747.049 1151.76 745.005C1153.8 742.96 1156.41 741.566 1159.24 741.001C1162.07 740.436 1165.01 740.724 1167.68 741.829C1170.35 742.934 1172.64 744.806 1174.24 747.209C1175.85 749.612 1176.71 752.437 1176.71 755.327C1176.71 759.198 1175.17 762.91 1172.43 765.649C1169.7 768.388 1165.99 769.93 1162.12 769.935V769.935Z" fill="#263238" stroke="#263238" stroke-miterlimit="10"/>
<path d="M1162.12 711.052C1153.36 711.052 1144.8 713.649 1137.52 718.514C1130.24 723.379 1124.56 730.294 1121.21 738.384C1117.86 746.474 1116.99 755.376 1118.69 763.965C1120.4 772.553 1124.62 780.442 1130.81 786.634C1137 792.826 1144.89 797.042 1153.48 798.751C1162.07 800.459 1170.97 799.582 1179.06 796.231C1187.15 792.88 1194.07 787.205 1198.93 779.925C1203.8 772.644 1206.39 764.084 1206.39 755.327C1206.39 743.585 1201.73 732.323 1193.42 724.02C1185.12 715.717 1173.86 711.052 1162.12 711.052V711.052ZM1162.12 790.68C1155.14 790.68 1148.31 788.61 1142.51 784.732C1136.71 780.854 1132.18 775.341 1129.51 768.892C1126.84 762.443 1126.14 755.347 1127.5 748.5C1128.86 741.654 1132.22 735.365 1137.16 730.429C1142.1 725.493 1148.39 722.132 1155.23 720.77C1162.08 719.408 1169.17 720.107 1175.62 722.778C1182.07 725.45 1187.59 729.973 1191.46 735.777C1195.34 741.582 1197.41 748.405 1197.41 755.386C1197.41 764.746 1193.69 773.724 1187.07 780.343C1180.46 786.961 1171.48 790.68 1162.12 790.68V790.68Z" fill="white" stroke="#263238" stroke-miterlimit="10"/>
<path d="M1105.49 697.915L1154.18 712.896C1154.18 712.896 1180.39 693.092 1210.33 700.052C1210.33 700.052 1199.65 669.562 1132.24 664.209L1105.49 697.915Z" fill="#92E3A9" stroke="#263238" stroke-miterlimit="10"/>
<path d="M1155.59 755.327L1113.63 682.229L1121.98 677.445L1163.94 750.601C1164.43 751.492 1164.55 752.538 1164.29 753.518C1164.02 754.498 1163.38 755.336 1162.51 755.856L1160.82 756.817C1159.93 757.295 1158.88 757.406 1157.91 757.128C1156.93 756.85 1156.1 756.205 1155.59 755.327Z" fill="#6E6E6E" stroke="#263238" stroke-miterlimit="10"/>
<path d="M1062.35 564.366C1062.35 564.366 1101.71 583.15 1112.45 591.19C1123.2 599.229 1145.1 616.68 1148.67 621.601C1152.24 626.523 1162.53 642.621 1158.96 647.994C1155.39 653.366 1153.08 656.484 1150.9 657.797C1148.73 659.111 1138.39 660.915 1133.47 666.739C1128.55 672.562 1087.39 737.856 1087.39 737.856C1087.39 737.856 1072.65 761.562 1070.39 761.562C1068.14 761.562 1042.22 770.954 1009.14 769.601C976.059 768.248 936.235 759.327 929.078 758.876C921.922 758.425 913.863 754.405 910.725 752.601C907.588 750.797 898.667 745.013 885.686 731.582C872.706 718.15 864.216 713.699 865.118 696.699C865.118 696.699 763.157 651.974 758.216 647.052C753.275 642.131 741.667 619.327 746.588 615.307C751.51 611.288 772.078 606.797 798.02 609.935C823.961 613.072 880.765 626.033 891.941 633.641C898.391 637.937 904.257 643.051 909.392 648.856L975.588 641.699L979.608 648.895C979.608 648.895 955.902 679.739 955.902 681.974C955.902 684.209 982.294 728.503 982.294 728.503C982.294 728.503 968.431 730.288 958.588 730.739C948.745 731.19 940.255 732.523 940.255 732.523C940.255 732.523 1027.92 737.445 1041.78 736.543C1055.65 735.641 1064.59 720.856 1066.82 715.072C1069.06 709.288 1063.24 681.092 1068.16 664.092C1073.08 647.092 1079.35 635.915 1072.65 624.288C1065.94 612.66 1042.67 586.719 1042.67 579.19C1042.67 571.66 1062.35 564.366 1062.35 564.366Z" fill="#92E3A9" stroke="#263238" stroke-miterlimit="10"/>
<path d="M1062.35 564.366C1062.35 564.366 1036.41 579.562 1036.41 582.248C1036.41 584.935 1058.33 626.974 1061.45 635.915C1064.57 644.856 1055.2 703.444 1052.96 709.719C1050.73 715.993 1037.74 729.327 1037.74 729.327L982.294 728.445L971.804 730.797L958.588 730.68C958.588 730.68 943.392 723.523 940.706 723.072C938.02 722.621 890.157 710.092 883.451 714.131C876.745 718.17 878.98 723.072 881.667 723.935C884.353 724.797 982.745 742.719 984.98 742.719C987.216 742.719 1036.41 750.758 1053.41 744.503C1070.41 738.248 1086.94 714.092 1090.53 706.033L1094.1 697.994L1079.35 685.013C1079.35 685.013 1079.78 672.484 1082.47 665.778C1085.16 659.072 1094.1 638.954 1091.43 631.797C1088.76 624.641 1050.78 585.386 1051.18 579.562C1051.57 573.739 1062.35 564.366 1062.35 564.366Z" fill="#263238" stroke="#263238" stroke-miterlimit="10"/>
<path d="M1067.73 697.19C1062.88 698.543 1058.04 702.327 1053.75 706.719C1053.43 708.111 1053.16 709.131 1052.96 709.719C1050.73 715.974 1037.75 729.327 1037.75 729.327L982.294 728.444L971.804 730.797L958.588 730.68C953.496 731.891 948.512 733.518 943.686 735.543C965.078 739.464 984.02 742.758 984.98 742.758C987.216 742.758 1036.41 750.797 1053.41 744.543C1070.41 738.288 1086.94 714.131 1090.53 706.072L1094.1 698.033C1085.6 695.08 1076.4 694.786 1067.73 697.19V697.19Z" fill="#263238" stroke="#263238" stroke-miterlimit="10"/>
<path d="M1065.49 524.994C1065.49 524.994 1042.22 516.503 1033.73 520.072C1025.24 523.641 1011.37 534.837 1009.57 542.445C1007.76 550.052 1011.37 553.621 1017.18 558.994C1022.98 564.366 1038.65 581.346 1038.65 581.346L1062.35 564.366L1065.49 560.327C1065.49 560.327 1076.67 557.209 1077.12 554.974C1077.43 548.186 1076.67 541.391 1074.88 534.837C1074.27 532.538 1073.09 530.43 1071.45 528.709C1069.81 526.988 1067.76 525.71 1065.49 524.994Z" fill="#92E3A9" stroke="#263238" stroke-miterlimit="10"/>
<path d="M1064.51 526.797C1064.51 526.797 1060.59 534.386 1063.61 539.758C1066.63 545.131 1073.41 559.876 1075.24 555.445C1077.06 551.013 1074.35 536.66 1071.31 532.641C1069.47 530.248 1067.15 528.26 1064.51 526.797Z" fill="white" stroke="#263238" stroke-miterlimit="10"/>
<path d="M1024.14 565.954C1030.8 572.837 1038.65 581.346 1038.65 581.346L1062.35 564.366L1065.49 560.327C1068.72 559.422 1071.88 558.254 1074.92 556.837C1065.78 552.523 1045.27 543.464 1040.43 546.915C1035.59 550.366 1027.86 560.797 1024.14 565.954Z" fill="#6E6E6E" stroke="#263238" stroke-miterlimit="10"/>
<path d="M1030.59 530.366C1030.59 530.366 1030.16 498.621 1024.71 497.719C1019.25 496.817 1009.49 500.856 1009.49 500.856C1007.34 497.79 1005.87 494.295 1005.19 490.609C1004.52 486.923 1004.64 483.135 1005.57 479.503C1005.69 479.033 1005.82 478.542 1005.98 478.033C1010 464.621 1029.69 489.66 1031.47 493.719C1032.58 496.861 1033.04 500.198 1032.8 503.523L1035.49 528.582C1035.49 528.582 1043.1 533.052 1039.53 533.503C1035.96 533.954 1021.63 533.503 1025.22 529.915C1028.8 526.327 1030.59 530.366 1030.59 530.366Z" fill="#263238" stroke="#263238" stroke-miterlimit="10"/>
<path d="M1056.39 568.641L1009.18 547.072C1009.57 551.719 1012.71 554.798 1017.18 558.837C1023.06 564.209 1038.65 581.19 1038.65 581.19L1056.39 568.641Z" fill="#263238" stroke="#263238" stroke-miterlimit="10"/>
<path d="M844.196 460.876H696.196V588.19H844.196V460.876Z" fill="#263238" stroke="#263238" stroke-miterlimit="10"/>
<path d="M831.471 588.209H707.333V591.386H831.471V588.209Z" fill="#263238" stroke="#263238" stroke-miterlimit="10"/>
<path d="M975.882 729.288C979.667 728.876 982.294 728.543 982.294 728.543C982.294 728.543 955.902 684.19 955.902 681.974C955.902 679.758 979.608 648.895 979.608 648.895L975.588 641.739L909.392 648.895C909.392 648.895 947.412 693.17 959.49 707.484C965.346 714.449 970.818 721.728 975.882 729.288V729.288Z" fill="#6E6E6E" stroke="#263238" stroke-miterlimit="10"/>
<path d="M1149.1 645.111L1156.84 647.131" stroke="#263238" stroke-miterlimit="10"/>
<path d="M1095.33 631.092L1142.61 643.425" stroke="#263238" stroke-miterlimit="10"/>
<path d="M1123.16 634.288L1093.2 608.621L1110.84 613.425L1141.88 639.111L1123.16 634.288Z" fill="white" stroke="#263238" stroke-miterlimit="10"/>
<path d="M924.039 688.758C931.294 689.405 936.471 689.915 936.471 689.915" stroke="#263238" stroke-miterlimit="10"/>
<path d="M868.255 693.994C868.255 693.994 868.255 687.582 882.706 686.778C894.489 686.67 906.27 687.181 918 688.307" stroke="#263238" stroke-miterlimit="10"/>
<path d="M979.098 587.837C977.314 587.405 967.157 579.072 968.98 578.856C985.118 576.896 1026.84 581.699 1033.9 582.778C1043.39 584.131 1030.47 638.758 1027.31 658.17C1024.59 674.896 1028.37 686.15 1028.04 689.543C1028.01 689.804 1028.05 690.068 1028.15 690.311C1028.25 690.555 1028.4 690.769 1028.61 690.935L1030.57 692.66C1030.88 692.946 1031.09 693.336 1031.14 693.758L1031.8 700.17C1031.85 700.581 1032.05 700.959 1032.36 701.23C1032.68 701.502 1033.08 701.648 1033.49 701.641C1038.33 701.618 1043.15 700.864 1047.76 699.405C1053.18 697.15 1061.75 693.994 1059.53 698.954C1057.31 703.915 1050.06 712.954 1046 714.758C1041.94 716.562 1020.27 722.425 1014.84 723.798C1010.78 724.798 1000.88 724.798 996.176 724.739C995.901 724.739 995.629 724.67 995.388 724.537C995.146 724.404 994.942 724.212 994.795 723.979C994.648 723.746 994.563 723.479 994.547 723.204C994.532 722.929 994.586 722.654 994.706 722.405C996.667 717.935 1000.96 707.954 1001.31 702.131C1001.76 694.445 1003.59 646.111 1007.65 632.111C1011.2 619.896 1016.14 605.288 1017.33 598.523C1017.38 598.312 1017.39 598.093 1017.35 597.879C1017.31 597.665 1017.24 597.461 1017.12 597.278C1017 597.096 1016.85 596.938 1016.67 596.815C1016.49 596.692 1016.29 596.606 1016.08 596.562L979.098 587.837Z" fill="#263238" stroke="#263238" stroke-miterlimit="10"/>
<path d="M1003.59 710.915L1015 716.405C1015.21 716.512 1015.43 716.572 1015.67 716.582C1018.04 716.582 1032.25 717.092 1034.73 717.915C1037.2 718.739 1038.78 719.268 1036.53 721.974C1034.27 724.68 1024.35 729.288 1013.53 731.464C1003.88 733.612 993.997 734.522 984.118 734.17C980.377 734.027 976.657 733.555 973 732.758C972.574 732.664 972.202 732.405 971.967 732.038C971.731 731.67 971.652 731.224 971.745 730.797L974.431 715.876C974.493 715.533 974.66 715.219 974.91 714.976C975.16 714.733 975.479 714.575 975.824 714.523L1002.57 710.719C1002.92 710.67 1003.28 710.739 1003.59 710.915Z" fill="white" stroke="#263238" stroke-miterlimit="10"/>
<path d="M1036.53 721.974C1038.49 719.562 1037.69 718.935 1035.55 718.19L1033.71 718.405C1029.96 720.895 1023.47 723.817 1012.14 726.503C999.554 729.701 986.515 730.716 973.588 729.503C973.173 729.462 972.757 729.578 972.423 729.828C972.089 730.079 971.861 730.446 971.784 730.856C971.691 731.283 971.771 731.729 972.006 732.096C972.241 732.464 972.613 732.723 973.039 732.817C976.696 733.614 980.417 734.086 984.157 734.229C994.036 734.581 1003.92 733.671 1013.57 731.523C1024.35 729.288 1034.27 724.699 1036.53 721.974Z" fill="white" stroke="#263238" stroke-miterlimit="10"/>
<path d="M887.176 558.699C887.176 558.699 881.765 592.562 884.471 601.131C887.176 609.699 950.176 617.013 967.333 615.66C980.765 614.601 978.706 616.17 992.569 615.17C993.863 615.072 995.039 615.739 994.784 617.033L975.078 712.856C975.033 713.086 975.038 713.323 975.091 713.551C975.145 713.779 975.247 713.993 975.39 714.178C975.532 714.364 975.713 714.517 975.92 714.627C976.127 714.737 976.354 714.802 976.588 714.817C981.812 715.207 987.059 715.161 992.274 714.68C996.725 714.05 1001.06 712.789 1005.16 710.935C1005.37 710.838 1005.56 710.697 1005.71 710.521C1005.86 710.345 1005.97 710.138 1006.04 709.915L1007.55 705.033C1007.59 704.839 1007.59 704.639 1007.55 704.445L1006.69 691.111C1006.67 690.884 1006.7 690.657 1006.78 690.445C1008.75 685.131 1029.8 613.288 1031.98 604.582C1034.24 595.562 1036.94 588.346 1031.08 584.288C1025.22 580.229 949.373 564.994 949.373 564.994L887.176 558.699Z" fill="#92E3A9" stroke="#263238" stroke-miterlimit="10"/>
<path d="M903.412 580.425C903.412 580.425 932.314 570.503 949.451 565.072" stroke="#263238" stroke-miterlimit="10"/>
<path d="M995.392 614.072C995.392 614.072 1009.12 613.248 1019.43 606.935" stroke="#263238" stroke-miterlimit="10"/>
<path d="M996.412 618.66C996.412 618.66 1013.53 615.562 1020.78 611.896" stroke="#263238" stroke-miterlimit="10"/>
<path d="M958.49 512.621L961.098 534.758L979.314 539.307L1009.57 542.444L988.412 549.719L949.373 557.523L958.49 512.621Z" fill="#263238" stroke="#263238" stroke-miterlimit="10"/>
<path d="M947.196 435.543C947.196 435.543 937.275 433.288 921.922 447.719C908.098 461.043 898.543 478.172 894.471 496.935C890.412 514.072 886.353 546.582 885 552.896C883.647 559.209 885.451 560.111 888.608 561.915C891.765 563.719 911.176 567.347 928.333 568.249C945.49 569.15 953.608 565.974 955.784 562.817C957.961 559.66 955.784 526.268 958.49 515.425C961.196 504.582 966.608 467.131 966.608 467.131L948.961 436.445L947.196 435.543Z" fill="#263238" stroke="#263238" stroke-miterlimit="10"/>
<path d="M964.804 417.033L951.275 436.895L972.02 459.013C972.02 459.013 986.471 440.503 988.725 439.15C990.98 437.797 995.941 435.543 995.941 435.543L964.804 417.033Z" fill="white" stroke="#263238" stroke-miterlimit="10"/>
<path d="M971.647 433.052L979.882 448.68L988.725 439.15L971.647 433.052Z" fill="#263238" stroke="#263238" stroke-miterlimit="10"/>
<path d="M1009.49 403.503L1010.84 410.268C1010.84 410.268 1016.25 415.68 1014.9 418.837C1013.55 421.993 1007.24 424.719 1007.24 424.719C1007.24 424.719 998.961 441.954 997.137 443.758C995.314 445.562 981.059 439.621 974.745 436.013C968.431 432.405 967.059 422.013 967.059 422.013L963.902 419.758C963.902 419.758 954.431 417.503 953.529 412.543C952.628 407.582 952.176 402.15 957.588 398.993C963 395.837 967.059 394.033 969.353 394.033C971.647 394.033 1003.22 398.993 1003.22 398.993L1009.49 403.503Z" fill="white" stroke="#263238" stroke-miterlimit="10"/>
<path d="M1004.98 426.974C1004.98 426.974 996.863 426.503 995.039 421.543" stroke="#263238" stroke-miterlimit="10"/>
<path d="M977.902 399.876C977.902 399.876 974.294 408.915 972.922 409.817C971.549 410.719 971.118 402.582 963 404.405C954.882 406.229 956.235 415.229 958.49 417.033C960.127 418.236 961.957 419.151 963.902 419.739L959.588 425.111C959.588 425.111 957.627 422.895 950.824 422.445C944.02 421.994 935.922 414.327 935.471 408.464C935.02 402.601 940.431 395.366 940.431 395.366C940.187 396.264 940.282 397.219 940.698 398.051C941.114 398.883 941.822 399.533 942.686 399.876C945.008 400.668 947.5 400.824 949.902 400.327L977.902 399.876Z" fill="#263238" stroke="#263238" stroke-miterlimit="10"/>
<path d="M945.843 401.229L1012.2 403.954C1012.2 403.954 1009.94 384.19 1007.65 376.856C1005.35 369.523 980.196 361.17 966.569 362.425C952.941 363.68 948.059 379.111 948.059 379.111L945.843 401.229Z" fill="#263238" stroke="#263238" stroke-miterlimit="10"/>
<path d="M990 403.033C998.761 405.056 1007.66 406.419 1016.63 407.111C1030.18 408.013 1039.2 403.954 1039.2 400.778C1039.2 397.601 1009.41 403.503 1009.41 403.503L990 403.033Z" fill="#92E3A9" stroke="#263238" stroke-miterlimit="10"/>
<path d="M949.471 426.503L975.647 462.17L964.804 474.366L943.588 434.641L949.471 426.503Z" fill="#92E3A9" stroke="#263238" stroke-miterlimit="10"/>
<path d="M924.569 533.327L987.451 542.19C987.451 542.19 1008.1 538.464 1013.63 535.19C1019.16 531.915 1022.51 533.797 1023.65 535.346C1024.78 536.895 1026.35 547.621 1026.9 549.994C1027.45 552.366 1022.65 553.915 1020.73 554.543C1018.8 555.17 1008.96 550.915 1008.96 550.915C1008.96 550.915 998.176 555.68 994.176 555.072C991.401 554.56 988.742 553.544 986.333 552.072C986.333 552.072 913.431 560.17 902.824 560.856C892.216 561.543 896.059 550.582 897.235 545.582C899.02 537.974 900.373 531.268 900.373 531.268L924.569 533.327Z" fill="white" stroke="#263238" stroke-miterlimit="10"/>
<path d="M936.569 455.503C930.216 455.797 922.843 462.856 919.137 468.896C908.961 485.68 894.02 538.288 894.02 538.288L941.647 533.719C941.647 533.719 947.922 471.68 946.137 465.092C944.196 457.817 940.608 455.307 936.569 455.503Z" fill="#92E3A9" stroke="#263238" stroke-miterlimit="10"/>
<path d="M1020.31 546.464C1020.32 545.132 1019.93 543.829 1019.19 542.72C1018.45 541.611 1017.4 540.746 1016.17 540.235C1014.94 539.723 1013.59 539.589 1012.28 539.847C1010.97 540.106 1009.77 540.747 1008.83 541.689C1007.89 542.631 1007.25 543.831 1006.99 545.137C1006.73 546.444 1006.87 547.798 1007.38 549.027C1007.89 550.257 1008.75 551.307 1009.86 552.045C1010.97 552.782 1012.28 553.174 1013.61 553.17C1015.39 553.17 1017.09 552.464 1018.35 551.206C1019.61 549.948 1020.31 548.243 1020.31 546.464V546.464Z" fill="#263238" stroke="#263238" stroke-miterlimit="10"/>
<path d="M738.353 630.092H698.255" stroke="#263238" stroke-miterlimit="10"/>
<path d="M711.627 658.739H627.569" stroke="#263238" stroke-miterlimit="10"/>
<path d="M935.118 418.052H877.804" stroke="#263238" stroke-miterlimit="10"/>
<path d="M679.137 555.582H658.137" stroke="#263238" stroke-miterlimit="10"/>
<path d="M1330.57 817.052H1380.63" stroke="#263238" stroke-linecap="round" stroke-linejoin="round"/>
<path d="M1 817.052H1318.55" stroke="#263238" stroke-linecap="round" stroke-linejoin="round"/>
</svg>
